<svg width="1938" height="1392" viewBox="0 0 1938 1392" fill="none" xmlns="http://www.w3.org/2000/svg">
<path d="M1495.98 1049.83C1495.98 1053.19 1495.33 1056.52 1494.05 1059.62C1492.78 1062.73 1490.91 1065.55 1488.56 1067.92C1486.21 1070.3 1483.42 1072.18 1480.34 1073.47C1477.27 1074.76 1473.98 1075.42 1470.65 1075.42H439.889C433.171 1075.42 426.728 1072.72 421.978 1067.92C417.227 1063.12 414.559 1056.61 414.559 1049.83V1049.83C414.559 1046.47 415.214 1043.14 416.487 1040.03C417.76 1036.93 419.625 1034.11 421.977 1031.73C424.33 1029.35 427.122 1027.47 430.195 1026.18C433.269 1024.9 436.563 1024.23 439.889 1024.23H1470.65C1473.98 1024.23 1477.27 1024.9 1480.34 1026.18C1483.42 1027.47 1486.21 1029.35 1488.56 1031.73C1490.91 1034.11 1492.78 1036.93 1494.05 1040.03C1495.33 1043.14 1495.98 1046.47 1495.98 1049.83Z" fill="FEA64D"/>
<path d="M883.875 384.582L932.051 372.526C932.051 372.526 943.096 380.546 933.625 392.456C933.075 393.146 883.875 384.582 883.875 384.582Z" fill="FEA64D"/>
<path d="M883.875 384.582L932.051 372.526C932.051 372.526 943.096 380.546 933.625 392.456C933.075 393.146 883.875 384.582 883.875 384.582Z" stroke="#122C3B" stroke-width="1.19242" stroke-miterlimit="10"/>
<path d="M877.88 357.484L909.717 319.015C909.717 319.015 923.319 318.897 922.634 334.159C922.592 335.044 877.88 357.484 877.88 357.484Z" fill="FEA64D"/>
<path d="M877.88 357.484L909.717 319.015C909.717 319.015 923.319 318.897 922.634 334.159C922.592 335.044 877.88 357.484 877.88 357.484Z" stroke="#122C3B" stroke-width="1.19242" stroke-miterlimit="10"/>
<path d="M858.364 359.862L843.819 311.918C843.819 311.918 851.141 300.337 863.429 309.241C864.141 309.759 858.364 359.862 858.364 359.862Z" fill="FEA64D"/>
<path d="M858.364 359.862L843.819 311.918C843.819 311.918 851.141 300.337 863.429 309.241C864.141 309.759 858.364 359.862 858.364 359.862Z" stroke="#122C3B" stroke-width="1.19242" stroke-miterlimit="10"/>
<path d="M949.387 1001.97L905.854 1005.42C905.854 1005.42 897.413 996.847 907.332 987.89C907.906 987.372 949.387 1001.97 949.387 1001.97Z" fill="FEA64D"/>
<path d="M949.387 1001.97L905.854 1005.42C905.854 1005.42 897.413 996.847 907.332 987.89C907.906 987.372 949.387 1001.97 949.387 1001.97Z" stroke="#122C3B" stroke-width="1.19242" stroke-miterlimit="10"/>
<path d="M950.722 1026.36L917.602 1055.11C917.602 1055.11 905.781 1053.23 908.55 1040.09C908.713 1039.33 950.722 1026.36 950.722 1026.36Z" fill="FEA64D"/>
<path d="M950.722 1026.36L917.602 1055.11C917.602 1055.11 905.781 1053.23 908.55 1040.09C908.713 1039.33 950.722 1026.36 950.722 1026.36Z" stroke="#122C3B" stroke-width="1.19242" stroke-miterlimit="10"/>
<path d="M967.999 1027.14L973.781 1070.87C973.781 1070.87 965.774 1079.86 956.379 1070.34C955.835 1069.78 967.999 1027.14 967.999 1027.14Z" fill="FEA64D"/>
<path d="M967.999 1027.14L973.781 1070.87C973.781 1070.87 965.774 1079.86 956.379 1070.34C955.835 1069.78 967.999 1027.14 967.999 1027.14Z" stroke="#122C3B" stroke-width="1.19242" stroke-miterlimit="10"/>
<path d="M753.763 798.827H747.223L744.501 815.654H736.417L739.14 798.827H730.121V791.317H740.358L742.145 780.482H733.168V772.971H743.364L746.167 755.897H754.21L751.448 772.971H757.988L760.791 755.897H768.875L766.072 772.971H775.455V780.482H764.853L763.065 791.317H772.369V798.827H761.847L759.125 815.654H751.041L753.763 798.827ZM748.441 791.317H754.982L756.768 780.482H750.229L748.441 791.317Z" fill="FEA64D"/>
<path d="M617.852 1037.35C614.429 1037.31 611.158 1035.92 608.738 1033.48C606.318 1031.03 604.941 1027.73 604.901 1024.27V974.84H453.814C450.392 974.801 447.121 973.409 444.701 970.965C442.281 968.52 440.904 965.215 440.864 961.758V910.389C440.864 901.991 442.943 895.046 447.1 889.551L590.511 706.857C593.389 703.305 596.027 700.962 598.426 699.829C600.823 698.702 604.101 698.136 608.259 698.133H680.684C684.107 698.174 687.377 699.565 689.797 702.01C692.217 704.455 693.594 707.76 693.634 711.217V897.304H734.883C738.305 897.345 741.576 898.737 743.996 901.182C746.416 903.627 747.793 906.931 747.834 910.389V961.758C747.794 965.215 746.416 968.52 743.996 970.964C741.576 973.409 738.305 974.8 734.883 974.84H693.634V1024.27C693.594 1027.73 692.217 1031.03 689.797 1033.48C687.377 1035.92 684.107 1037.31 680.684 1037.35H617.852ZM607.299 897.304V808.138L537.271 897.304H607.299Z" fill="FEA64D"/>
<path d="M983.702 545.644C1007.68 545.644 1028.31 549.197 1045.57 556.305C1062.84 563.416 1077.15 572.946 1088.5 584.896C1099.86 596.863 1108.53 611.16 1113.92 626.815C1119.55 642.975 1122.86 659.864 1123.76 676.971C1124.39 690.866 1124.71 705.404 1124.72 720.586C1124.72 735.775 1124.4 749.99 1123.76 763.231C1122.86 780.337 1119.55 797.227 1113.92 813.387C1108.53 829.043 1099.86 843.34 1088.5 855.305C1077.15 867.262 1062.84 876.792 1045.57 883.897C1028.31 890.999 1007.68 894.552 983.702 894.557C959.72 894.557 939.095 891.004 921.828 883.897C904.561 876.794 890.252 867.264 878.9 855.305C867.539 843.344 858.868 829.046 853.479 813.387C847.849 797.228 844.538 780.338 843.646 763.231C843.002 749.987 842.682 735.772 842.688 720.586C842.688 705.404 843.007 690.865 843.646 676.971C844.538 659.864 847.849 642.974 853.479 626.815C858.87 611.157 867.541 596.859 878.9 584.896C890.247 572.948 904.556 563.418 921.828 556.305C939.095 549.202 959.72 545.649 983.702 545.644ZM1035.02 760.807C1036.3 733.352 1036.3 706.215 1035.02 679.395C1034.47 671.872 1033.26 664.413 1031.43 657.103C1029.84 650.693 1026.99 644.674 1023.03 639.414C1018.97 634.233 1013.69 630.153 1007.68 627.542C1001.28 624.634 993.29 623.18 983.702 623.18C974.109 623.18 966.115 624.634 959.72 627.542C953.707 630.151 948.433 634.231 944.371 639.414C940.399 644.698 937.468 650.703 935.737 657.103C933.743 664.372 932.616 671.855 932.38 679.395C930.776 706.508 930.776 733.694 932.38 760.807C932.617 768.33 933.663 775.804 935.497 783.099C937.088 789.552 940.032 795.584 944.13 800.787C948.316 805.944 953.661 810.015 959.72 812.661C966.112 815.568 974.107 817.021 983.702 817.021C993.295 817.021 1001.29 815.568 1007.68 812.661C1013.74 810.012 1019.08 805.941 1023.27 800.787C1027.36 795.581 1030.31 789.55 1031.9 783.099C1033.73 775.803 1034.78 768.329 1035.02 760.807V760.807Z" fill="FEA64D"/>
<path d="M1356.62 660.866C1353.2 660.825 1349.93 659.434 1347.51 656.989C1345.09 654.544 1343.71 651.239 1343.67 647.782V598.351H1192.59C1189.16 598.312 1185.89 596.921 1183.47 594.476C1181.05 592.031 1179.68 588.726 1179.64 585.269V533.9C1179.64 525.503 1181.71 518.557 1185.87 513.062L1329.28 330.368C1332.16 326.817 1334.8 324.474 1337.2 323.341C1339.59 322.213 1342.87 321.647 1347.03 321.645H1419.46C1422.88 321.685 1426.15 323.076 1428.57 325.521C1430.99 327.967 1432.37 331.271 1432.41 334.729V520.816H1473.65C1477.08 520.857 1480.35 522.248 1482.77 524.693C1485.19 527.138 1486.56 530.442 1486.6 533.9V585.269C1486.56 588.726 1485.19 592.031 1482.77 594.476C1480.35 596.92 1477.08 598.311 1473.65 598.351H1432.41V647.782C1432.37 651.239 1430.99 654.544 1428.57 656.989C1426.15 659.434 1422.88 660.826 1419.46 660.866H1356.62ZM1346.07 520.816V431.65L1276.04 520.816H1346.07Z" fill="FEA64D"/>
<path d="M609.387 1000.97C605.965 1000.93 602.694 999.537 600.274 997.092C597.854 994.647 596.476 991.343 596.436 987.885V938.455H445.349C441.927 938.415 438.656 937.024 436.236 934.579C433.816 932.134 432.44 928.829 432.4 925.371V874.003C432.4 865.607 434.479 858.661 438.635 853.165L582.047 670.471C584.924 666.919 587.563 664.577 589.961 663.444C592.359 662.316 595.637 661.751 599.794 661.747H672.22C675.642 661.787 678.913 663.179 681.333 665.624C683.753 668.069 685.13 671.374 685.169 674.832V860.918H726.419C729.841 860.959 733.112 862.35 735.532 864.795C737.952 867.241 739.329 870.545 739.369 874.003V925.371C739.33 928.829 737.953 932.134 735.532 934.579C733.112 937.024 729.841 938.415 726.419 938.455H685.169V987.885C685.13 991.343 683.753 994.648 681.333 997.093C678.913 999.537 675.642 1000.93 672.22 1000.97H609.387ZM598.834 860.918V771.752L528.807 860.918H598.834Z" stroke="#122C3B" stroke-width="1.19242" stroke-linecap="round" stroke-linejoin="round"/>
<path d="M941.285 563.291C965.267 563.291 985.891 566.845 1003.16 573.952C1020.43 581.063 1034.74 590.593 1046.09 602.544C1057.44 614.51 1066.11 628.807 1071.51 644.462C1077.13 660.622 1080.44 677.512 1081.34 694.618C1081.98 708.513 1082.3 723.051 1082.3 738.233C1082.3 753.422 1081.98 767.637 1081.34 780.879C1080.44 797.985 1077.13 814.874 1071.51 831.033C1066.11 846.689 1057.44 860.987 1046.09 872.952C1034.73 884.909 1020.42 894.439 1003.16 901.544C985.892 908.647 965.267 912.2 941.285 912.205C917.303 912.205 896.678 908.652 879.412 901.544C862.144 894.442 847.835 884.912 836.484 872.952C825.123 860.991 816.451 846.692 811.063 831.033C805.433 814.875 802.122 797.985 801.231 780.879C800.586 767.634 800.266 753.419 800.272 738.233C800.272 723.051 800.591 708.513 801.231 694.618C802.122 677.511 805.433 660.621 811.063 644.462C816.453 628.804 825.124 614.506 836.484 602.544C847.83 590.595 862.139 581.064 879.412 573.952C896.679 566.85 917.304 563.296 941.285 563.291ZM992.607 778.454C993.88 750.999 993.88 723.861 992.607 697.042C992.053 689.519 990.849 682.06 989.009 674.75C987.427 668.34 984.571 662.322 980.615 657.062C976.552 651.88 971.278 647.8 965.267 645.19C958.866 642.281 950.872 640.827 941.285 640.827C931.692 640.827 923.697 642.281 917.303 645.19C911.291 647.799 906.016 651.879 901.954 657.062C897.982 662.345 895.052 668.35 893.322 674.75C891.327 682.019 890.2 689.502 889.963 697.042C888.36 724.155 888.36 751.341 889.963 778.454C890.201 785.977 891.246 793.451 893.081 800.746C894.671 807.199 897.616 813.231 901.714 818.434C905.9 823.591 911.244 827.661 917.303 830.307C923.696 833.215 931.69 834.669 941.285 834.669C950.878 834.669 958.872 833.215 965.267 830.307C971.323 827.659 976.667 823.588 980.855 818.434C984.948 813.227 987.892 807.196 989.489 800.746C991.317 793.45 992.363 785.976 992.607 778.454V778.454Z" stroke="#122C3B" stroke-width="1.19242" stroke-linecap="round" stroke-linejoin="round"/>
<path d="M1317.13 678.513C1313.71 678.473 1310.44 677.081 1308.02 674.636C1305.6 672.191 1304.22 668.886 1304.18 665.428V615.998H1153.09C1149.67 615.959 1146.4 614.568 1143.98 612.123C1141.56 609.678 1140.18 606.373 1140.14 602.916V551.547C1140.14 543.15 1142.22 536.204 1146.38 530.708L1289.79 348.014C1292.67 344.463 1295.3 342.121 1297.7 340.987C1300.1 339.86 1303.38 339.294 1307.54 339.291H1379.96C1383.38 339.332 1386.65 340.723 1389.07 343.168C1391.49 345.613 1392.87 348.918 1392.91 352.375V538.462H1434.16C1437.58 538.503 1440.85 539.895 1443.27 542.34C1445.69 544.785 1447.07 548.089 1447.11 551.547V602.916C1447.07 606.373 1445.69 609.678 1443.27 612.122C1440.85 614.567 1437.58 615.958 1434.16 615.998H1392.91V665.428C1392.87 668.886 1391.49 672.191 1389.07 674.636C1386.65 677.081 1383.38 678.472 1379.96 678.513H1317.13ZM1306.58 538.462V449.296L1236.55 538.462H1306.58Z" stroke="#122C3B" stroke-width="1.19242" stroke-linecap="round" stroke-linejoin="round"/>
<path d="M442.36 1022.13H1452.87" stroke="#122C3B" stroke-width="1.19242" stroke-linecap="round" stroke-linejoin="round"/>
<path d="M629.022 991.091L620.288 1017.88L600.493 1017.33L607.034 995.03" fill="#EBF0F3"/>
<path d="M629.022 991.091L620.288 1017.88L600.493 1017.33L607.034 995.03" stroke="#122C3B" stroke-width="1.19242" stroke-linecap="round" stroke-linejoin="round"/>
<path d="M703.714 586.087L691.687 587.101C694.61 611.926 684.173 630.264 670.489 643.37L683.752 664.462C707.558 632.665 703.714 586.087 703.714 586.087Z" fill="#EBF0F3" stroke="#122C3B" stroke-width="1.19242" stroke-linecap="round" stroke-linejoin="round"/>
<path d="M621.041 671.212L632.161 692.793C656.826 690.023 673.07 678.729 683.751 664.461L670.489 643.37C649.562 663.41 621.041 671.212 621.041 671.212Z" fill="FEA64D" stroke="#122C3B" stroke-width="1.19242" stroke-linecap="round" stroke-linejoin="round"/>
<path d="M703.543 591.525L692.393 591.33C691.924 591.04 691.493 590.69 691.111 590.289C690.527 589.658 691.744 587.404 691.744 587.404C691.744 587.404 687.618 580.877 686.677 575.305C685.736 569.734 681.368 564.255 684.003 564.184C686.639 564.111 686.766 568.905 688.072 568.337C688.723 568.053 688.94 563.664 688.197 559.385C687.457 555.109 685.758 550.942 687.614 551.291C691.326 551.988 693.336 565.7 693.336 565.7C693.336 565.7 693.609 561.28 693.59 556.655C693.572 551.694 693.339 546.505 695.664 546.539C697.672 546.567 697.636 551.129 698.177 555.671C698.563 558.66 699.119 561.624 699.841 564.549C699.841 564.549 700.83 549.553 702.456 551.107C704.082 552.66 702.906 565.991 703.85 565.986C704.796 565.98 705.96 556.651 707.299 557.413C708.64 558.176 707.223 574.208 707.223 574.208C707.223 574.208 707.732 583.607 704.157 587.97C704.157 587.97 705.748 590.843 703.543 591.525Z" fill="#1F2426"/>
<path d="M677.066 636.615L665.168 644.134L681.899 671.162L693.798 663.644L677.066 636.615Z" fill="FEA64D" stroke="#122C3B" stroke-width="1.19242" stroke-linecap="round" stroke-linejoin="round"/>
<path d="M522.879 479.875C522.878 487.042 520.061 493.914 515.046 498.982C510.03 504.05 503.228 506.897 496.135 506.898H369.441C362.348 506.898 355.545 504.05 350.529 498.983C345.513 493.915 342.695 487.042 342.694 479.875V479.875C342.695 472.708 345.513 465.835 350.529 460.767C355.545 455.7 362.347 452.852 369.441 452.852H496.135C503.228 452.853 510.031 455.7 515.046 460.768C520.061 465.836 522.879 472.709 522.879 479.875V479.875Z" fill="#ffd9b2" stroke="#122C3B" stroke-width="1.19242" stroke-linecap="round" stroke-linejoin="round"/>
<path d="M488.015 485.374H373.345C367.874 485.371 362.566 483.496 358.286 480.055C354.005 476.613 351.005 471.808 349.773 466.423C347.787 470.149 346.791 474.333 346.884 478.564C346.976 482.796 348.154 486.931 350.301 490.565C352.449 494.199 355.493 497.208 359.136 499.298C362.779 501.387 366.896 502.487 371.085 502.488H485.756C489.401 502.497 493 501.673 496.285 500.077C499.569 498.481 502.454 496.154 504.721 493.271C506.989 490.388 508.581 487.024 509.378 483.431C510.175 479.837 510.156 476.109 509.323 472.524C507.251 476.409 504.175 479.656 500.424 481.918C496.672 484.181 492.384 485.375 488.015 485.374V485.374Z" fill="FEA64D"/>
<path d="M579.189 489.828C579.19 496.459 577.898 503.025 575.387 509.152C572.876 515.278 569.195 520.845 564.554 525.534C559.914 530.223 554.404 533.942 548.341 536.479C542.277 539.017 535.778 540.322 529.215 540.321V540.321C522.652 540.322 516.153 539.017 510.089 536.479C504.026 533.942 498.516 530.223 493.876 525.534C489.235 520.845 485.554 515.278 483.043 509.152C480.533 503.025 479.241 496.459 479.242 489.828V469.918C479.241 463.288 480.533 456.722 483.044 450.595C485.555 444.469 489.236 438.903 493.877 434.214C498.517 429.525 504.027 425.806 510.09 423.268C516.153 420.731 522.652 419.425 529.215 419.426V419.426C535.778 419.425 542.277 420.731 548.34 423.268C554.404 425.806 559.913 429.525 564.554 434.214C569.194 438.902 572.875 444.469 575.386 450.595C577.898 456.721 579.19 463.288 579.189 469.918V489.828Z" fill="#ffd9b2" stroke="#122C3B" stroke-width="1.19242" stroke-linecap="round" stroke-linejoin="round"/>
<path d="M544.185 513.221C538.375 513.222 532.622 512.066 527.254 509.82C521.886 507.573 517.008 504.281 512.9 500.13C508.791 495.979 505.533 491.05 503.31 485.627C501.087 480.203 499.943 474.39 499.944 468.52V450.893C499.939 445.099 501.053 439.359 503.222 433.996C497.215 438.087 492.295 443.606 488.896 450.07C485.496 456.533 483.72 463.741 483.726 471.06V488.687C483.725 499.048 487.288 509.088 493.804 517.089C500.32 525.091 509.385 530.556 519.448 532.552C529.512 534.547 539.949 532.949 548.975 528.029C558 523.11 565.054 515.175 568.931 505.582C561.625 510.575 553.005 513.236 544.185 513.221V513.221Z" fill="FEA64D"/>
<path d="M742.484 518.276C742.485 525.748 741.028 533.146 738.199 540.048C735.369 546.951 731.221 553.223 725.992 558.506C720.763 563.789 714.555 567.979 707.723 570.838C700.891 573.696 693.569 575.167 686.174 575.167H586.227C578.832 575.167 571.51 573.696 564.678 570.837C557.846 567.978 551.639 563.788 546.41 558.505C541.181 553.222 537.034 546.95 534.204 540.048C531.375 533.145 529.919 525.747 529.919 518.276V441.472C529.919 434.001 531.375 426.603 534.205 419.701C537.034 412.798 541.182 406.527 546.411 401.244C551.639 395.961 557.847 391.771 564.678 388.912C571.51 386.053 578.832 384.582 586.227 384.582H686.174C693.569 384.581 700.891 386.052 707.723 388.911C714.555 391.77 720.763 395.96 725.992 401.243C731.221 406.526 735.369 412.797 738.198 419.7C741.028 426.603 742.484 434.001 742.484 441.472V518.276Z" fill="#fea64d" stroke="#122C3B" stroke-width="1.19242" stroke-linecap="round" stroke-linejoin="round"/>
<path d="M705.107 541.554H612.21C605.337 541.555 598.531 540.187 592.181 537.53C585.831 534.873 580.062 530.978 575.202 526.068C570.342 521.158 566.487 515.328 563.857 508.913C561.227 502.497 559.873 495.621 559.873 488.677V417.29C559.87 410.652 561.107 404.073 563.521 397.899C554.915 402.322 547.688 409.066 542.64 417.382C537.593 425.699 534.922 435.264 534.923 445.02V516.407C534.922 523.351 536.276 530.227 538.906 536.643C541.536 543.058 545.391 548.888 550.251 553.798C555.11 558.708 560.88 562.603 567.23 565.26C573.58 567.917 580.385 569.284 587.258 569.284H680.156C690.66 569.284 700.922 566.09 709.605 560.118C718.289 554.146 724.993 545.672 728.846 535.798C721.496 539.59 713.36 541.562 705.107 541.554V541.554Z" fill="FEA64D"/>
<path d="M751.189 346.891C743.178 346.829 735.222 348.25 727.717 351.084C727.614 351.082 727.512 351.071 727.409 351.071C722.825 351.071 718.434 353.948 714.375 359.206C710.745 362.64 708.349 366.613 707.574 370.89C697.01 393.948 689.984 434.871 689.984 481.521C689.984 553.567 706.74 611.971 727.409 611.971C729.407 611.95 731.369 611.432 733.12 610.461C739.01 612.072 745.087 612.878 751.189 612.858C775.435 612.858 795.094 600.758 795.094 585.835V373.917C795.094 358.992 775.435 346.891 751.189 346.891Z" fill="#fea64d" stroke="#122C3B" stroke-width="1.19242" stroke-linecap="round" stroke-linejoin="round"/>
<path d="M664.122 514.993C664.123 515.874 663.776 516.719 663.16 517.342C662.543 517.965 661.707 518.315 660.835 518.316V518.316C659.965 518.313 659.132 517.961 658.518 517.339C657.904 516.716 657.559 515.872 657.56 514.993V432.502C657.562 431.624 657.907 430.784 658.521 430.163C659.135 429.543 659.967 429.194 660.835 429.191V429.191C661.705 429.191 662.54 429.539 663.156 430.16C663.773 430.78 664.12 431.622 664.122 432.502V514.993Z" fill="FEA64D"/>
<path d="M640.42 514.993C640.42 515.874 640.074 516.719 639.457 517.342C638.841 517.965 638.005 518.315 637.133 518.316V518.316C636.263 518.313 635.429 517.961 634.815 517.339C634.201 516.716 633.856 515.872 633.856 514.993V432.502C633.859 431.624 634.204 430.784 634.818 430.163C635.432 429.543 636.264 429.194 637.133 429.191V429.191C638.003 429.191 638.838 429.539 639.454 430.16C640.07 430.78 640.418 431.623 640.42 432.502V514.993Z" fill="FEA64D"/>
<path d="M814.735 481.521C814.735 553.566 797.979 611.97 777.31 611.97C756.64 611.97 739.886 553.566 739.886 481.521C739.886 409.474 756.64 351.07 777.31 351.07C797.979 351.07 814.735 409.474 814.735 481.521Z" fill="#FEA64D" stroke="#122C3B" stroke-width="1.19242" stroke-miterlimit="10"/>
<path d="M768.592 502.193C768.592 503.531 768.066 504.813 767.13 505.758C766.194 506.704 764.925 507.235 763.602 507.235V507.235C762.946 507.235 762.297 507.105 761.692 506.851C761.086 506.598 760.536 506.227 760.073 505.759C759.609 505.29 759.242 504.735 758.991 504.123C758.74 503.511 758.611 502.855 758.611 502.193V458.078C758.611 457.416 758.74 456.76 758.991 456.148C759.242 455.537 759.609 454.981 760.073 454.513C760.536 454.045 761.086 453.673 761.692 453.42C762.297 453.166 762.946 453.036 763.602 453.036C764.925 453.036 766.194 453.567 767.13 454.513C768.066 455.458 768.592 456.741 768.592 458.078V502.193Z" fill="#1F2426"/>
<path d="M796.661 485.177C796.661 486.514 796.135 487.797 795.199 488.742C794.263 489.688 792.994 490.219 791.671 490.219V490.219C790.347 490.219 789.078 489.688 788.143 488.742C787.207 487.797 786.681 486.514 786.681 485.177V441.061C786.681 439.724 787.207 438.442 788.142 437.496C789.078 436.551 790.347 436.02 791.671 436.02V436.02C792.994 436.02 794.263 436.551 795.199 437.496C796.135 438.442 796.661 439.724 796.661 441.061V485.177Z" fill="#1F2426"/>
<path d="M692.336 979.433L688.437 1002.28L666.916 1005.74L671.752 983.372" fill="#EBF0F3"/>
<path d="M692.336 979.433L688.437 1002.28L666.916 1005.74L671.752 983.372" stroke="#122C3B" stroke-width="1.19242" stroke-linecap="round" stroke-linejoin="round"/>
<path d="M594.108 660.065C594.108 660.065 561.66 664.981 564.256 696.783C565.136 707.565 583.4 800.71 583.4 800.71L668.581 792.517C668.581 792.517 645.702 673.834 631.101 663.999C616.499 654.163 594.108 660.065 594.108 660.065Z" fill="#1F2426"/>
<path d="M583.399 800.709C583.399 800.709 587.511 827.026 596.704 851.853C610.554 889.26 622.421 907.848 619.093 935.578C614.11 977.118 598.456 1000.54 598.456 1000.54L634.48 1006.37C634.48 1006.37 656.935 930.117 653.609 919.192C647.769 868.049 642.38 788.946 642.38 788.946L583.399 800.709Z" fill="#1F2426"/>
<path d="M662.738 779.563C662.738 779.563 705.723 842.93 707.67 887.681C709.257 924.155 694.986 989.83 694.986 989.83L664.897 988.87C664.897 988.87 675.65 905.326 668.996 885.16C649.528 849.754 620.342 806.592 620.342 806.592L662.738 779.563Z" fill="#1F2426"/>
<path d="M585.347 673.587C585.347 673.587 607.25 666.948 615.525 689.569C623.798 712.191 616.482 728.098 603.182 730.524C575.43 735.587 555.655 677.03 585.347 673.587Z" fill="FEA64D"/>
<path d="M638.645 693.52C639.389 695.867 629.64 701.864 629.64 701.864C628.13 697.896 626.303 694.059 624.177 690.39C622.441 687.512 620.462 684.79 618.262 682.255C614.552 678.751 609.684 673.833 604.231 671.397C602.251 670.47 600.191 669.729 598.076 669.183C593.717 668.055 593.439 663.599 597.881 662.831C600.078 662.158 602.369 661.85 604.664 661.919C606.984 661.988 609.288 662.339 611.525 662.964C613.871 663.445 616.154 664.197 618.33 665.206C620.464 666.22 622.505 667.423 624.429 668.801C626.516 670.095 634.481 680.389 638.645 693.52Z" fill="FEA64D"/>
<path d="M594.907 620.539L591.59 642.199L576.57 628.267L571.235 617.507L577.236 611.781C577.236 611.781 599.907 593.255 603.575 589.044C607.242 584.834 619.24 608.386 608.906 618.155" fill="#1F2426"/>
<path d="M589.079 638.426L590.946 664.981C590.946 664.981 600.315 669.776 605.669 669.038C608.835 668.615 611.719 666.982 613.73 664.476L605.06 638.59L589.079 638.426Z" fill="#EBF0F3" stroke="#122C3B" stroke-width="1.19242" stroke-linecap="round" stroke-linejoin="round"/>
<path d="M606.878 613.112L590.816 619.521C590.816 619.521 592.489 626.908 592.142 627.766C592.138 627.767 587.551 630.567 587.548 630.569C585.318 632.132 585.103 635.714 587.066 638.576C589.029 641.437 592.426 642.489 594.656 640.926C595.164 640.564 595.58 640.088 595.873 639.534C600.494 644.261 603.82 646.422 609.929 646.422C621.515 646.422 606.878 613.112 606.878 613.112Z" fill="#EBF0F3" stroke="#122C3B" stroke-width="0.794946" stroke-linecap="round" stroke-linejoin="round"/>
<path d="M649.596 585.383H640.348C641.424 606.429 630.518 625.88 618.013 641.242L634.411 655.012C650.186 621.312 649.596 585.383 649.596 585.383Z" fill="#EBF0F3" stroke="#122C3B" stroke-width="1.19242" stroke-linecap="round" stroke-linejoin="round"/>
<path d="M582.34 674.372C580.148 676.99 578.248 679.844 576.673 682.881C573.664 688.603 573.664 696.488 578.533 699.438C594.108 710.258 608.71 692.587 618.129 681.096C620.076 678.706 621.892 676.295 623.601 673.748C625.309 671.204 626.908 668.716 628.406 666.067C629.509 664.236 630.551 662.656 631.538 660.792C632.555 658.878 633.506 656.948 634.411 655.012L618.012 641.242C617.784 641.52 587.294 668.916 582.34 674.372Z" fill="FEA64D" stroke="#122C3B" stroke-width="1.19242" stroke-linecap="round" stroke-linejoin="round"/>
<path d="M620.694 630.68L611.717 641.579L635.97 661.972L644.947 651.073L620.694 630.68Z" fill="FEA64D" stroke="#122C3B" stroke-width="1.19242" stroke-linecap="round" stroke-linejoin="round"/>
<path d="M659.573 769.882C659.573 769.882 607.574 784.399 579.627 780.915L581.668 806.172C581.668 806.172 635.67 792.757 660.952 779.4C661.399 779.163 660.973 777.965 660.973 777.965L659.573 769.882Z" fill="#ffd9b2" stroke="#122C3B" stroke-width="1.19242" stroke-linecap="round" stroke-linejoin="round"/>
<path d="M683.678 1018.73L681.731 1016.27L662.523 1014.96L660.883 1020.28C660.883 1020.28 716.613 1026.68 717.587 1022.5C717.898 1021.16 718.207 1020.38 718.105 1019.71L683.678 1018.73Z" fill="FEA64D" stroke="#122C3B" stroke-width="1.19242" stroke-linecap="round" stroke-linejoin="round"/>
<path d="M683.678 1018.73L718.105 1019.71C717.889 1018.27 720.305 1016.73 712.354 1012.05C708.041 1009.51 698.937 1009.36 695.684 1006.88C692.282 1004.25 689.417 1000.98 687.248 997.253C687.248 997.253 679.865 1006.35 675.727 1004.63C671.592 1002.91 666.724 1001.35 666.724 1001.35L662.523 1014.96L681.731 1016.27L683.678 1018.73Z" fill="FEA64D" stroke="#122C3B" stroke-width="1.19242" stroke-linecap="round" stroke-linejoin="round"/>
<path d="M616.351 1033.24L614.499 1030.71L595.357 1028.65L593.513 1033.9C593.513 1033.9 648.956 1042.48 650.088 1038.34C650.452 1037.02 650.791 1036.25 650.715 1035.57L616.351 1033.24Z" fill="FEA64D" stroke="#122C3B" stroke-width="1.19242" stroke-linecap="round" stroke-linejoin="round"/>
<path d="M616.351 1033.24L650.715 1035.57C650.554 1034.13 653.028 1032.69 645.264 1027.69C641.051 1024.98 631.957 1024.48 628.804 1021.88C625.505 1019.12 622.768 1015.74 620.743 1011.92C620.743 1011.92 613.017 1020.73 608.949 1018.84C604.882 1016.96 600.078 1015.22 600.078 1015.22L595.357 1028.65L614.499 1030.71L616.351 1033.24Z" fill="FEA64D" stroke="#122C3B" stroke-width="1.19242" stroke-linecap="round" stroke-linejoin="round"/>
<path d="M650.996 589.619L639.666 589.109C639.197 588.8 638.768 588.432 638.391 588.014C637.814 587.358 639.113 585.098 639.113 585.098C639.113 585.098 635.095 578.347 634.29 572.655C633.486 566.963 629.193 561.271 631.875 561.271C634.559 561.271 634.559 566.151 635.901 565.608C636.571 565.338 636.911 560.882 636.273 556.51C635.637 552.141 634.023 547.856 635.901 548.263C639.656 549.075 641.326 563.074 641.326 563.074C641.326 563.074 641.723 558.587 641.83 553.885C641.95 548.84 641.852 543.558 644.216 543.657C646.256 543.741 646.096 548.377 646.522 553.012C646.833 556.062 647.316 559.091 647.97 562.085C647.97 562.085 649.388 546.864 650.996 548.489C652.606 550.115 651.047 563.636 652.009 563.657C652.968 563.677 654.409 554.225 655.75 555.039C657.092 555.85 655.214 572.111 655.214 572.111C655.214 572.111 655.474 581.685 651.719 586.02C651.719 586.02 653.258 588.986 650.996 589.619Z" fill="#1F2426"/>
<path d="M635.978 715.986C637.172 719.127 637.099 722.077 635.813 722.576C634.527 723.076 632.515 720.936 631.319 717.796C630.125 714.654 630.198 711.703 631.486 711.203C632.77 710.705 634.781 712.845 635.978 715.986Z" fill="#EBF0F3"/>
<path d="M646.583 709.474C647.777 712.614 647.704 715.565 646.418 716.065C645.132 716.564 643.12 714.424 641.924 711.284C640.731 708.143 640.804 705.191 642.091 704.691C643.375 704.193 645.386 706.333 646.583 709.474Z" fill="#EBF0F3"/>
<path d="M578.758 778.023H599.55C601.204 778.023 602.791 778.687 603.961 779.87C605.131 781.052 605.788 782.655 605.788 784.327V826.76C605.788 828.432 605.131 830.034 603.961 831.216C602.791 832.398 601.205 833.062 599.551 833.062H578.757C577.103 833.062 575.516 832.398 574.346 831.216C573.177 830.034 572.52 828.432 572.52 826.76V784.326C572.52 782.655 573.177 781.051 574.347 779.869C575.517 778.687 577.103 778.023 578.758 778.023Z" fill="#ffd9b2" stroke="#122C3B" stroke-width="1.19242" stroke-linecap="round" stroke-linejoin="round"/>
<path d="M1453.51 869.48C1453.37 867.58 1453.23 865.789 1453.1 864.096C1452.97 862.403 1452.96 860.812 1452.88 859.345C1452.81 857.879 1452.74 856.525 1452.74 855.304C1452.72 853.699 1452.7 852.352 1452.7 851.22C1455.47 848.474 1475.3 827.205 1458.99 796.982C1458.99 796.982 1428.87 819.013 1452.16 851.207C1451.99 852.319 1451.8 853.662 1451.62 855.244C1451.31 857.688 1451.08 860.668 1450.86 864.098C1450.79 865.809 1450.71 867.636 1450.64 869.557C1450.52 871.488 1450.81 873.502 1450.9 875.612C1451.02 877.254 1451.11 878.97 1451.23 880.721C1450.12 879.238 1448.65 877.288 1447.16 875.324C1446.42 874.339 1445.67 873.346 1444.97 872.43C1444.7 872.096 1444.44 871.771 1444.19 871.453C1448.69 829.579 1418.69 823.671 1418.69 823.671C1419.42 867.824 1437.12 871.651 1442.58 871.777C1442.98 872.275 1443.4 872.797 1443.85 873.355C1444.55 874.273 1445.3 875.255 1446.03 876.229C1447.51 878.189 1448.98 880.148 1450.09 881.621C1450.25 881.792 1450.32 882.012 1450.5 882.137C1450.67 882.273 1450.84 882.396 1450.99 882.52C1451.15 882.642 1451.27 882.728 1451.4 882.835C1451.62 884.894 1451.85 887.003 1452.08 889.179C1452.22 890.381 1452.32 891.601 1452.49 892.83C1452.68 894.051 1452.87 895.292 1453.06 896.545C1453.46 899.052 1453.86 901.615 1454.26 904.216C1454.77 906.837 1455.25 909.409 1455.84 912.071C1456.12 913.33 1456.41 914.603 1456.7 915.872C1456.53 915.535 1456.35 915.208 1456.15 914.892C1455.8 914.297 1455.44 913.696 1455.07 913.09C1454.36 911.886 1453.64 910.671 1452.96 909.539C1452.23 908.439 1451.54 907.417 1450.95 906.534C1450.82 906.32 1450.68 906.113 1450.53 905.917C1450.35 905.746 1450.17 905.595 1450.01 905.438C1449.86 905.302 1449.74 905.212 1449.6 905.096C1448.72 898.589 1443.29 872.901 1411.96 867.091C1411.96 867.091 1409.95 904.554 1449.29 906.571C1449.31 906.638 1449.34 906.699 1449.36 906.77C1449.48 906.985 1449.62 907.191 1449.77 907.385C1450.36 908.249 1451.02 909.254 1451.75 910.33C1452.41 911.447 1453.13 912.635 1453.83 913.839C1454.18 914.432 1454.54 915.027 1454.89 915.615C1455.24 916.183 1455.55 916.77 1455.83 917.374C1456.41 918.548 1456.94 919.638 1457.4 920.568C1457.49 920.801 1457.6 921.024 1457.74 921.232C1457.83 921.346 1457.92 921.449 1458.01 921.56C1459.15 926.434 1460.31 931.344 1461.17 936.295C1461.7 939.013 1462.02 941.757 1462.39 944.476C1462.56 945.84 1462.63 947.215 1462.75 948.568C1462.85 949.933 1463 951.292 1462.99 952.648C1463 952.957 1463 953.253 1463.01 953.565C1462.91 953.38 1462.83 953.194 1462.72 953.006C1462.29 952.149 1461.81 951.316 1461.29 950.511C1460.8 949.635 1460.15 948.83 1459.56 947.956C1458.91 947.14 1458.25 946.296 1457.52 945.512C1456.82 944.83 1456.16 944.088 1455.39 943.47C1455.58 943.406 1455.76 943.367 1455.94 943.306C1455.94 943.306 1445.71 912.371 1412.55 918.142C1412.55 918.142 1420.35 953.524 1453.73 943.967C1453.91 944.121 1454.1 944.265 1454.28 944.418C1455.05 945.07 1455.77 945.769 1456.46 946.511C1457.15 947.255 1457.78 948.064 1458.41 948.843C1458.97 949.675 1459.59 950.448 1460.06 951.291C1460.58 952.101 1461.04 952.905 1461.44 953.691C1461.87 954.466 1462.2 955.227 1462.53 955.924C1462.71 956.268 1462.79 956.64 1462.97 956.94C1463 956.983 1463.02 957.03 1463.05 957.073C1463.06 958.294 1463.05 959.508 1462.97 960.716C1462.91 962.043 1462.86 963.362 1462.81 964.673C1462.69 965.986 1462.54 967.288 1462.41 968.571C1462.28 969.862 1462.15 971.135 1462.02 972.402C1461.82 973.664 1461.62 974.91 1461.42 976.14C1461.01 978.607 1460.68 981.025 1460.12 983.341C1459.61 985.665 1459.12 987.928 1458.64 990.124C1458.5 990.636 1458.37 991.139 1458.23 991.644C1458.11 991.152 1457.98 990.657 1457.82 990.168C1457.19 988.19 1456.29 986.312 1455.13 984.591C1455.01 984.433 1454.95 984.218 1454.79 984.098C1454.64 983.967 1454.49 983.856 1454.35 983.748C1454.15 983.607 1454 983.508 1453.83 983.399C1453.54 979.967 1450.42 954.827 1422.9 951.968C1422.9 951.968 1421.14 984.914 1453.23 983.806C1453.3 983.998 1453.37 984.191 1453.45 984.425C1453.51 984.584 1453.56 984.761 1453.62 984.94C1453.69 985.113 1453.85 985.233 1453.94 985.41C1455.01 987.016 1455.86 988.768 1456.45 990.615C1456.77 991.592 1457 992.597 1457.13 993.617C1457.21 994.082 1457.25 994.552 1457.27 995.023C1457.28 995.093 1457.28 995.151 1457.27 995.218C1457.17 995.613 1457.07 996.007 1456.96 996.395C1456.69 997.393 1456.42 998.383 1456.16 999.347C1455.88 1000.3 1455.56 1001.22 1455.35 1002.15C1454.89 1003.99 1454.46 1005.74 1454.06 1007.39C1453.29 1010.71 1452.44 1013.55 1451.77 1015.89C1450.43 1020.6 1449.71 1023.32 1449.71 1023.32C1449.71 1023.32 1450.85 1020.77 1452.78 1016.27C1453.74 1014 1454.94 1011.28 1456.12 1008.06C1456.54 1006.97 1456.99 1005.8 1457.45 1004.6C1457.55 1004.55 1457.64 1004.51 1457.76 1004.45C1457.92 1004.37 1458.09 1004.29 1458.28 1004.19C1458.46 1004.11 1458.57 1003.91 1458.75 1003.78C1459.07 1003.45 1459.43 1003.16 1459.8 1002.89C1460.2 1002.61 1460.64 1002.32 1461.08 1002.02C1461.53 1001.71 1461.97 1001.37 1462.45 1001.08C1462.95 1000.83 1463.47 1000.56 1463.97 1000.3C1464.47 1000.02 1464.98 999.776 1465.51 999.579C1466.04 999.371 1466.56 999.177 1467.05 998.993C1467.53 998.811 1468.03 998.662 1468.53 998.548C1469.01 998.435 1469.45 998.275 1469.87 998.216C1470.07 998.199 1470.28 998.164 1470.47 998.11C1470.57 998.059 1470.65 998.022 1470.74 997.977C1476.41 999.498 1502.65 1004.76 1520.07 977.104C1520.07 977.104 1486.81 961.322 1470.08 996.689C1469.93 996.714 1469.76 996.768 1469.59 996.782C1469.14 996.852 1468.68 997.012 1468.17 997.131C1467.64 997.255 1467.11 997.413 1466.6 997.602C1466.07 997.801 1465.52 998.01 1464.96 998.228C1464.4 998.443 1463.86 998.697 1463.33 998.988C1462.79 999.264 1462.26 999.545 1461.73 999.823C1461.21 1000.12 1460.75 1000.48 1460.27 1000.79C1459.81 1001.11 1459.36 1001.43 1458.93 1001.73C1458.72 1001.85 1458.53 1002 1458.36 1002.17C1458.9 1000.6 1459.26 998.897 1459.75 997.173C1460.3 995.136 1460.86 993.019 1461.46 990.822C1461.93 988.591 1462.44 986.295 1462.95 983.937C1463.52 981.582 1463.87 979.111 1464.28 976.597C1464.48 975.345 1464.68 974.072 1464.88 972.792C1464.96 972.129 1465.03 971.451 1465.09 970.781C1465.17 970.752 1465.24 970.721 1465.32 970.695C1465.46 970.633 1465.51 970.476 1465.63 970.387C1466.48 969.534 1467.61 968.397 1468.72 967.261C1469.85 966.123 1470.97 964.983 1471.82 964.123C1471.88 964.042 1471.97 963.987 1472.03 963.918C1479.25 962.86 1503.58 957.039 1509.4 926.245C1509.4 926.245 1472.2 923.934 1470.03 963.869C1469.32 964.587 1468.52 965.412 1467.71 966.223C1466.87 967.068 1466.03 967.911 1465.31 968.64C1465.44 967.401 1465.59 966.154 1465.69 964.883C1465.74 963.537 1465.8 962.179 1465.86 960.82C1466.05 958.092 1465.92 955.33 1465.88 952.534C1465.88 951.143 1465.73 949.752 1465.63 948.349C1465.5 946.955 1465.44 945.54 1465.26 944.14C1464.98 942.062 1464.7 939.973 1464.37 937.896C1464.4 937.668 1464.43 937.438 1464.44 937.207C1464.6 935.901 1464.66 934.377 1464.94 932.738C1465.2 931.104 1465.44 929.359 1465.79 927.622C1466.41 924.149 1467.18 920.696 1467.77 918.105C1467.86 917.8 1467.93 917.491 1467.98 917.179C1467.99 917.011 1468 916.849 1468.01 916.687C1471.61 914.876 1498.01 900.355 1486.4 867.686C1486.4 867.686 1449.84 890.448 1466.97 915.949C1466.96 915.98 1466.95 916.011 1466.93 916.041C1466.82 916.293 1466.7 916.558 1466.58 916.843C1466.46 917.127 1466.46 917.455 1466.36 917.777C1465.76 920.38 1464.99 923.847 1464.36 927.357C1464.01 929.103 1463.77 930.878 1463.51 932.534C1463.5 932.653 1463.49 932.77 1463.47 932.888C1462.58 928.318 1461.51 923.83 1460.48 919.402C1459.84 916.731 1459.25 914.081 1458.67 911.481C1458.09 908.879 1457.6 906.205 1457.11 903.689C1456.71 901.124 1456.31 898.589 1455.93 896.114C1455.73 894.878 1455.54 893.652 1455.35 892.442C1455.18 891.23 1455.09 890.026 1454.95 888.841C1454.72 886.712 1454.51 884.651 1454.29 882.633C1454.37 882.05 1454.48 881.473 1454.63 880.904C1454.79 880.161 1454.99 879.427 1455.22 878.705C1455.44 877.973 1455.7 877.254 1456 876.55C1456.25 875.848 1456.6 875.189 1456.89 874.533C1457.47 873.362 1458.13 872.229 1458.85 871.14C1458.99 870.89 1459.2 870.704 1459.31 870.461C1459.42 870.217 1459.53 869.979 1459.62 869.766C1459.62 869.75 1459.63 869.74 1459.64 869.721C1465.38 867.92 1483.81 860.242 1478.91 837.155C1478.91 837.155 1452.51 843.423 1457.92 869.899C1457.84 870.045 1457.75 870.185 1457.65 870.317C1456.89 871.458 1456.21 872.647 1455.6 873.876C1455.29 874.57 1454.93 875.253 1454.66 875.997C1454.39 876.645 1454.16 877.31 1453.95 877.987C1453.9 877.127 1453.85 876.279 1453.8 875.447C1453.63 873.366 1453.63 871.375 1453.51 869.48Z" fill="FEA64D"/>
<path d="M415.91 732.469C415.91 733.37 415.645 734.251 415.15 735C414.655 735.749 413.95 736.333 413.127 736.678C412.303 737.022 411.396 737.113 410.522 736.937C409.647 736.761 408.844 736.327 408.213 735.69C407.583 735.053 407.153 734.242 406.979 733.358C406.805 732.474 406.895 731.558 407.236 730.726C407.577 729.894 408.155 729.182 408.897 728.682C409.638 728.181 410.51 727.914 411.401 727.914C412.597 727.914 413.744 728.394 414.589 729.248C415.435 730.102 415.91 731.261 415.91 732.469V732.469Z" fill="FEA64D"/>
<path d="M441.557 732.469C441.557 733.37 441.293 734.251 440.797 735C440.302 735.749 439.598 736.333 438.774 736.678C437.95 737.022 437.044 737.113 436.169 736.937C435.295 736.761 434.491 736.327 433.861 735.69C433.23 735.053 432.801 734.242 432.627 733.358C432.453 732.474 432.542 731.558 432.883 730.726C433.225 729.894 433.803 729.182 434.544 728.682C435.285 728.181 436.157 727.914 437.049 727.914C438.245 727.914 439.391 728.394 440.237 729.248C441.082 730.102 441.557 731.261 441.557 732.469Z" fill="FEA64D"/>
<path d="M467.208 732.469C467.208 733.37 466.943 734.251 466.448 735C465.952 735.749 465.248 736.333 464.424 736.678C463.6 737.023 462.693 737.113 461.819 736.937C460.944 736.761 460.141 736.327 459.51 735.689C458.88 735.052 458.45 734.24 458.277 733.356C458.103 732.473 458.193 731.557 458.534 730.724C458.876 729.892 459.454 729.181 460.196 728.681C460.938 728.18 461.81 727.914 462.702 727.914C463.293 727.914 463.879 728.032 464.426 728.261C464.973 728.49 465.47 728.826 465.888 729.249C466.307 729.672 466.639 730.174 466.865 730.726C467.091 731.279 467.208 731.871 467.208 732.469V732.469Z" fill="FEA64D"/>
<path d="M492.859 732.469C492.859 733.37 492.594 734.251 492.099 735C491.604 735.749 490.899 736.333 490.076 736.677C489.252 737.022 488.345 737.112 487.471 736.937C486.596 736.761 485.793 736.327 485.162 735.69C484.532 735.053 484.102 734.241 483.928 733.358C483.754 732.474 483.844 731.558 484.185 730.726C484.526 729.894 485.104 729.182 485.846 728.682C486.587 728.181 487.459 727.914 488.35 727.914C488.942 727.914 489.529 728.032 490.076 728.26C490.623 728.489 491.12 728.825 491.539 729.248C491.957 729.671 492.289 730.173 492.516 730.726C492.742 731.278 492.859 731.871 492.859 732.469V732.469Z" fill="FEA64D"/>
<path d="M518.51 732.469C518.51 733.37 518.246 734.251 517.75 735C517.255 735.749 516.551 736.333 515.727 736.677C514.903 737.022 513.997 737.112 513.122 736.937C512.247 736.761 511.444 736.327 510.814 735.69C510.183 735.053 509.754 734.241 509.58 733.358C509.406 732.474 509.495 731.558 509.836 730.726C510.178 729.893 510.756 729.182 511.497 728.681C512.239 728.181 513.11 727.914 514.002 727.914C515.198 727.914 516.344 728.394 517.19 729.248C518.035 730.102 518.51 731.261 518.51 732.469V732.469Z" fill="FEA64D"/>
<path d="M544.16 732.469C544.16 733.37 543.895 734.251 543.4 735C542.904 735.749 542.2 736.333 541.376 736.678C540.552 737.023 539.645 737.113 538.771 736.937C537.896 736.761 537.093 736.327 536.462 735.689C535.832 735.052 535.403 734.24 535.229 733.356C535.055 732.473 535.145 731.557 535.486 730.724C535.828 729.892 536.406 729.181 537.148 728.681C537.89 728.18 538.762 727.914 539.654 727.914C540.849 727.915 541.995 728.395 542.84 729.249C543.685 730.103 544.16 731.261 544.16 732.469V732.469Z" fill="FEA64D"/>
<path d="M415.91 760.813C415.91 761.714 415.646 762.595 415.151 763.344C414.656 764.094 413.952 764.678 413.128 765.023C412.304 765.368 411.398 765.458 410.523 765.283C409.648 765.107 408.845 764.674 408.214 764.037C407.583 763.4 407.153 762.588 406.979 761.704C406.805 760.821 406.894 759.905 407.236 759.072C407.577 758.24 408.155 757.528 408.896 757.028C409.638 756.527 410.51 756.26 411.401 756.26C412.597 756.261 413.742 756.74 414.588 757.594C415.433 758.448 415.908 759.605 415.91 760.813V760.813Z" fill="FEA64D"/>
<path d="M441.558 760.813C441.559 761.714 441.295 762.595 440.799 763.344C440.304 764.094 439.6 764.678 438.776 765.023C437.953 765.368 437.046 765.458 436.171 765.283C435.297 765.107 434.493 764.674 433.862 764.037C433.231 763.4 432.802 762.588 432.628 761.704C432.454 760.821 432.543 759.905 432.884 759.072C433.225 758.24 433.803 757.528 434.545 757.028C435.286 756.527 436.158 756.26 437.05 756.26C438.245 756.261 439.391 756.74 440.236 757.594C441.081 758.448 441.557 759.605 441.558 760.813V760.813Z" fill="FEA64D"/>
<path d="M467.208 760.813C467.208 761.714 466.944 762.595 466.449 763.344C465.953 764.094 465.249 764.678 464.425 765.023C463.601 765.368 462.695 765.459 461.82 765.283C460.945 765.107 460.142 764.673 459.511 764.036C458.88 763.399 458.451 762.587 458.277 761.703C458.103 760.819 458.193 759.903 458.534 759.071C458.876 758.238 459.454 757.527 460.196 757.026C460.938 756.526 461.81 756.259 462.702 756.26C463.896 756.261 465.042 756.741 465.887 757.594C466.732 758.448 467.207 759.606 467.208 760.813Z" fill="FEA64D"/>
<path d="M492.859 760.813C492.859 761.714 492.595 762.595 492.1 763.344C491.605 764.093 490.901 764.677 490.077 765.023C489.253 765.368 488.347 765.458 487.472 765.283C486.597 765.107 485.794 764.673 485.163 764.036C484.532 763.399 484.103 762.588 483.929 761.704C483.754 760.82 483.844 759.905 484.185 759.072C484.526 758.24 485.104 757.528 485.845 757.028C486.587 756.527 487.459 756.26 488.35 756.26C489.546 756.26 490.692 756.74 491.537 757.594C492.382 758.447 492.858 759.605 492.859 760.813V760.813Z" fill="FEA64D"/>
<path d="M518.51 760.813C518.51 761.714 518.246 762.595 517.751 763.344C517.256 764.093 516.552 764.677 515.728 765.023C514.904 765.368 513.998 765.458 513.123 765.283C512.248 765.107 511.445 764.673 510.814 764.036C510.184 763.399 509.754 762.588 509.58 761.704C509.406 760.82 509.495 759.904 509.836 759.072C510.178 758.239 510.755 757.528 511.497 757.027C512.238 756.527 513.11 756.26 514.002 756.26C515.197 756.261 516.343 756.741 517.188 757.594C518.033 758.448 518.509 759.605 518.51 760.813V760.813Z" fill="FEA64D"/>
<path d="M544.159 760.813C544.159 761.714 543.895 762.595 543.4 763.344C542.904 764.094 542.2 764.678 541.376 765.023C540.552 765.368 539.646 765.458 538.771 765.283C537.896 765.107 537.093 764.673 536.462 764.036C535.831 763.399 535.402 762.587 535.228 761.703C535.054 760.819 535.144 759.903 535.485 759.07C535.827 758.238 536.405 757.527 537.147 757.026C537.889 756.526 538.761 756.259 539.653 756.26C540.847 756.261 541.993 756.741 542.838 757.595C543.682 758.448 544.157 759.606 544.159 760.813Z" fill="FEA64D"/>
<path d="M415.91 789.16C415.909 790.061 415.645 790.942 415.149 791.691C414.653 792.44 413.949 793.023 413.125 793.368C412.301 793.712 411.395 793.802 410.52 793.626C409.646 793.45 408.843 793.016 408.212 792.379C407.582 791.742 407.153 790.93 406.979 790.047C406.805 789.163 406.895 788.247 407.236 787.415C407.577 786.583 408.155 785.871 408.897 785.371C409.638 784.871 410.51 784.603 411.401 784.604C411.994 784.604 412.58 784.721 413.127 784.95C413.674 785.179 414.171 785.515 414.59 785.938C415.009 786.361 415.341 786.864 415.567 787.417C415.794 787.969 415.91 788.562 415.91 789.16V789.16Z" fill="FEA64D"/>
<path d="M441.558 789.16C441.558 790.061 441.293 790.942 440.798 791.691C440.302 792.44 439.598 793.023 438.774 793.368C437.95 793.712 437.043 793.802 436.169 793.626C435.294 793.45 434.491 793.016 433.861 792.379C433.231 791.742 432.801 790.93 432.627 790.047C432.454 789.163 432.543 788.247 432.884 787.415C433.226 786.583 433.804 785.871 434.545 785.371C435.287 784.871 436.158 784.603 437.05 784.604C437.642 784.603 438.228 784.721 438.776 784.95C439.323 785.179 439.82 785.515 440.238 785.938C440.657 786.361 440.989 786.864 441.216 787.417C441.442 787.969 441.558 788.562 441.558 789.16V789.16Z" fill="FEA64D"/>
<path d="M467.208 789.16C467.207 790.061 466.942 790.942 466.447 791.691C465.951 792.44 465.247 793.023 464.423 793.368C463.599 793.712 462.692 793.802 461.818 793.626C460.943 793.45 460.14 793.016 459.509 792.378C458.879 791.741 458.45 790.929 458.277 790.045C458.103 789.161 458.193 788.246 458.535 787.413C458.876 786.581 459.455 785.87 460.196 785.37C460.938 784.87 461.81 784.603 462.702 784.604C463.294 784.604 463.88 784.721 464.427 784.951C464.974 785.18 465.471 785.515 465.889 785.939C466.308 786.362 466.639 786.864 466.866 787.417C467.092 787.97 467.208 788.562 467.208 789.16V789.16Z" fill="FEA64D"/>
<path d="M492.859 789.16C492.858 790.061 492.594 790.942 492.098 791.691C491.602 792.439 490.898 793.023 490.074 793.367C489.25 793.712 488.344 793.802 487.47 793.626C486.595 793.45 485.792 793.016 485.162 792.379C484.531 791.742 484.102 790.93 483.928 790.046C483.754 789.163 483.844 788.247 484.185 787.415C484.527 786.583 485.104 785.871 485.846 785.371C486.587 784.871 487.459 784.603 488.35 784.604C488.943 784.603 489.529 784.721 490.076 784.95C490.624 785.179 491.121 785.515 491.539 785.938C491.958 786.361 492.29 786.863 492.516 787.416C492.743 787.969 492.859 788.562 492.859 789.16V789.16Z" fill="FEA64D"/>
<path d="M518.51 789.16C518.51 790.061 518.245 790.942 517.749 791.691C517.254 792.439 516.549 793.023 515.726 793.367C514.902 793.712 513.995 793.802 513.121 793.626C512.246 793.45 511.443 793.016 510.813 792.379C510.183 791.742 509.753 790.93 509.58 790.046C509.406 789.163 509.495 788.247 509.837 787.415C510.178 786.582 510.756 785.871 511.497 785.371C512.239 784.87 513.11 784.603 514.002 784.604C514.594 784.604 515.181 784.721 515.728 784.95C516.275 785.18 516.772 785.515 517.19 785.938C517.609 786.362 517.941 786.864 518.167 787.417C518.394 787.97 518.51 788.562 518.51 789.16V789.16Z" fill="FEA64D"/>
<path d="M544.16 789.16C544.159 790.061 543.895 790.942 543.399 791.691C542.903 792.44 542.199 793.023 541.375 793.368C540.551 793.712 539.644 793.802 538.77 793.626C537.895 793.45 537.092 793.016 536.462 792.378C535.831 791.741 535.402 790.929 535.229 790.045C535.055 789.161 535.145 788.246 535.487 787.413C535.828 786.581 536.407 785.87 537.148 785.37C537.89 784.87 538.762 784.603 539.654 784.604C540.246 784.604 540.832 784.722 541.379 784.951C541.926 785.18 542.422 785.516 542.841 785.939C543.259 786.362 543.591 786.864 543.817 787.417C544.044 787.97 544.16 788.562 544.16 789.16Z" fill="FEA64D"/>
<path d="M415.91 817.506C415.91 818.407 415.646 819.288 415.15 820.037C414.655 820.787 413.951 821.371 413.127 821.716C412.303 822.061 411.397 822.151 410.522 821.975C409.647 821.799 408.844 821.366 408.213 820.729C407.583 820.092 407.153 819.28 406.979 818.396C406.805 817.513 406.895 816.597 407.236 815.764C407.577 814.932 408.155 814.22 408.896 813.72C409.638 813.219 410.51 812.952 411.401 812.952C411.993 812.952 412.58 813.07 413.127 813.299C413.674 813.527 414.171 813.863 414.589 814.286C415.008 814.709 415.34 815.211 415.567 815.763C415.793 816.316 415.91 816.908 415.91 817.506Z" fill="FEA64D"/>
<path d="M441.557 817.506C441.557 818.407 441.293 819.288 440.798 820.037C440.302 820.787 439.598 821.371 438.775 821.716C437.951 822.061 437.044 822.151 436.169 821.975C435.295 821.799 434.491 821.366 433.861 820.729C433.23 820.092 432.801 819.28 432.627 818.396C432.453 817.513 432.542 816.597 432.883 815.764C433.225 814.932 433.802 814.22 434.544 813.72C435.285 813.219 436.157 812.952 437.049 812.952C437.641 812.952 438.227 813.07 438.774 813.298C439.321 813.527 439.818 813.863 440.237 814.286C440.656 814.709 440.988 815.211 441.214 815.763C441.441 816.316 441.557 816.908 441.557 817.506V817.506Z" fill="FEA64D"/>
<path d="M467.208 817.506C467.208 818.408 466.943 819.288 466.448 820.038C465.953 820.787 465.248 821.371 464.424 821.716C463.6 822.061 462.694 822.151 461.819 821.975C460.944 821.799 460.141 821.365 459.51 820.728C458.88 820.091 458.451 819.279 458.277 818.395C458.103 817.511 458.193 816.595 458.534 815.763C458.876 814.93 459.454 814.219 460.196 813.719C460.938 813.218 461.81 812.952 462.702 812.952C463.293 812.952 463.88 813.07 464.426 813.299C464.973 813.528 465.47 813.863 465.889 814.286C466.307 814.709 466.639 815.211 466.865 815.764C467.091 816.316 467.208 816.908 467.208 817.506V817.506Z" fill="FEA64D"/>
<path d="M492.859 817.506C492.859 818.407 492.594 819.288 492.099 820.037C491.604 820.787 490.9 821.37 490.076 821.715C489.252 822.06 488.346 822.151 487.471 821.975C486.596 821.799 485.793 821.365 485.162 820.728C484.532 820.091 484.102 819.28 483.928 818.396C483.754 817.512 483.844 816.596 484.185 815.764C484.526 814.932 485.104 814.22 485.845 813.72C486.587 813.219 487.459 812.952 488.35 812.952C488.942 812.952 489.529 813.069 490.076 813.298C490.623 813.527 491.12 813.862 491.539 814.285C491.957 814.708 492.29 815.21 492.516 815.763C492.742 816.316 492.859 816.908 492.859 817.506Z" fill="FEA64D"/>
<path d="M518.51 817.506C518.51 818.407 518.246 819.288 517.751 820.037C517.255 820.787 516.551 821.37 515.727 821.715C514.903 822.06 513.997 822.151 513.122 821.975C512.248 821.799 511.444 821.365 510.814 820.728C510.183 820.091 509.754 819.28 509.58 818.396C509.406 817.512 509.495 816.596 509.836 815.764C510.178 814.932 510.756 814.22 511.497 813.72C512.239 813.219 513.11 812.952 514.002 812.952C514.594 812.952 515.18 813.07 515.727 813.299C516.274 813.527 516.771 813.863 517.19 814.286C517.608 814.709 517.94 815.211 518.167 815.763C518.393 816.316 518.51 816.908 518.51 817.506V817.506Z" fill="FEA64D"/>
<path d="M544.16 817.506C544.16 818.408 543.895 819.288 543.4 820.038C542.905 820.787 542.2 821.371 541.376 821.716C540.552 822.061 539.646 822.151 538.771 821.975C537.896 821.799 537.093 821.365 536.462 820.728C535.832 820.09 535.403 819.279 535.229 818.395C535.055 817.511 535.145 816.595 535.486 815.763C535.828 814.93 536.406 814.219 537.148 813.719C537.89 813.218 538.762 812.952 539.654 812.952C540.849 812.952 541.995 813.432 542.84 814.286C543.685 815.141 544.16 816.299 544.16 817.506Z" fill="FEA64D"/>
<path d="M1080.24 490.724C1080.24 491.387 1080.04 492.035 1079.68 492.587C1079.31 493.138 1078.79 493.568 1078.19 493.822C1077.58 494.076 1076.91 494.142 1076.27 494.013C1075.63 493.883 1075.04 493.564 1074.57 493.095C1074.11 492.626 1073.79 492.029 1073.66 491.378C1073.54 490.728 1073.6 490.054 1073.85 489.441C1074.1 488.829 1074.53 488.305 1075.07 487.937C1075.62 487.568 1076.26 487.372 1076.92 487.372C1077.8 487.372 1078.64 487.726 1079.26 488.354C1079.89 488.983 1080.24 489.835 1080.24 490.724V490.724Z" fill="FEA64D"/>
<path d="M1099.11 490.724C1099.11 491.387 1098.92 492.035 1098.55 492.586C1098.19 493.138 1097.67 493.567 1097.06 493.821C1096.46 494.075 1095.79 494.141 1095.15 494.012C1094.5 493.883 1093.91 493.564 1093.45 493.095C1092.98 492.626 1092.67 492.029 1092.54 491.378C1092.41 490.728 1092.48 490.054 1092.73 489.441C1092.98 488.829 1093.41 488.305 1093.95 487.937C1094.5 487.569 1095.14 487.372 1095.79 487.372C1096.67 487.372 1097.52 487.725 1098.14 488.354C1098.76 488.983 1099.11 489.835 1099.11 490.724V490.724Z" fill="FEA64D"/>
<path d="M1117.99 490.724C1117.99 491.387 1117.79 492.036 1117.43 492.587C1117.06 493.139 1116.55 493.569 1115.94 493.822C1115.33 494.076 1114.67 494.143 1114.02 494.013C1113.38 493.884 1112.79 493.564 1112.32 493.095C1111.86 492.626 1111.54 492.029 1111.42 491.378C1111.29 490.727 1111.35 490.053 1111.6 489.441C1111.86 488.828 1112.28 488.304 1112.83 487.936C1113.37 487.568 1114.02 487.372 1114.67 487.372C1115.55 487.372 1116.4 487.726 1117.02 488.354C1117.64 488.983 1117.99 489.835 1117.99 490.724V490.724Z" fill="FEA64D"/>
<path d="M1136.87 490.724C1136.87 491.387 1136.67 492.035 1136.31 492.587C1135.94 493.138 1135.43 493.568 1134.82 493.822C1134.21 494.076 1133.55 494.142 1132.9 494.013C1132.26 493.883 1131.67 493.564 1131.2 493.095C1130.74 492.626 1130.42 492.029 1130.29 491.378C1130.17 490.728 1130.23 490.054 1130.48 489.441C1130.73 488.828 1131.16 488.305 1131.71 487.937C1132.25 487.568 1132.89 487.372 1133.55 487.372C1133.99 487.372 1134.42 487.459 1134.82 487.627C1135.22 487.796 1135.59 488.043 1135.9 488.354C1136.2 488.665 1136.45 489.035 1136.61 489.441C1136.78 489.848 1136.87 490.284 1136.87 490.724V490.724Z" fill="FEA64D"/>
<path d="M1155.75 490.724C1155.75 491.387 1155.55 492.035 1155.19 492.587C1154.82 493.138 1154.3 493.568 1153.7 493.822C1153.09 494.076 1152.42 494.142 1151.78 494.013C1151.14 493.884 1150.55 493.564 1150.08 493.096C1149.62 492.627 1149.3 492.03 1149.17 491.379C1149.05 490.729 1149.11 490.055 1149.36 489.442C1149.61 488.83 1150.04 488.306 1150.58 487.937C1151.13 487.569 1151.77 487.372 1152.43 487.372C1153.31 487.372 1154.15 487.725 1154.77 488.354C1155.4 488.982 1155.75 489.835 1155.75 490.724Z" fill="FEA64D"/>
<path d="M1174.62 490.724C1174.62 491.387 1174.43 492.036 1174.06 492.587C1173.7 493.139 1173.18 493.569 1172.57 493.823C1171.97 494.077 1171.3 494.143 1170.66 494.014C1170.01 493.885 1169.42 493.565 1168.96 493.096C1168.49 492.627 1168.18 492.029 1168.05 491.379C1167.92 490.728 1167.99 490.054 1168.24 489.441C1168.49 488.828 1168.91 488.305 1169.46 487.936C1170.01 487.568 1170.65 487.372 1171.31 487.372C1172.18 487.373 1173.03 487.726 1173.65 488.355C1174.27 488.983 1174.62 489.835 1174.62 490.724Z" fill="FEA64D"/>
<path d="M1080.24 511.584C1080.24 512.247 1080.04 512.896 1079.68 513.447C1079.31 513.999 1078.8 514.429 1078.19 514.683C1077.58 514.937 1076.92 515.003 1076.27 514.874C1075.63 514.745 1075.04 514.426 1074.57 513.957C1074.11 513.488 1073.79 512.891 1073.66 512.24C1073.54 511.59 1073.6 510.916 1073.85 510.303C1074.1 509.69 1074.53 509.167 1075.07 508.798C1075.62 508.43 1076.26 508.233 1076.92 508.233C1077.8 508.234 1078.64 508.587 1079.26 509.215C1079.89 509.843 1080.24 510.695 1080.24 511.584V511.584Z" fill="FEA64D"/>
<path d="M1099.11 511.584C1099.11 512.247 1098.92 512.895 1098.55 513.447C1098.19 513.998 1097.67 514.428 1097.07 514.682C1096.46 514.936 1095.79 515.003 1095.15 514.874C1094.5 514.744 1093.91 514.425 1093.45 513.957C1092.98 513.488 1092.67 512.89 1092.54 512.24C1092.41 511.59 1092.48 510.916 1092.73 510.303C1092.98 509.69 1093.41 509.167 1093.95 508.798C1094.5 508.43 1095.14 508.233 1095.79 508.233C1096.67 508.234 1097.52 508.587 1098.14 509.215C1098.76 509.843 1099.11 510.695 1099.11 511.584V511.584Z" fill="FEA64D"/>
<path d="M1117.99 511.584C1117.99 512.247 1117.79 512.896 1117.43 513.448C1117.07 513.999 1116.55 514.429 1115.94 514.683C1115.33 514.938 1114.67 515.004 1114.02 514.875C1113.38 514.746 1112.79 514.426 1112.32 513.957C1111.86 513.488 1111.54 512.89 1111.42 512.24C1111.29 511.589 1111.35 510.915 1111.6 510.302C1111.86 509.689 1112.28 509.166 1112.83 508.798C1113.37 508.429 1114.02 508.233 1114.67 508.233C1115.55 508.234 1116.4 508.587 1117.02 509.215C1117.64 509.844 1117.99 510.696 1117.99 511.584V511.584Z" fill="FEA64D"/>
<path d="M1136.87 511.584C1136.87 512.247 1136.67 512.896 1136.31 513.447C1135.94 513.999 1135.43 514.429 1134.82 514.683C1134.21 514.937 1133.55 515.003 1132.9 514.874C1132.26 514.745 1131.67 514.426 1131.2 513.957C1130.74 513.488 1130.42 512.89 1130.29 512.24C1130.17 511.589 1130.23 510.915 1130.48 510.303C1130.73 509.69 1131.16 509.166 1131.71 508.798C1132.25 508.43 1132.89 508.233 1133.55 508.233C1134.43 508.234 1135.27 508.587 1135.89 509.215C1136.52 509.843 1136.87 510.695 1136.87 511.584V511.584Z" fill="FEA64D"/>
<path d="M1155.75 511.584C1155.75 512.247 1155.55 512.895 1155.19 513.447C1154.82 513.999 1154.31 514.429 1153.7 514.683C1153.09 514.937 1152.43 515.003 1151.78 514.874C1151.14 514.745 1150.55 514.426 1150.08 513.957C1149.62 513.489 1149.3 512.891 1149.17 512.241C1149.05 511.591 1149.11 510.917 1149.36 510.304C1149.61 509.691 1150.04 509.167 1150.58 508.799C1151.13 508.43 1151.77 508.234 1152.43 508.233C1153.31 508.234 1154.15 508.587 1154.77 509.215C1155.39 509.843 1155.74 510.695 1155.75 511.584V511.584Z" fill="FEA64D"/>
<path d="M1174.62 511.584C1174.62 512.247 1174.43 512.896 1174.06 513.448C1173.7 514 1173.18 514.43 1172.57 514.684C1171.97 514.938 1171.3 515.005 1170.66 514.875C1170.01 514.746 1169.42 514.427 1168.96 513.958C1168.49 513.489 1168.18 512.891 1168.05 512.24C1167.92 511.59 1167.99 510.915 1168.24 510.303C1168.49 509.69 1168.91 509.166 1169.46 508.798C1170.01 508.429 1170.65 508.233 1171.31 508.233C1172.18 508.234 1173.03 508.588 1173.65 509.216C1174.27 509.844 1174.62 510.696 1174.62 511.584V511.584Z" fill="FEA64D"/>
<path d="M1080.23 532.446C1080.23 533.109 1080.04 533.757 1079.68 534.308C1079.31 534.859 1078.79 535.289 1078.19 535.543C1077.58 535.796 1076.91 535.863 1076.27 535.733C1075.63 535.604 1075.03 535.284 1074.57 534.816C1074.11 534.347 1073.79 533.749 1073.66 533.099C1073.53 532.448 1073.6 531.774 1073.85 531.162C1074.1 530.549 1074.53 530.026 1075.07 529.657C1075.62 529.289 1076.26 529.093 1076.92 529.093C1077.8 529.093 1078.64 529.446 1079.26 530.075C1079.89 530.704 1080.24 531.556 1080.23 532.446V532.446Z" fill="FEA64D"/>
<path d="M1099.11 532.446C1099.11 533.109 1098.92 533.757 1098.55 534.308C1098.19 534.859 1097.67 535.289 1097.06 535.542C1096.46 535.796 1095.79 535.862 1095.15 535.733C1094.5 535.603 1093.91 535.284 1093.45 534.815C1092.98 534.346 1092.67 533.749 1092.54 533.099C1092.41 532.448 1092.48 531.774 1092.73 531.162C1092.98 530.549 1093.41 530.026 1093.95 529.658C1094.5 529.289 1095.14 529.093 1095.79 529.093C1096.67 529.093 1097.52 529.446 1098.14 530.075C1098.76 530.704 1099.11 531.556 1099.11 532.446V532.446Z" fill="FEA64D"/>
<path d="M1117.99 532.446C1117.99 533.109 1117.79 533.757 1117.43 534.309C1117.06 534.86 1116.55 535.29 1115.94 535.543C1115.33 535.797 1114.67 535.863 1114.02 535.734C1113.38 535.604 1112.79 535.285 1112.32 534.816C1111.86 534.347 1111.54 533.749 1111.42 533.098C1111.29 532.448 1111.35 531.774 1111.6 531.161C1111.86 530.548 1112.28 530.025 1112.83 529.657C1113.37 529.289 1114.02 529.092 1114.67 529.093C1115.11 529.093 1115.54 529.18 1115.94 529.348C1116.34 529.517 1116.71 529.764 1117.02 530.075C1117.33 530.387 1117.57 530.756 1117.74 531.163C1117.9 531.57 1117.99 532.005 1117.99 532.446V532.446Z" fill="FEA64D"/>
<path d="M1136.87 532.446C1136.87 533.109 1136.67 533.757 1136.31 534.308C1135.94 534.86 1135.42 535.289 1134.82 535.543C1134.21 535.796 1133.54 535.863 1132.9 535.733C1132.26 535.604 1131.67 535.284 1131.2 534.815C1130.74 534.346 1130.42 533.749 1130.29 533.098C1130.17 532.448 1130.23 531.774 1130.48 531.161C1130.73 530.549 1131.16 530.025 1131.71 529.657C1132.25 529.289 1132.89 529.093 1133.55 529.093C1133.99 529.093 1134.42 529.179 1134.82 529.348C1135.22 529.517 1135.59 529.763 1135.9 530.075C1136.2 530.386 1136.45 530.756 1136.61 531.163C1136.78 531.569 1136.87 532.005 1136.87 532.446Z" fill="FEA64D"/>
<path d="M1155.75 532.446C1155.75 533.109 1155.55 533.757 1155.19 534.308C1154.82 534.859 1154.3 535.289 1153.7 535.543C1153.09 535.796 1152.42 535.863 1151.78 535.733C1151.14 535.604 1150.55 535.285 1150.08 534.816C1149.62 534.347 1149.3 533.75 1149.17 533.1C1149.05 532.449 1149.11 531.775 1149.36 531.163C1149.61 530.55 1150.04 530.027 1150.58 529.658C1151.13 529.29 1151.77 529.093 1152.43 529.093C1153.31 529.093 1154.15 529.446 1154.77 530.075C1155.4 530.704 1155.75 531.556 1155.75 532.446V532.446Z" fill="FEA64D"/>
<path d="M1174.62 532.446C1174.62 533.109 1174.43 533.757 1174.06 534.309C1173.7 534.86 1173.18 535.29 1172.57 535.544C1171.97 535.798 1171.3 535.864 1170.66 535.735C1170.01 535.605 1169.42 535.286 1168.96 534.816C1168.49 534.347 1168.18 533.75 1168.05 533.099C1167.92 532.448 1167.99 531.774 1168.24 531.161C1168.49 530.549 1168.91 530.025 1169.46 529.657C1170.01 529.289 1170.65 529.092 1171.31 529.093C1172.18 529.093 1173.03 529.447 1173.65 530.076C1174.27 530.704 1174.62 531.557 1174.62 532.446V532.446Z" fill="FEA64D"/>
<path d="M1080.24 553.306C1080.24 553.969 1080.04 554.618 1079.68 555.169C1079.31 555.72 1078.79 556.15 1078.19 556.404C1077.58 556.658 1076.91 556.724 1076.27 556.595C1075.63 556.465 1075.03 556.146 1074.57 555.677C1074.11 555.208 1073.79 554.611 1073.66 553.96C1073.53 553.31 1073.6 552.636 1073.85 552.023C1074.1 551.411 1074.53 550.887 1075.07 550.519C1075.62 550.15 1076.26 549.954 1076.92 549.954C1077.35 549.954 1077.78 550.041 1078.19 550.209C1078.59 550.377 1078.96 550.624 1079.26 550.936C1079.57 551.247 1079.82 551.617 1079.98 552.023C1080.15 552.43 1080.24 552.866 1080.24 553.306V553.306Z" fill="FEA64D"/>
<path d="M1099.11 553.306C1099.11 553.969 1098.92 554.617 1098.55 555.169C1098.19 555.72 1097.67 556.15 1097.06 556.403C1096.46 556.657 1095.79 556.723 1095.15 556.594C1094.5 556.465 1093.91 556.145 1093.45 555.677C1092.98 555.208 1092.67 554.61 1092.54 553.96C1092.41 553.31 1092.48 552.636 1092.73 552.023C1092.98 551.411 1093.41 550.887 1093.95 550.519C1094.5 550.151 1095.14 549.954 1095.79 549.954C1096.23 549.954 1096.66 550.041 1097.06 550.209C1097.47 550.377 1097.83 550.624 1098.14 550.936C1098.45 551.247 1098.69 551.617 1098.86 552.023C1099.03 552.43 1099.11 552.866 1099.11 553.306V553.306Z" fill="FEA64D"/>
<path d="M1117.99 553.306C1117.99 553.97 1117.79 554.618 1117.43 555.169C1117.06 555.721 1116.55 556.151 1115.94 556.405C1115.33 556.658 1114.67 556.725 1114.02 556.595C1113.38 556.466 1112.79 556.146 1112.32 555.677C1111.86 555.208 1111.54 554.61 1111.42 553.96C1111.29 553.309 1111.35 552.635 1111.6 552.022C1111.86 551.41 1112.28 550.886 1112.83 550.518C1113.37 550.15 1114.02 549.954 1114.67 549.954C1115.11 549.954 1115.54 550.041 1115.94 550.209C1116.34 550.377 1116.71 550.624 1117.02 550.936C1117.33 551.247 1117.57 551.617 1117.74 552.023C1117.9 552.43 1117.99 552.866 1117.99 553.306V553.306Z" fill="FEA64D"/>
<path d="M1136.87 553.306C1136.87 553.969 1136.67 554.618 1136.31 555.169C1135.94 555.72 1135.42 556.15 1134.82 556.404C1134.21 556.658 1133.54 556.724 1132.9 556.595C1132.26 556.465 1131.67 556.146 1131.2 555.677C1130.74 555.208 1130.42 554.61 1130.29 553.96C1130.17 553.31 1130.23 552.635 1130.48 552.023C1130.73 551.41 1131.16 550.887 1131.71 550.518C1132.25 550.15 1132.89 549.954 1133.55 549.954C1133.99 549.954 1134.42 550.04 1134.82 550.209C1135.22 550.377 1135.59 550.624 1135.9 550.935C1136.2 551.247 1136.45 551.616 1136.62 552.023C1136.78 552.43 1136.87 552.866 1136.87 553.306V553.306Z" fill="FEA64D"/>
<path d="M1155.75 553.306C1155.75 553.969 1155.55 554.618 1155.19 555.169C1154.82 555.72 1154.3 556.15 1153.7 556.404C1153.09 556.658 1152.42 556.724 1151.78 556.595C1151.14 556.466 1150.55 556.146 1150.08 555.678C1149.62 555.209 1149.3 554.611 1149.17 553.961C1149.05 553.311 1149.11 552.637 1149.36 552.024C1149.61 551.412 1150.04 550.888 1150.58 550.519C1151.13 550.151 1151.77 549.954 1152.43 549.954C1152.86 549.954 1153.29 550.04 1153.7 550.209C1154.1 550.377 1154.47 550.624 1154.77 550.935C1155.08 551.247 1155.33 551.616 1155.49 552.023C1155.66 552.43 1155.75 552.866 1155.75 553.306V553.306Z" fill="FEA64D"/>
<path d="M1174.62 553.306C1174.62 553.97 1174.43 554.618 1174.06 555.17C1173.7 555.721 1173.18 556.151 1172.57 556.405C1171.97 556.659 1171.3 556.725 1170.66 556.596C1170.01 556.467 1169.42 556.147 1168.96 555.678C1168.49 555.209 1168.18 554.611 1168.05 553.961C1167.92 553.31 1167.99 552.636 1168.24 552.023C1168.49 551.41 1168.91 550.887 1169.46 550.518C1170.01 550.15 1170.65 549.954 1171.31 549.954C1172.18 549.954 1173.03 550.308 1173.65 550.936C1174.27 551.565 1174.62 552.417 1174.62 553.306V553.306Z" fill="FEA64D"/>
<path d="M796.191 1003.55C796.191 1003.55 770.948 875.58 793.935 884.232C816.926 892.886 820.08 991.714 809.713 1005.83" fill="#d9f7be"/>
<path d="M796.191 1003.55C796.191 1003.55 770.948 875.58 793.935 884.232C816.926 892.886 820.08 991.714 809.713 1005.83" stroke="#122C3B" stroke-width="1.19242" stroke-miterlimit="10"/>
<path d="M793.742 1008.26C793.742 1008.26 789.248 956.008 764.512 958.733C739.775 961.463 775.756 1004.17 782.051 1008.26" fill="#d9f7be"/>
<path d="M793.742 1008.26C793.742 1008.26 789.248 956.008 764.512 958.733C739.775 961.463 775.756 1004.17 782.051 1008.26" stroke="#122C3B" stroke-width="1.19242" stroke-linecap="round" stroke-linejoin="round"/>
<path d="M764.959 937.378C764.959 937.378 758.215 957.826 776.204 954.192C794.195 950.555 788.966 949.871 788.966 949.871" fill="#d9f7be"/>
<path d="M764.959 937.378C764.959 937.378 758.215 957.826 776.204 954.192C794.195 950.555 788.966 949.871 788.966 949.871" stroke="#122C3B" stroke-width="1.19242" stroke-miterlimit="10"/>
<path d="M799.141 1007.81C799.141 1007.81 793.293 929.653 784.749 926.472C776.204 923.293 761.813 930.108 764.96 937.378C768.11 944.648 789.248 1008.27 789.248 1008.27" fill="#73d13d"/>
<path d="M799.141 1007.81C799.141 1007.81 793.293 929.653 784.749 926.472C776.204 923.293 761.813 930.108 764.96 937.378C768.11 944.648 789.248 1008.27 789.248 1008.27" stroke="#122C3B" stroke-width="1.19242" stroke-linecap="round" stroke-linejoin="round"/>
<path d="M850.28 922.034C850.28 922.034 856.14 946.626 844.872 954.824C833.603 963.019 825.04 947.993 825.04 947.993L823.236 921.123" fill="#d9f7be"/>
<path d="M850.28 922.034C850.28 922.034 856.14 946.626 844.872 954.824C833.603 963.019 825.04 947.993 825.04 947.993L823.236 921.123" stroke="#122C3B" stroke-width="1.19242" stroke-miterlimit="10"/>
<path d="M803.853 1006.28C803.853 1006.28 810.165 902.45 832.251 908.824C854.338 915.203 850.28 927.498 850.28 927.498C850.28 927.498 844.873 922.49 841.717 928.864C838.562 935.242 822.333 1008.11 822.333 1008.11" fill="#73d13d"/>
<path d="M803.853 1006.28C803.853 1006.28 810.165 902.45 832.251 908.824C854.338 915.203 850.28 927.498 850.28 927.498C850.28 927.498 844.873 922.49 841.717 928.864C838.562 935.242 822.333 1008.11 822.333 1008.11" stroke="#122C3B" stroke-width="1.19242" stroke-linecap="round" stroke-linejoin="round"/>
<path d="M813.798 1006.49C813.798 1006.49 822.822 954.833 847.225 959.748C871.627 964.659 832.073 1004.01 825.444 1007.53" fill="#d9f7be"/>
<path d="M813.798 1006.49C813.798 1006.49 822.822 954.833 847.225 959.748C871.627 964.659 832.073 1004.01 825.444 1007.53" stroke="#122C3B" stroke-width="1.19242" stroke-miterlimit="10"/>
<path d="M793.485 890.608C793.485 890.608 805.33 965.274 801.271 1006.26" stroke="#122C3B" stroke-width="0.794946" stroke-linecap="round" stroke-linejoin="round"/>
<path d="M776.357 930.688C776.357 930.688 791.681 984.881 793.035 1003.55" stroke="#122C3B" stroke-width="0.794946" stroke-linecap="round" stroke-linejoin="round"/>
<path d="M764.187 965.754C764.187 965.754 782.215 993.081 784.921 1004.92" stroke="#122C3B" stroke-width="0.794946" stroke-linecap="round" stroke-linejoin="round"/>
<path d="M833.152 916.113C833.152 916.113 814.67 972.128 809.713 1002.64" stroke="#122C3B" stroke-width="0.794946" stroke-linecap="round" stroke-linejoin="round"/>
<path d="M818.493 1005.96L818.059 1005.71C828.316 987.234 842.727 968.071 842.87 967.879L843.265 968.183C843.121 968.374 828.734 987.514 818.493 1005.96Z" stroke="#122C3B" stroke-width="0.794946" stroke-linecap="round" stroke-linejoin="round"/>
<path d="M843.071 1004.01H768.544V1020.86H843.071V1004.01Z" fill="FEA64D" stroke="#122C3B" stroke-width="1.19242" stroke-miterlimit="10"/>
<path d="M1432.48 759.165V749.203H1424.58C1423.94 745.932 1422.67 742.822 1420.83 740.051L1426.41 734.412L1419.44 727.366L1413.86 733.005C1411.12 731.15 1408.04 729.861 1404.8 729.212V721.241H1394.94V729.212C1391.7 729.861 1388.62 731.15 1385.88 733.005L1380.3 727.366L1373.33 734.412L1378.91 740.051C1377.07 742.823 1375.8 745.932 1375.15 749.203H1367.26V759.165H1375.15C1375.8 762.435 1377.07 765.545 1378.91 768.316L1373.33 773.955L1380.3 781.001L1385.88 775.362C1388.62 777.218 1391.7 778.507 1394.94 779.156V787.127H1404.8V779.156C1408.04 778.506 1411.12 777.217 1413.86 775.362L1419.44 781.001L1426.41 773.955L1420.83 768.316C1422.67 765.546 1423.94 762.436 1424.58 759.165H1432.48ZM1399.87 768.303C1397.11 768.303 1394.41 767.476 1392.11 765.924C1389.81 764.373 1388.02 762.168 1386.96 759.588C1385.9 757.009 1385.62 754.17 1386.16 751.431C1386.7 748.692 1388.03 746.176 1389.99 744.201C1391.94 742.226 1394.43 740.881 1397.14 740.336C1399.85 739.791 1402.66 740.071 1405.22 741.139C1407.77 742.208 1409.95 744.018 1411.49 746.34C1413.02 748.662 1413.84 751.391 1413.84 754.184C1413.84 757.928 1412.37 761.519 1409.75 764.167C1407.13 766.814 1403.58 768.302 1399.87 768.303V768.303Z" fill="FEA64D"/>
<path d="M1115.45 497.171V490.185H1109.91C1109.46 487.891 1108.57 485.711 1107.28 483.768L1111.19 479.814L1106.31 474.873L1102.39 478.827C1100.47 477.526 1098.31 476.622 1096.04 476.167V470.578H1089.13V476.167C1086.86 476.622 1084.7 477.526 1082.77 478.827L1078.86 474.873L1073.97 479.814L1077.89 483.768C1076.6 485.71 1075.7 487.891 1075.25 490.185H1069.72V497.171H1075.25C1075.7 499.464 1076.6 501.645 1077.89 503.588L1073.97 507.541L1078.86 512.482L1082.77 508.528C1084.7 509.829 1086.86 510.733 1089.13 511.188V516.777H1096.04V511.188C1098.31 510.733 1100.47 509.829 1102.39 508.528L1106.31 512.482L1111.19 507.541L1107.28 503.588C1108.57 501.645 1109.46 499.464 1109.91 497.171H1115.45ZM1092.58 503.578C1090.65 503.578 1088.75 502.998 1087.14 501.91C1085.53 500.822 1084.27 499.276 1083.53 497.467C1082.79 495.658 1082.59 493.667 1082.97 491.747C1083.35 489.826 1084.28 488.062 1085.65 486.678C1087.02 485.293 1088.77 484.35 1090.67 483.968C1092.57 483.586 1094.54 483.782 1096.33 484.531C1098.12 485.28 1099.65 486.549 1100.73 488.177C1101.81 489.805 1102.38 491.719 1102.38 493.677C1102.38 496.303 1101.35 498.821 1099.51 500.677C1097.68 502.534 1095.18 503.577 1092.58 503.578V503.578Z" fill="FEA64D"/>
<path d="M1117.57 952.158C1117.57 954.493 1117.12 956.805 1116.23 958.962C1115.35 961.12 1114.05 963.08 1112.42 964.731C1110.79 966.381 1108.85 967.691 1106.71 968.584C1104.57 969.477 1102.29 969.936 1099.98 969.935H973.281C970.971 969.936 968.682 969.477 966.548 968.583C964.413 967.69 962.473 966.381 960.839 964.73C959.205 963.079 957.909 961.119 957.026 958.962C956.142 956.805 955.688 954.493 955.688 952.158V952.158C955.687 949.824 956.142 947.512 957.025 945.354C957.909 943.197 959.205 941.237 960.839 939.586C962.472 937.934 964.412 936.625 966.547 935.731C968.682 934.838 970.97 934.378 973.281 934.379H1099.98C1102.29 934.378 1104.57 934.838 1106.71 935.731C1108.85 936.624 1110.79 937.934 1112.42 939.585C1114.05 941.236 1115.35 943.196 1116.23 945.354C1117.12 947.511 1117.57 949.823 1117.57 952.158Z" fill="#EBF0F3" stroke="#122C3B" stroke-width="1.19242" stroke-linecap="round" stroke-linejoin="round"/>
<path d="M1117.57 849.754C1117.57 852.089 1117.12 854.401 1116.23 856.558C1115.35 858.715 1114.05 860.676 1112.42 862.327C1110.79 863.978 1108.85 865.287 1106.71 866.18C1104.57 867.073 1102.29 867.533 1099.98 867.532H973.281C970.971 867.533 968.682 867.073 966.547 866.18C964.412 865.287 962.473 863.977 960.839 862.326C959.205 860.675 957.909 858.715 957.026 856.558C956.142 854.4 955.687 852.088 955.688 849.754V849.754C955.687 847.419 956.142 845.107 957.026 842.95C957.909 840.793 959.205 838.833 960.839 837.182C962.473 835.531 964.413 834.222 966.547 833.329C968.682 832.436 970.971 831.977 973.281 831.978H1099.98C1102.29 831.977 1104.57 832.436 1106.71 833.329C1108.85 834.222 1110.79 835.531 1112.42 837.182C1114.05 838.833 1115.35 840.793 1116.23 842.95C1117.12 845.107 1117.57 847.419 1117.57 849.754V849.754Z" fill="#EBF0F3" stroke="#122C3B" stroke-width="1.19242" stroke-linecap="round" stroke-linejoin="round"/>
<path d="M1040.98 855.215C1040.98 856.336 1040.76 857.446 1040.34 858.482C1039.91 859.518 1039.29 860.459 1038.5 861.252C1037.72 862.045 1036.79 862.673 1035.76 863.102C1034.74 863.531 1033.64 863.752 1032.53 863.752H971.705C970.595 863.752 969.496 863.532 968.471 863.103C967.446 862.674 966.515 862.045 965.73 861.252C964.946 860.459 964.324 859.518 963.899 858.482C963.475 857.446 963.257 856.336 963.258 855.215V855.215C963.257 854.094 963.475 852.984 963.9 851.948C964.324 850.913 964.946 849.972 965.731 849.179C966.515 848.387 967.447 847.758 968.472 847.329C969.497 846.901 970.595 846.68 971.705 846.681H1032.53C1033.64 846.68 1034.74 846.901 1035.76 847.33C1036.79 847.758 1037.72 848.387 1038.5 849.179C1039.29 849.972 1039.91 850.913 1040.33 851.949C1040.76 852.984 1040.98 854.094 1040.98 855.215V855.215Z" fill="FEA64D"/>
<path d="M1043.89 956.472C1043.89 957.593 1043.67 958.703 1043.24 959.739C1042.82 960.775 1042.2 961.716 1041.41 962.508C1040.63 963.301 1039.7 963.93 1038.67 964.359C1037.65 964.788 1036.55 965.008 1035.44 965.008H974.614C973.504 965.008 972.406 964.788 971.381 964.359C970.355 963.93 969.424 963.301 968.64 962.509C967.855 961.716 967.233 960.775 966.809 959.739C966.384 958.703 966.166 957.593 966.167 956.472V956.472C966.166 955.351 966.385 954.241 966.809 953.205C967.233 952.17 967.855 951.229 968.64 950.436C969.424 949.643 970.356 949.015 971.381 948.586C972.406 948.157 973.505 947.937 974.614 947.938H1035.44C1036.55 947.937 1037.65 948.157 1038.67 948.586C1039.7 949.015 1040.63 949.644 1041.41 950.436C1042.2 951.229 1042.82 952.17 1043.24 953.205C1043.67 954.241 1043.89 955.351 1043.89 956.472Z" fill="FEA64D"/>
<path d="M1479.61 890.556C1479.61 890.556 1654.36 903.536 1746.47 846.836" stroke="#122C3B" stroke-width="1.98736" stroke-linecap="round" stroke-linejoin="round"/>
<path d="M1384.88 966.461L1394.86 987.888L1374.79 993.666L1365.54 971.922" fill="#EBF0F3"/>
<path d="M1384.88 966.461L1394.86 987.888L1374.79 993.666L1365.54 971.922" stroke="#122C3B" stroke-width="1.19242" stroke-linecap="round" stroke-linejoin="round"/>
<path d="M1259.5 980.011L1265.12 1002.59L1245.36 1007.74L1244.53 981.796" fill="#EBF0F3"/>
<path d="M1259.5 980.011L1265.12 1002.59L1245.36 1007.74L1244.53 981.796" stroke="#122C3B" stroke-width="1.19242" stroke-linecap="round" stroke-linejoin="round"/>
<path d="M1280.16 711.581C1280.16 711.581 1307.12 727.983 1314.72 751.002C1322.31 774.021 1330.29 874.923 1342.82 891.757C1355.35 908.591 1396.21 963.625 1396.21 963.625L1364.92 981.797C1364.92 981.797 1318.14 917.221 1307.12 898.518C1296.11 879.817 1277.89 795.411 1277.89 795.411C1277.89 795.411 1254.34 860.718 1253.2 887.574C1252.06 914.431 1271.04 986.838 1271.04 986.838L1239.54 987.782C1239.54 987.782 1219.79 919.706 1217.89 884.504C1215.99 849.307 1240.29 745.722 1240.29 745.722" fill="#1F2426"/>
<path d="M1178.34 770.549C1183.94 752.737 1186.65 731.955 1181.62 710.238C1167.38 648.66 1149.73 678.01 1149.73 694.7C1149.73 694.7 1155.58 729.553 1152.43 764.627C1157.12 768.013 1165.19 771.424 1178.34 770.549Z" fill="FEA64D" stroke="#122C3B" stroke-width="1.19242" stroke-linecap="round" stroke-linejoin="round"/>
<path d="M1152.43 764.627C1150.48 786.383 1145.07 808.224 1132.64 821.883L1148.02 825.911C1148.02 825.911 1168.06 803.24 1178.34 770.549C1165.19 771.424 1157.12 768.013 1152.43 764.627Z" fill="#EBF0F3" stroke="#122C3B" stroke-width="1.19242" stroke-linecap="round" stroke-linejoin="round"/>
<path d="M1146.31 694.124C1146.31 694.124 1152 660.744 1186.75 665.349C1221.49 669.954 1280.16 711.389 1280.16 711.389C1280.16 711.389 1259.66 753.976 1242.57 754.551C1225.48 755.126 1146.31 721.172 1146.31 696.427" fill="#1F2426"/>
<path d="M1134.92 823.32L1128.37 835.119L1114.7 846.629L1145.17 848.643L1142.32 839.435L1145.74 825.624" fill="FEA64D"/>
<path d="M1134.92 823.32L1128.37 835.119L1114.7 846.629L1145.17 848.643L1142.32 839.435L1145.74 825.624" stroke="#122C3B" stroke-width="1.19242" stroke-linecap="round" stroke-linejoin="round"/>
<path d="M1185.32 725.63C1185.32 725.63 1170.8 701.414 1176.5 687.217C1182.19 673.024 1187.63 672.088 1187.63 672.088C1187.63 672.088 1162.54 661.322 1157.41 682.901C1152.29 704.483 1170.66 719.158 1170.66 719.158L1185.32 725.63Z" fill="FEA64D"/>
<path d="M1191.59 720.118C1191.59 720.118 1170.23 674.175 1205.36 677.627C1234.66 680.507 1251.13 711.336 1246.19 719.202C1241.25 727.067 1191.59 720.118 1191.59 720.118Z" fill="FEA64D"/>
<path d="M1377.63 1010.16L1379.42 1006.95L1401.36 1001.8L1404.25 1007.63C1404.25 1007.63 1341.07 1025.61 1339.17 1020.96C1338.56 1019.48 1338.06 1018.64 1338.05 1017.84L1377.63 1010.16Z" fill="FEA64D" stroke="#122C3B" stroke-width="1.19242" stroke-linecap="round" stroke-linejoin="round"/>
<path d="M1377.63 1010.16L1338.05 1017.84C1338.03 1016.14 1334.95 1014.82 1343.26 1007.9C1347.77 1004.14 1358.26 1002.25 1361.56 998.765C1365 995.082 1367.7 990.76 1369.51 986.039C1369.51 986.039 1379.73 995.144 1384.18 992.37C1388.64 989.594 1393.98 986.872 1393.98 986.872L1401.36 1001.8L1379.42 1006.95L1377.63 1010.16Z" fill="FEA64D" stroke="#122C3B" stroke-width="1.19242" stroke-linecap="round" stroke-linejoin="round"/>
<path d="M1246.07 1018.51L1248.42 1015.7L1270.93 1014.81L1272.68 1021.09C1272.68 1021.09 1207.28 1026.72 1206.28 1021.79C1205.96 1020.22 1205.62 1019.3 1205.76 1018.51L1246.07 1018.51Z" fill="FEA64D" stroke="#122C3B" stroke-width="1.19242" stroke-linecap="round" stroke-linejoin="round"/>
<path d="M1246.07 1018.51L1205.76 1018.51C1206.06 1016.84 1203.29 1014.96 1212.74 1009.74C1217.86 1006.91 1228.52 1007.05 1232.41 1004.26C1236.47 1001.29 1239.93 997.564 1242.59 993.271C1242.59 993.271 1250.93 1004.16 1255.83 1002.28C1260.72 1000.41 1266.46 998.745 1266.46 998.745L1270.93 1014.81L1248.42 1015.7L1246.07 1018.51Z" fill="FEA64D" stroke="#122C3B" stroke-width="1.19242" stroke-linecap="round" stroke-linejoin="round"/>
<path d="M1155.14 676.859L1168.95 677.435C1168.95 677.435 1173.82 683.554 1172.79 690.168C1171.8 696.57 1167.74 700.023 1163.4 700.526C1159.05 701.029 1156.28 691.39 1156.28 691.39" fill="#EBF0F3"/>
<path d="M1155.14 676.859L1168.95 677.435C1168.95 677.435 1173.82 683.554 1172.79 690.168C1171.8 696.57 1167.74 700.023 1163.4 700.526C1159.05 701.029 1156.28 691.39 1156.28 691.39" stroke="#122C3B" stroke-width="1.19242" stroke-linecap="round" stroke-linejoin="round"/>
<path d="M1129.79 691.055C1129.79 691.055 1147.26 726.352 1154.85 716.377C1162.45 706.402 1159.98 678.01 1159.98 678.01C1159.98 678.01 1144.98 675.709 1129.79 691.055Z" fill="#EBF0F3" stroke="#122C3B" stroke-width="1.19242" stroke-linecap="round" stroke-linejoin="round"/>
<path d="M1148.97 688.368L1154.85 691.534C1154.85 691.534 1153.52 688.177 1155.52 687.313C1157.51 686.45 1161.59 688.945 1160.55 693.166L1164.54 686.834L1159.88 674.846" fill="#1F2426"/>
<path d="M1160.55 674.942C1160.55 674.942 1159.6 657.581 1142.8 659.883C1133.01 661.222 1113.08 678.396 1127.89 693.357C1127.89 693.357 1151.81 698.344 1160.55 674.942Z" fill="#1F2426"/>
<path d="M1231.18 752.44C1231.18 752.44 1281.68 740.163 1279.21 711.581L1290.04 719.447C1290.04 719.447 1286.53 735.619 1275.25 744.516C1264.88 752.7 1250.77 757.12 1238.96 756.469L1231.18 752.44Z" fill="#EBF0F3" stroke="#122C3B" stroke-width="1.19242" stroke-linecap="round" stroke-linejoin="round"/>
<path d="M1145.83 755.016L1142.83 770.266L1183.15 778.342L1186.15 763.093L1145.83 755.016Z" fill="FEA64D" stroke="#122C3B" stroke-width="1.19242" stroke-linecap="round" stroke-linejoin="round"/>
<path d="M1086.85 769.981C1079.32 769.923 1071.84 771.26 1064.79 773.924C1064.69 773.923 1064.59 773.911 1064.5 773.911C1060.19 773.911 1056.06 776.616 1052.25 781.559C1048.83 784.786 1046.58 788.521 1045.85 792.541C1035.92 814.215 1029.32 852.682 1029.32 896.532C1029.32 964.252 1045.07 1019.15 1064.5 1019.15C1066.32 1019.15 1080.79 1019.99 1086.85 1019.99C1109.64 1019.99 1128.12 1008.61 1128.12 994.584V795.386C1128.12 781.357 1109.64 769.981 1086.85 769.981Z" fill="#EBF0F3" stroke="#122C3B" stroke-width="1.19242" stroke-linecap="round" stroke-linejoin="round"/>
<path d="M1146.58 896.531C1146.58 964.252 1130.83 1019.15 1111.4 1019.15C1091.97 1019.15 1076.22 964.252 1076.22 896.531C1076.22 828.81 1091.97 773.91 1111.4 773.91C1130.83 773.91 1146.58 828.81 1146.58 896.531Z" fill="FEA64D" stroke="#122C3B" stroke-width="1.19242" stroke-miterlimit="10"/>
<path d="M1303.86 895.378C1303.86 888.211 1306.68 881.337 1311.7 876.27C1316.71 871.202 1323.52 868.355 1330.61 868.355H1457.3C1464.4 868.355 1471.2 871.202 1476.22 876.27C1481.23 881.337 1484.05 888.211 1484.05 895.378C1484.05 902.545 1481.23 909.419 1476.22 914.487C1471.2 919.554 1464.4 922.401 1457.3 922.401H1330.61C1323.52 922.401 1316.71 919.554 1311.7 914.487C1306.68 909.419 1303.86 902.545 1303.86 895.378V895.378Z" fill="#ffd9b2" stroke="#122C3B" stroke-width="1.19242" stroke-linecap="round" stroke-linejoin="round"/>
<path d="M1467.89 874.688C1467.46 880.563 1464.85 886.056 1460.58 890.066C1456.31 894.076 1450.69 896.306 1444.86 896.309H1335.41C1330.79 896.315 1326.27 894.915 1322.45 892.289C1322.41 892.86 1322.36 893.431 1322.36 894.014C1322.36 900.206 1324.8 906.145 1329.13 910.523C1333.47 914.901 1339.34 917.361 1345.47 917.361H1454.92C1459.87 917.361 1464.68 915.759 1468.66 912.79C1472.63 909.821 1475.56 905.641 1477.01 900.866C1478.46 896.09 1478.36 890.969 1476.72 886.258C1475.07 881.546 1471.98 877.491 1467.89 874.688V874.688Z" fill="#FEA64D"/>
<path d="M1247.55 885.422C1247.55 878.791 1248.85 872.225 1251.36 866.098C1253.87 859.972 1257.55 854.405 1262.19 849.716C1266.83 845.028 1272.34 841.308 1278.4 838.771C1284.47 836.233 1290.97 834.927 1297.53 834.928V834.928C1304.09 834.927 1310.59 836.233 1316.65 838.77C1322.72 841.308 1328.23 845.027 1332.87 849.716C1337.51 854.405 1341.19 859.972 1343.7 866.098C1346.21 872.225 1347.5 878.791 1347.5 885.422V905.331C1347.5 911.962 1346.21 918.528 1343.7 924.655C1341.19 930.781 1337.51 936.348 1332.87 941.037C1328.23 945.727 1322.72 949.446 1316.65 951.983C1310.59 954.521 1304.09 955.826 1297.53 955.826V955.826C1290.97 955.826 1284.47 954.521 1278.4 951.983C1272.34 949.446 1266.83 945.726 1262.19 941.037C1257.55 936.348 1253.87 930.781 1251.36 924.655C1248.84 918.528 1247.55 911.962 1247.55 905.331V885.422Z" fill="#FEA64D" stroke="#122C3B" stroke-width="1.19242" stroke-linecap="round" stroke-linejoin="round"/>
<path d="M1318.32 924.734C1312.4 924.734 1306.53 923.556 1301.06 921.265C1295.58 918.975 1290.61 915.617 1286.42 911.385C1282.23 907.152 1278.91 902.127 1276.64 896.597C1274.38 891.066 1273.21 885.139 1273.21 879.153V861.182C1273.2 855.113 1274.4 849.104 1276.73 843.51C1269.84 847.5 1264.13 853.256 1260.15 860.195C1256.17 867.134 1254.08 875.011 1254.08 883.03V901.002C1254.08 911.526 1257.69 921.726 1264.29 929.87C1270.88 938.014 1280.07 943.6 1290.28 945.682C1300.49 947.763 1311.1 946.211 1320.3 941.289C1329.51 936.366 1336.75 928.377 1340.79 918.677C1333.95 922.654 1326.21 924.743 1318.32 924.734V924.734Z" fill="FEA64D"/>
<path d="M1240.52 800.084H1140.57C1132.61 800.078 1124.75 801.782 1117.49 805.084C1098.57 846.297 1089.83 938.31 1117.5 985.671C1124.75 988.971 1132.62 990.675 1140.57 990.669H1240.52C1247.91 990.669 1255.23 989.198 1262.07 986.34C1268.9 983.481 1275.11 979.291 1280.33 974.008C1285.56 968.726 1289.71 962.454 1292.54 955.552C1295.37 948.65 1296.83 941.252 1296.83 933.781V856.974C1296.83 849.502 1295.37 842.105 1292.54 835.202C1289.71 828.3 1285.56 822.028 1280.33 816.746C1275.11 811.463 1268.9 807.272 1262.07 804.414C1255.23 801.555 1247.91 800.084 1240.52 800.084V800.084Z" fill="#FEA64D" stroke="#122C3B" stroke-width="1.19242" stroke-linecap="round" stroke-linejoin="round"/>
<path d="M1276.16 954.96H1186.35C1179.2 954.965 1172.13 953.435 1165.61 950.47C1144.97 915.13 1146.89 852.148 1157.87 810.582H1143.93C1136.78 810.577 1129.71 812.109 1123.19 815.075C1106.18 852.111 1098.34 934.8 1123.2 977.362C1129.71 980.326 1136.78 981.856 1143.93 981.851H1233.75C1242.9 981.854 1251.88 979.35 1259.73 974.604C1267.58 969.859 1274.02 963.051 1278.34 954.905C1277.62 954.936 1276.9 954.96 1276.16 954.96Z" fill="#ffd9b2"/>
<path d="M1219.02 764.199C1221.22 750.942 1222.09 721.318 1217.83 706.786C1206.14 666.921 1188.85 691.569 1188.85 706.294C1188.85 706.294 1190.77 734.295 1189.49 765.34C1199.34 766.138 1209.25 765.755 1219.02 764.199V764.199Z" fill="FEA64D" stroke="#122C3B" stroke-width="1.19242" stroke-linecap="round" stroke-linejoin="round"/>
<path d="M1189.48 765.339C1188.45 790.441 1185.23 820.262 1170.72 836.214L1181.74 839.365C1181.74 839.365 1212.02 806.255 1219.02 764.198C1209.25 765.754 1199.34 766.138 1189.48 765.339V765.339Z" fill="#EBF0F3" stroke="#122C3B" stroke-width="1.19242" stroke-linecap="round" stroke-linejoin="round"/>
<path d="M1224.15 762.478H1182.57V780.124H1224.15V762.478Z" fill="FEA64D" stroke="#122C3B" stroke-width="1.19242" stroke-linecap="round" stroke-linejoin="round"/>
<path d="M1183.93 835.774L1171.98 831.08C1171.35 831.182 1170.75 831.365 1170.17 831.625C1169.27 832.038 1169.6 834.974 1169.6 834.974C1169.6 834.974 1162.4 840.104 1158.99 845.62C1155.59 851.137 1148.58 855.045 1151.35 856.279C1154.13 857.518 1156.33 852.471 1157.48 853.65C1158.05 854.239 1156.39 859.002 1153.76 863.231C1151.12 867.459 1147.52 871.146 1149.65 871.59C1153.9 872.482 1161.94 858.771 1161.94 858.771C1161.94 858.771 1160.33 863.596 1158.32 868.507C1156.16 873.78 1153.68 879.199 1156.17 880.186C1158.31 881.038 1160.24 876.169 1162.77 871.572C1164.47 868.561 1166.34 865.651 1168.37 862.856C1168.37 862.856 1162.96 879.25 1165.36 878.311C1167.76 877.372 1172.25 862.67 1173.25 863.091C1174.26 863.511 1171.48 873.953 1173.23 873.73C1174.99 873.507 1180.39 855.825 1180.39 855.825C1180.39 855.825 1184.98 846.042 1183.05 839.825C1183.05 839.825 1185.98 837.469 1183.93 835.774Z" fill="#1F2426"/>
<path d="M1315.71 737.325C1316.15 738.022 1316.45 738.8 1316.59 739.615C1316.74 740.429 1316.72 741.265 1316.55 742.073C1316.37 742.882 1316.04 743.647 1315.57 744.326C1315.1 745.006 1314.51 745.585 1313.82 746.031L1299.63 755.206C1298.94 755.652 1298.17 755.957 1297.37 756.102C1296.56 756.248 1295.73 756.231 1294.93 756.054C1294.13 755.877 1293.37 755.542 1292.7 755.069C1292.03 754.595 1291.46 753.993 1291.02 753.296L1272.52 724.104C1272.08 723.407 1271.77 722.629 1271.63 721.814C1271.49 720.999 1271.5 720.164 1271.68 719.356C1271.85 718.547 1272.18 717.782 1272.65 717.103C1273.12 716.424 1273.72 715.845 1274.41 715.398L1288.59 706.223C1289.28 705.777 1290.05 705.472 1290.86 705.327C1291.66 705.181 1292.49 705.197 1293.29 705.375C1294.09 705.552 1294.85 705.887 1295.52 706.36C1296.19 706.834 1296.77 707.436 1297.21 708.133L1315.71 737.325Z" fill="FEA64D" stroke="#122C3B" stroke-width="1.19242" stroke-linecap="round" stroke-linejoin="round"/>
<path d="M1279.65 733.897C1279.65 733.897 1297.53 733.182 1305.09 719.688Z" fill="FEA64D"/>
<path d="M1279.65 733.897C1279.65 733.897 1297.53 733.182 1305.09 719.688" stroke="#122C3B" stroke-width="1.19242" stroke-linecap="round" stroke-linejoin="round"/>
<path d="M1272.15 624.512C1272.15 627.129 1271.64 629.721 1270.64 632.14C1269.65 634.558 1268.2 636.755 1266.37 638.606C1264.54 640.457 1262.36 641.925 1259.97 642.927C1257.57 643.929 1255.01 644.444 1252.42 644.444H1186.65C1181.42 644.444 1176.4 642.344 1172.7 638.606C1169.01 634.868 1166.93 629.798 1166.93 624.512V624.512C1166.93 619.225 1169.01 614.155 1172.7 610.417C1176.4 606.679 1181.42 604.579 1186.65 604.579H1252.42C1255.01 604.579 1257.57 605.095 1259.97 606.096C1262.36 607.098 1264.54 608.566 1266.37 610.417C1268.2 612.268 1269.65 614.465 1270.64 616.884C1271.64 619.302 1272.15 621.894 1272.15 624.512V624.512Z" fill="#1F2426"/>
<path d="M1190.31 624.512H1166.93V644.363H1190.31V624.512Z" fill="#1F2426"/>
<path d="M527.456 589.199H431.806C415.959 589.199 403.111 603.991 403.111 622.236C403.111 640.481 415.959 655.273 431.806 655.273H527.456C528.31 655.273 529.154 655.221 529.989 655.137H556.15V622.236C556.15 603.991 543.303 589.199 527.456 589.199Z" fill="FEA64D"/>
<path d="M1203.46 623.856C1203.46 624.44 1203.29 625.011 1202.97 625.496C1202.65 625.982 1202.19 626.36 1201.66 626.584C1201.12 626.807 1200.53 626.866 1199.97 626.752C1199.4 626.638 1198.88 626.357 1198.47 625.944C1198.06 625.531 1197.78 625.004 1197.67 624.431C1197.56 623.859 1197.62 623.265 1197.84 622.725C1198.06 622.186 1198.43 621.724 1198.91 621.4C1199.4 621.075 1199.96 620.902 1200.54 620.902C1200.92 620.902 1201.3 620.979 1201.66 621.127C1202.01 621.275 1202.33 621.493 1202.61 621.767C1202.88 622.041 1203.09 622.367 1203.24 622.725C1203.39 623.084 1203.46 623.468 1203.46 623.856V623.856Z" fill="#EBF0F3"/>
<path d="M1222.46 623.856C1222.46 624.44 1222.29 625.011 1221.97 625.496C1221.65 625.982 1221.19 626.36 1220.65 626.584C1220.12 626.807 1219.53 626.866 1218.97 626.752C1218.4 626.638 1217.88 626.357 1217.47 625.944C1217.06 625.531 1216.78 625.004 1216.67 624.431C1216.56 623.858 1216.61 623.265 1216.84 622.725C1217.06 622.186 1217.43 621.724 1217.91 621.4C1218.39 621.075 1218.96 620.902 1219.54 620.902C1219.92 620.902 1220.3 620.979 1220.66 621.127C1221.01 621.275 1221.33 621.493 1221.6 621.767C1221.87 622.042 1222.09 622.367 1222.24 622.725C1222.38 623.084 1222.46 623.468 1222.46 623.856Z" fill="#EBF0F3"/>
<path d="M1241.46 623.856C1241.46 624.44 1241.29 625.01 1240.96 625.496C1240.64 625.982 1240.19 626.36 1239.65 626.583C1239.12 626.807 1238.53 626.865 1237.96 626.751C1237.4 626.637 1236.88 626.356 1236.47 625.943C1236.06 625.53 1235.78 625.004 1235.67 624.431C1235.55 623.858 1235.61 623.264 1235.83 622.725C1236.06 622.185 1236.43 621.724 1236.91 621.4C1237.39 621.075 1237.96 620.902 1238.53 620.902C1238.92 620.902 1239.3 620.979 1239.65 621.127C1240.01 621.276 1240.33 621.493 1240.6 621.767C1240.87 622.042 1241.09 622.367 1241.23 622.726C1241.38 623.084 1241.46 623.468 1241.46 623.856V623.856Z" fill="#EBF0F3"/>
<path d="M453.552 628.369H450.14L448.72 637.146H444.504L445.924 628.369H441.22V624.452H446.559L447.491 618.799H442.808V614.883H448.127L449.589 605.977H453.784L452.343 614.883H455.755L457.217 605.977H461.433L459.972 614.883H464.866V618.799H459.335L458.403 624.452H463.256V628.369H457.768L456.348 637.146H452.131L453.552 628.369ZM450.775 624.452H454.187L455.119 618.799H451.707L450.775 624.452Z" fill="#EBF0F3"/>
<path d="M482.779 628.369H479.368L477.948 637.146H473.732L475.151 628.369H470.447V624.452H475.787L476.719 618.799H472.036V614.883H477.355L478.816 605.977H483.012L481.571 614.883H484.983L486.445 605.977H490.661L489.199 614.883H494.094V618.799H488.563L487.631 624.452H492.484V628.369H486.996L485.576 637.146H481.359L482.779 628.369ZM480.003 624.452H483.415L484.347 618.799H480.935L480.003 624.452Z" fill="#EBF0F3"/>
<path d="M512.007 628.369H508.596L507.176 637.146H502.959L504.379 628.369H499.675V624.452H505.015L505.947 618.799H501.264V614.883H506.582L508.044 605.977H512.24L510.799 614.883H514.21L515.672 605.977H519.889L518.427 614.883H523.322V618.799H517.791L516.859 624.452H521.711V628.369H516.223L514.803 637.146H510.587L512.007 628.369ZM509.23 624.452H512.642L513.575 618.799H510.163L509.23 624.452Z" fill="#EBF0F3"/>
</svg>
