<svg width="147" height="79" viewBox="0 0 147 79" fill="none" xmlns="http://www.w3.org/2000/svg">
<path fill-rule="evenodd" clip-rule="evenodd" d="M94.282 6.92525C95.2354 6.40575 96.2685 6.03764 97.3445 5.83831C98.5576 5.61356 99.7967 5.6086 101.004 5.8192C99.7967 5.60859 98.5576 5.61349 97.3444 5.83824C96.0284 6.08204 94.7765 6.57832 93.6562 7.29528C93.3543 7.4885 93.0009 7.57225 92.6632 7.54214C92.9136 7.56448 93.1726 7.52426 93.4128 7.42321C93.4967 7.38797 93.5782 7.34532 93.6563 7.29535C93.8606 7.16458 94.0693 7.04115 94.282 6.92525ZM101 28.8784C101.417 28.8209 101.833 28.743 102.245 28.6446C104.428 28.1236 106.439 27.0462 108.082 25.5173C109.725 23.9884 110.945 22.0602 111.622 19.9202C112.154 18.2365 112.337 16.4669 112.164 14.7194C112.337 16.4669 112.154 18.2366 111.622 19.9203C110.945 22.0603 109.726 23.9885 108.082 25.5174C106.439 27.0462 104.428 28.1236 102.245 28.6447C101.833 28.7431 101.418 28.821 101 28.8784V28.8784ZM98.4508 31.9811H22C19.7909 31.9811 18 30.1902 18 27.9811V27.1811C18 24.9719 19.7909 23.1811 22 23.1811H100.719C100.789 23.1664 100.86 23.1508 100.93 23.134C102.161 22.84 103.296 22.2322 104.223 21.3696C105.15 20.507 105.838 19.4191 106.22 18.2118C106.602 17.0044 106.665 15.7188 106.402 14.48C106.14 13.2412 105.561 12.0914 104.723 11.1426C103.884 10.1938 102.814 9.47829 101.617 9.06569C100.42 8.65308 99.136 8.55745 97.8909 8.78812C96.9569 8.96114 96.0685 9.31335 95.2734 9.8222C93.5886 10.9004 91.0196 10.8878 89.4284 8.99187C87.9498 7.23017 87.996 4.28348 90.2491 2.75615C92.0719 1.52043 94.1355 0.6709 96.3125 0.267603C99.0286 -0.23558 101.829 -0.0269737 104.44 0.873114C107.052 1.7732 109.386 3.33411 111.215 5.40391C113.045 7.4737 114.307 9.98187 114.88 12.6843C115.452 15.3867 115.315 18.1913 114.482 20.825C113.649 23.4588 112.148 25.832 110.126 27.7137C108.104 29.5954 105.628 30.9214 102.942 31.5627C102.3 31.7159 101.652 31.8287 101 31.9014V31.9811H100.003C99.4859 32.0062 98.9678 32.0062 98.4508 31.9811ZM102.594 6.22935C102.594 6.22936 102.594 6.2294 102.594 6.22941C102.594 6.2294 102.594 6.22935 102.594 6.22935ZM111.945 13.306C111.945 13.3059 111.945 13.3059 111.945 13.3059C111.945 13.3059 111.945 13.3059 111.945 13.306Z" fill="#93C7EC"/>
<path fill-rule="evenodd" clip-rule="evenodd" d="M95.282 8.92525C96.2354 8.40575 97.2685 8.03764 98.3445 7.83831C99.5576 7.61356 100.797 7.6086 102.004 7.8192C100.797 7.60859 99.5576 7.61349 98.3444 7.83824C97.0284 8.08204 95.7765 8.57832 94.6562 9.29528C94.3543 9.4885 94.0009 9.57225 93.6632 9.54214C93.9136 9.56448 94.1726 9.52426 94.4128 9.42321C94.4967 9.38797 94.5782 9.34532 94.6563 9.29535C94.8606 9.16458 95.0693 9.04115 95.282 8.92525ZM102 30.8784C102.417 30.8209 102.833 30.743 103.245 30.6446C105.428 30.1236 107.439 29.0462 109.082 27.5173C110.725 25.9884 111.945 24.0602 112.622 21.9202C113.154 20.2365 113.337 18.4669 113.164 16.7194C113.337 18.4669 113.154 20.2366 112.622 21.9203C111.945 24.0603 110.726 25.9885 109.082 27.5174C107.439 29.0462 105.428 30.1236 103.245 30.6447C102.833 30.7431 102.418 30.821 102 30.8784V30.8784ZM99.4508 33.9811H23C20.7909 33.9811 19 32.1902 19 29.9811V29.1811C19 26.9719 20.7909 25.1811 23 25.1811H101.719C101.789 25.1664 101.86 25.1508 101.93 25.134C103.161 24.84 104.296 24.2322 105.223 23.3696C106.15 22.507 106.838 21.4191 107.22 20.2118C107.602 19.0044 107.665 17.7188 107.402 16.48C107.14 15.2412 106.561 14.0914 105.723 13.1426C104.884 12.1938 103.814 11.4783 102.617 11.0657C101.42 10.6531 100.136 10.5575 98.8909 10.7881C97.9569 10.9611 97.0685 11.3134 96.2734 11.8222C94.5886 12.9004 92.0196 12.8878 90.4284 10.9919C88.9498 9.23017 88.996 6.28348 91.2491 4.75615C93.0719 3.52043 95.1355 2.6709 97.3125 2.2676C100.029 1.76442 102.829 1.97303 105.44 2.87311C108.052 3.7732 110.386 5.33411 112.215 7.40391C114.045 9.4737 115.307 11.9819 115.88 14.6843C116.452 17.3867 116.315 20.1913 115.482 22.825C114.649 25.4588 113.148 27.832 111.126 29.7137C109.104 31.5954 106.628 32.9214 103.942 33.5627C103.3 33.7159 102.652 33.8287 102 33.9014V33.9811H101.003C100.486 34.0062 99.9678 34.0062 99.4508 33.9811ZM103.594 8.22935C103.594 8.22936 103.594 8.2294 103.594 8.22941C103.594 8.2294 103.594 8.22935 103.594 8.22935ZM112.945 15.306C112.945 15.3059 112.945 15.3059 112.945 15.3059C112.945 15.3059 112.945 15.3059 112.945 15.306Z" fill="#1B6498"/>
<path fill-rule="evenodd" clip-rule="evenodd" d="M63.6976 3.96267C63.8168 3.89773 63.9385 3.83752 64.0623 3.78218C63.8279 3.8869 63.6014 4.00902 63.3847 4.14768C63.2324 4.24515 63.054 4.2869 62.8838 4.2707C63.0103 4.28275 63.1415 4.26277 63.2631 4.21165C63.305 4.19402 63.3457 4.1727 63.3848 4.14772C63.4869 4.08233 63.5913 4.02061 63.6976 3.96267ZM67 14.9468C67.2278 14.9175 67.4545 14.876 67.6792 14.8224C68.0188 14.7413 68.3501 14.6334 68.6701 14.5C68.3501 14.6334 68.0188 14.7413 67.6792 14.8224C67.4545 14.876 67.2278 14.9174 67 14.9468V14.9468ZM63.8754 16H2C0.895431 16 0 15.1046 0 14C0 12.8954 0.895429 12 2 12H67V12.0721C67.0072 12.0705 67.0144 12.0688 67.0215 12.0671C67.6374 11.9201 68.2047 11.6161 68.6682 11.1848C69.1317 10.7536 69.4757 10.2096 69.6666 9.60593C69.8576 9.00226 69.889 8.35944 69.7578 7.74004C69.6266 7.12064 69.3372 6.54576 68.9179 6.07136C68.4986 5.59695 67.9636 5.23919 67.3651 5.03289C66.7665 4.82658 66.1247 4.77877 65.5021 4.8941C65.0351 4.98061 64.5909 5.15672 64.1933 5.41114C63.3509 5.95026 62.0665 5.94393 61.2708 4.99598C60.5315 4.11513 60.5546 2.64178 61.6812 1.87811C62.5926 1.26026 63.6244 0.835491 64.7129 0.633842C66.0709 0.382252 67.471 0.486555 68.7768 0.936599C70.0826 1.38664 71.2497 2.1671 72.1644 3.20199C73.0791 4.23689 73.7102 5.49098 73.9965 6.84218C74.2827 8.19338 74.2142 9.59567 73.7977 10.9126C73.3811 12.2294 72.6308 13.416 71.6196 14.3569C70.6084 15.2977 69.3709 15.9608 68.0274 16.2814C66.9507 16.5384 65.8353 16.5685 64.7516 16.3732C64.412 16.3121 64.1188 16.1804 63.8754 16Z" fill="#93C7EC"/>
<path fill-rule="evenodd" clip-rule="evenodd" d="M64.1976 4.96267C64.4956 4.80032 64.8091 4.66755 65.1337 4.56646C64.6932 4.70362 64.2732 4.89911 63.8847 5.14768C63.7324 5.24515 63.554 5.2869 63.3838 5.2707C63.5103 5.28275 63.6415 5.26277 63.7631 5.21165C63.805 5.19402 63.8457 5.1727 63.8848 5.14772C63.9869 5.08233 64.0913 5.02061 64.1976 4.96267ZM68 15.8625C68.0599 15.85 68.1196 15.8366 68.1792 15.8224C68.5188 15.7413 68.8501 15.6334 69.1701 15.5C68.8501 15.6334 68.5188 15.7413 68.1792 15.8224C68.1196 15.8366 68.0599 15.85 68 15.8625V15.8625ZM64.3754 17H3C1.89543 17 1 16.1046 1 15C1 13.8954 1.89543 13 3 13H67.765C68.2867 12.8368 68.7664 12.5587 69.1682 12.1848C69.6317 11.7536 69.9757 11.2096 70.1666 10.6059C70.3576 10.0023 70.389 9.35944 70.2578 8.74004C70.1266 8.12064 69.8372 7.54576 69.4179 7.07136C68.9986 6.59695 68.4636 6.23919 67.8651 6.03289C67.2665 5.82658 66.6247 5.77877 66.0021 5.8941C65.5351 5.98061 65.0909 6.15672 64.6933 6.41114C63.8509 6.95026 62.5665 6.94393 61.7708 5.99598C61.0315 5.11513 61.0546 3.64178 62.1812 2.87811C63.0926 2.26026 64.1244 1.83549 65.2129 1.63384C66.5709 1.38225 67.971 1.48656 69.2768 1.9366C70.5826 2.38664 71.7497 3.1671 72.6644 4.20199C73.5791 5.23689 74.2102 6.49098 74.4965 7.84218C74.7827 9.19338 74.7142 10.5957 74.2977 11.9126C73.8811 13.2294 73.1308 14.416 72.1196 15.3569C71.1084 16.2977 69.8709 16.9608 68.5274 17.2814C67.4507 17.5384 66.3353 17.5685 65.2516 17.3732C64.912 17.3121 64.6188 17.1804 64.3754 17Z" fill="#13476C"/>
<path fill-rule="evenodd" clip-rule="evenodd" d="M124.282 71.0747C125.235 71.5943 126.268 71.9624 127.344 72.1617C128.558 72.3864 129.797 72.3914 131.004 72.1808C129.797 72.3914 128.558 72.3865 127.344 72.1618C126.028 71.918 124.776 71.4217 123.656 70.7047C123.354 70.5115 123.001 70.4278 122.663 70.4579C122.914 70.4355 123.173 70.4757 123.413 70.5768C123.497 70.612 123.578 70.6547 123.656 70.7046C123.861 70.8354 124.069 70.9589 124.282 71.0747ZM131 49.1216C131.417 49.1791 131.833 49.257 132.245 49.3554C134.428 49.8764 136.439 50.9538 138.082 52.4827C139.725 54.0116 140.945 55.9398 141.622 58.0798C142.154 59.7635 142.337 61.5331 142.164 63.2806C142.337 61.5331 142.154 59.7634 141.622 58.0797C140.945 55.9397 139.726 54.0115 138.082 52.4826C136.439 50.9538 134.428 49.8764 132.245 49.3553C131.833 49.2569 131.418 49.179 131 49.1216V49.1216ZM128.451 46.0189H52C49.7909 46.0189 48 47.8098 48 50.0189V50.8189C48 53.0281 49.7909 54.8189 52 54.8189H130.719C130.789 54.8336 130.86 54.8492 130.93 54.866C132.161 55.16 133.296 55.7678 134.223 56.6304C135.15 57.493 135.838 58.5809 136.22 59.7882C136.602 60.9956 136.665 62.2812 136.402 63.52C136.14 64.7588 135.561 65.9086 134.723 66.8574C133.884 67.8062 132.814 68.5217 131.617 68.9343C130.42 69.3469 129.136 69.4425 127.891 69.2119C126.957 69.0389 126.068 68.6866 125.273 68.1778C123.589 67.0996 121.02 67.1122 119.428 69.0081C117.95 70.7698 117.996 73.7165 120.249 75.2439C122.072 76.4796 124.135 77.3291 126.312 77.7324C129.029 78.2356 131.829 78.027 134.44 77.1269C137.052 76.2268 139.386 74.6659 141.215 72.5961C143.045 70.5263 144.307 68.0181 144.88 65.3157C145.452 62.6133 145.315 59.8087 144.482 57.175C143.649 54.5412 142.148 52.168 140.126 50.2863C138.104 48.4046 135.628 47.0786 132.942 46.4373C132.3 46.2841 131.652 46.1713 131 46.0986V46.0189H130.003C129.486 45.9938 128.968 45.9938 128.451 46.0189ZM132.594 71.7707C132.594 71.7706 132.594 71.7706 132.594 71.7706C132.594 71.7706 132.594 71.7706 132.594 71.7707ZM141.945 64.694C141.945 64.6941 141.945 64.6941 141.945 64.6941C141.945 64.6941 141.945 64.6941 141.945 64.694Z" fill="#93C7EC"/>
<path fill-rule="evenodd" clip-rule="evenodd" d="M125.282 69.0747C126.235 69.5942 127.268 69.9623 128.344 70.1616C129.558 70.3864 130.797 70.3913 132.004 70.1807C130.797 70.3913 129.558 70.3864 128.344 70.1617C127.028 69.9179 125.776 69.4216 124.656 68.7046C124.365 68.5181 124.025 68.4336 123.698 68.455C123.938 68.4393 124.184 68.4804 124.413 68.5767C124.497 68.6119 124.578 68.6546 124.656 68.7046C124.861 68.8353 125.069 68.9588 125.282 69.0747ZM132.113 47.1377C132.493 47.1933 132.87 47.2658 133.245 47.3553C135.428 47.8763 137.439 48.9538 139.082 50.4826C140.725 52.0115 141.945 53.9397 142.622 56.0797C143.154 57.7634 143.337 59.533 143.164 61.2805C143.337 59.533 143.154 57.7633 142.622 56.0796C141.945 53.9397 140.726 52.0114 139.082 50.4826C137.439 48.9537 135.428 47.8763 133.245 47.3552C132.87 47.2658 132.493 47.1932 132.113 47.1376V47.1377ZM130.225 44L45.1133 44C42.9041 44 41.1133 45.7909 41.1133 48V49C41.1133 51.2091 42.9041 53 45.1133 53H132.113V52.9122C133.274 53.2211 134.342 53.8108 135.223 54.6303C136.15 55.4929 136.838 56.5808 137.22 57.7881C137.602 58.9955 137.665 60.2811 137.402 61.5199C137.14 62.7587 136.561 63.9085 135.723 64.8573C134.884 65.8061 133.814 66.5216 132.617 66.9342C131.42 67.3468 130.136 67.4425 128.891 67.2118C127.957 67.0388 127.068 66.6866 126.273 66.1777C124.589 65.0995 122.02 65.1121 120.428 67.008C118.95 68.7697 118.996 71.7164 121.249 73.2438C123.072 74.4795 125.135 75.329 127.312 75.7323C130.029 76.2355 132.829 76.0269 135.44 75.1268C138.052 74.2267 140.386 72.6658 142.215 70.596C144.045 68.5262 145.307 66.018 145.88 63.3156C146.452 60.6132 146.315 57.8087 145.482 55.1749C144.649 52.5411 143.148 50.1679 141.126 48.2862C139.104 46.4045 136.628 45.0785 133.942 44.4372C133.337 44.2929 132.727 44.1844 132.113 44.1116V44L130.229 44C130.228 44 130.226 44 130.225 44ZM133.594 69.7706C133.594 69.7706 133.594 69.7705 133.594 69.7705C133.594 69.7705 133.594 69.7706 133.594 69.7706ZM142.945 62.694C142.945 62.694 142.945 62.694 142.945 62.694C142.945 62.694 142.945 62.694 142.945 62.694Z" fill="#13476C"/>
<path fill-rule="evenodd" clip-rule="evenodd" d="M93.6976 75.0373C93.8168 75.1023 93.9385 75.1625 94.0623 75.2178C93.8279 75.1131 93.6014 74.991 93.3847 74.8523C93.2324 74.7549 93.054 74.7131 92.8838 74.7293C93.0103 74.7172 93.1415 74.7372 93.2631 74.7884C93.305 74.806 93.3457 74.8273 93.3848 74.8523C93.4869 74.9177 93.5913 74.9794 93.6976 75.0373ZM97 64.0532C97.2278 64.0825 97.4545 64.124 97.6792 64.1776C98.0188 64.2587 98.3501 64.3666 98.6701 64.5C98.3501 64.3666 98.0188 64.2587 97.6792 64.1776C97.4545 64.124 97.2278 64.0826 97 64.0532V64.0532ZM93.8754 63H32C30.8954 63 30 63.8954 30 65C30 66.1046 30.8954 67 32 67H97V66.9279C97.0072 66.9295 97.0144 66.9312 97.0215 66.9329C97.6374 67.0799 98.2047 67.3839 98.6682 67.8152C99.1317 68.2464 99.4757 68.7904 99.6666 69.3941C99.8576 69.9977 99.889 70.6406 99.7578 71.26C99.6266 71.8794 99.3372 72.4542 98.9179 72.9286C98.4986 73.403 97.9636 73.7608 97.3651 73.9671C96.7665 74.1734 96.1247 74.2212 95.5021 74.1059C95.0351 74.0194 94.5909 73.8433 94.1933 73.5889C93.3509 73.0497 92.0665 73.0561 91.2708 74.004C90.5315 74.8849 90.5546 76.3582 91.6812 77.1219C92.5926 77.7397 93.6244 78.1645 94.7129 78.3662C96.0709 78.6177 97.471 78.5134 98.7768 78.0634C100.083 77.6134 101.25 76.8329 102.164 75.798C103.079 74.7631 103.71 73.509 103.996 72.1578C104.283 70.8066 104.214 69.4043 103.798 68.0874C103.381 66.7706 102.631 65.584 101.62 64.6431C100.608 63.7023 99.3709 63.0392 98.0274 62.7186C96.9507 62.4616 95.8353 62.4315 94.7516 62.6268C94.412 62.6879 94.1188 62.8196 93.8754 63Z" fill="#93C7EC"/>
<path fill-rule="evenodd" clip-rule="evenodd" d="M98.1133 62.1623C98.1351 62.1673 98.1569 62.1724 98.1787 62.1776C98.5183 62.2587 98.8496 62.3666 99.1696 62.5C98.8496 62.3666 98.5183 62.2587 98.1787 62.1776C98.1569 62.1724 98.1351 62.1674 98.1133 62.1624V62.1623ZM94.3749 61H24.1133C23.0087 61 22.1133 61.8954 22.1133 63C22.1133 64.1046 23.0087 65 24.1133 65H97.7645C98.2862 65.1632 98.7659 65.4413 99.1677 65.8152C99.6312 66.2464 99.9752 66.7904 100.166 67.3941C100.357 67.9977 100.388 68.6406 100.257 69.26C100.126 69.8794 99.8367 70.4542 99.4174 70.9286C98.9981 71.403 98.4632 71.7608 97.8646 71.9671C97.266 72.1734 96.6242 72.2212 96.0016 72.1059C95.5346 72.0194 95.0904 71.8433 94.6928 71.5889C93.8504 71.0497 92.566 71.0561 91.7703 72.004C91.031 72.8849 91.0542 74.3582 92.1807 75.1219C93.0921 75.7397 94.1239 76.1645 95.2124 76.3662C96.5705 76.6177 97.9705 76.5134 99.2763 76.0634C100.582 75.6134 101.749 74.8329 102.664 73.798C103.579 72.7631 104.21 71.509 104.496 70.1578C104.782 68.8066 104.714 67.4043 104.297 66.0874C103.881 64.7706 103.13 63.584 102.119 62.6431C101.108 61.7023 99.8704 61.0392 98.5269 60.7186C97.4502 60.4616 96.3348 60.4315 95.2511 60.6268C94.9116 60.6879 94.6183 60.8196 94.3749 61Z" fill="#1B6498"/>
</svg>
