<svg width="130" height="111" viewBox="0 0 130 111" fill="none" xmlns="http://www.w3.org/2000/svg">
<path d="M21.9065 29.2268C19.7867 29.4172 19.0077 26.5097 20.9386 25.6147C27.9339 22.3721 32.2723 15.2197 31.9155 7.5176L31.8882 6.9272C31.7898 4.80817 34.6369 4.03194 35.6275 5.9077L35.95 6.51786C39.542 13.3163 46.8639 17.2938 54.5224 16.606C56.6529 16.4148 57.4359 19.337 55.4952 20.2366C48.5189 23.4702 44.1666 30.5759 44.4551 38.2594L44.4809 38.9491C44.5609 41.0689 41.7071 41.8202 40.7328 39.9359L40.4613 39.4109C36.9193 32.5623 29.5859 28.5373 21.9065 29.2268Z" stroke="#3897DC" stroke-width="5.9749" stroke-linecap="round" stroke-linejoin="round"/>
<path d="M98.7433 14.5554C97.782 14.1099 98.1699 12.6623 99.2252 12.7571C103.048 13.1004 106.699 11.0965 108.463 7.6869L108.598 7.42555C109.083 6.48742 110.504 6.86146 110.464 7.91681L110.451 8.26016C110.308 12.0855 112.474 15.6231 115.948 17.2329C116.914 17.6808 116.524 19.1357 115.463 19.0404C111.65 18.6981 108.005 20.6783 106.217 24.0629L106.056 24.3667C105.563 25.3006 104.146 24.9141 104.195 23.8591L104.208 23.5652C104.386 19.7307 102.226 16.1698 98.7433 14.5554Z" stroke="#3897DC" stroke-width="2.32368" stroke-linecap="round" stroke-linejoin="round"/>
<path d="M98.661 36.3616C97.4346 35.3373 98.5646 33.3801 100.065 33.9301C105.5 35.9224 111.601 34.4285 115.5 30.15L115.799 29.822C116.872 28.6448 118.796 29.7442 118.326 31.266L118.173 31.7611C116.471 37.2774 118.246 43.2763 122.677 46.977C123.91 48.0066 122.774 49.9737 121.266 49.421C115.846 47.434 109.763 48.8957 105.837 53.1281L105.484 53.5079C104.401 54.6758 102.487 53.5596 102.97 52.0419L103.105 51.6191C104.86 46.1027 103.104 40.0725 98.661 36.3616Z" stroke="#1B6498" stroke-width="4.48599" stroke-linecap="round" stroke-linejoin="round"/>
<path d="M7.23326 52.0885C5.98946 52.5444 5.05266 50.9219 6.06942 50.0727C9.7529 46.9962 11.2091 41.9969 9.75369 37.4236L9.64216 37.073C9.2416 35.8148 10.8283 34.8895 11.7262 35.8576L12.0183 36.1725C15.2732 39.6814 20.3162 40.8932 24.81 39.2459C26.0601 38.7877 27.0017 40.4185 25.9798 41.272C22.3063 44.3401 20.8343 49.3134 22.2456 53.8866L22.3722 54.2971C22.7618 55.5587 21.167 56.4702 20.2777 55.4942L20.0298 55.2224C16.7969 51.6753 11.7393 50.4368 7.23326 52.0885Z" stroke="#1B6498" stroke-width="3.0096" stroke-linecap="round" stroke-linejoin="round"/>
<g clip-path="url(#clip0_302_10376)">
<path d="M80.7454 54.3696H48.1018C47.3493 54.3903 46.6121 54.5879 45.95 54.9463C45.2879 55.3048 44.7194 55.8142 44.2905 56.4332L36.1296 67.7379C35.5236 68.5946 35.221 69.6292 35.2697 70.6776C35.3185 71.726 35.7158 72.7281 36.3986 73.5248L60.8812 101.742C61.3004 102.282 61.8375 102.719 62.4514 103.02C63.0654 103.321 63.74 103.477 64.4236 103.477C65.1072 103.477 65.7818 103.321 66.3958 103.02C67.0097 102.719 67.5468 102.282 67.966 101.742L92.4485 73.5248C93.1312 72.7281 93.5287 71.726 93.5776 70.6776C93.626 69.6292 93.3237 68.5946 92.7176 67.7379L84.5567 56.4332C84.1279 55.8142 83.5595 55.3048 82.8974 54.9463C82.2352 54.5879 81.4977 54.3903 80.7454 54.3696Z" stroke="#67B0E4" stroke-width="4.48599" stroke-linecap="round" stroke-linejoin="round"/>
<path d="M62.0913 54.3247L51.1455 71.2818L64.424 103.356" stroke="#67B0E4" stroke-width="4.48599" stroke-linecap="round" stroke-linejoin="round"/>
<path d="M66.8911 54.3247L77.7921 71.2818L64.4238 103.356" stroke="#67B0E4" stroke-width="4.48599" stroke-linecap="round" stroke-linejoin="round"/>
<path d="M35.3564 71.2817H93.4948" stroke="#67B0E4" stroke-width="4.48599" stroke-linecap="round" stroke-linejoin="round"/>
</g>
<g clip-path="url(#clip1_302_10376)">
<path d="M80.7454 51.7695H48.1018C47.3493 51.7902 46.6121 51.9878 45.95 52.3463C45.2879 52.7047 44.7194 53.2141 44.2905 53.8331L36.1296 65.1378C35.5236 65.9945 35.221 67.0291 35.2697 68.0775C35.3185 69.1259 35.7158 70.128 36.3986 70.9247L60.8812 99.1414C61.3004 99.682 61.8375 100.119 62.4514 100.42C63.0654 100.721 63.74 100.877 64.4236 100.877C65.1072 100.877 65.7818 100.721 66.3958 100.42C67.0097 100.119 67.5468 99.682 67.966 99.1414L92.4485 70.9247C93.1312 70.128 93.5287 69.1259 93.5776 68.0775C93.626 67.0291 93.3237 65.9945 92.7176 65.1378L84.5567 53.8331C84.1279 53.2141 83.5595 52.7047 82.8974 52.3463C82.2352 51.9878 81.4977 51.7902 80.7454 51.7695Z" stroke="#13476C" stroke-width="4.48599" stroke-linecap="round" stroke-linejoin="round"/>
<path d="M62.0913 51.7246L51.1455 68.6817L64.424 100.756" stroke="#13476C" stroke-width="4.48599" stroke-linecap="round" stroke-linejoin="round"/>
<path d="M66.8911 51.7246L77.7921 68.6817L64.4238 100.756" stroke="#13476C" stroke-width="4.48599" stroke-linecap="round" stroke-linejoin="round"/>
<path d="M35.3564 68.6816H93.4948" stroke="#13476C" stroke-width="4.48599" stroke-linecap="round" stroke-linejoin="round"/>
</g>
<defs>
<clipPath id="clip0_302_10376">
<rect width="62.8039" height="62.8039" fill="white" transform="translate(33.0215 47.4609)"/>
</clipPath>
<clipPath id="clip1_302_10376">
<rect width="62.8039" height="62.8039" fill="white" transform="translate(33.0215 44.8608)"/>
</clipPath>
</defs>
</svg>
