<svg width="402" height="97" viewBox="0 0 402 97" fill="none" xmlns="http://www.w3.org/2000/svg">
<g filter="url(#filter0_d_431_10193)">
<path fill-rule="evenodd" clip-rule="evenodd" d="M148.282 85.0748C149.235 85.5944 150.268 85.9625 151.344 86.1618C152.558 86.3865 153.797 86.3915 155.004 86.1809C153.797 86.3915 152.558 86.3866 151.344 86.1619C150.028 85.9181 148.776 85.4218 147.656 84.7048C147.354 84.5116 147.001 84.4279 146.663 84.458C146.914 84.4356 147.173 84.4758 147.413 84.5769C147.497 84.6121 147.578 84.6548 147.656 84.7047C147.861 84.8355 148.069 84.959 148.282 85.0748ZM155 63.1217C155.417 63.1792 155.833 63.2571 156.245 63.3555C158.428 63.8765 160.439 64.9539 162.082 66.4828C163.725 68.0117 164.945 69.9399 165.622 72.0799C166.154 73.7636 166.337 75.5332 166.164 77.2807C166.337 75.5332 166.154 73.7635 165.622 72.0798C164.945 69.9398 163.726 68.0116 162.082 66.4827C160.439 64.9539 158.428 63.8765 156.245 63.3554C155.833 63.257 155.418 63.1791 155 63.1217V63.1217ZM152.451 60.019H76C73.7909 60.019 72 61.8099 72 64.019V64.819C72 67.0282 73.7909 68.819 76 68.819H154.719C154.789 68.8337 154.86 68.8493 154.93 68.8661C156.161 69.1601 157.296 69.7679 158.223 70.6305C159.15 71.4931 159.838 72.581 160.22 73.7883C160.602 74.9957 160.665 76.2813 160.402 77.5201C160.14 78.7589 159.561 79.9087 158.723 80.8575C157.884 81.8063 156.814 82.5218 155.617 82.9344C154.42 83.347 153.136 83.4426 151.891 83.212C150.957 83.039 150.068 82.6867 149.273 82.1779C147.589 81.0997 145.02 81.1123 143.428 83.0082C141.95 84.7699 141.996 87.7166 144.249 89.244C146.072 90.4797 148.135 91.3292 150.312 91.7325C153.029 92.2357 155.829 92.0271 158.44 91.127C161.052 90.2269 163.386 88.666 165.215 86.5962C167.045 84.5264 168.307 82.0182 168.88 79.3158C169.452 76.6134 169.315 73.8088 168.482 71.1751C167.649 68.5413 166.148 66.1681 164.126 64.2864C162.104 62.4047 159.628 61.0787 156.942 60.4374C156.3 60.2842 155.652 60.1714 155 60.0987V60.019H154.003C153.486 59.9939 152.968 59.9939 152.451 60.019ZM156.594 85.7708C156.594 85.7707 156.594 85.7707 156.594 85.7707C156.594 85.7707 156.594 85.7707 156.594 85.7708ZM165.945 78.6941C165.945 78.6942 165.945 78.6942 165.945 78.6942C165.945 78.6942 165.945 78.6942 165.945 78.6941Z" fill="#93C7EC"/>
<path fill-rule="evenodd" clip-rule="evenodd" d="M149.282 83.0748C150.235 83.5944 151.268 83.9625 152.344 84.1618C153.558 84.3865 154.797 84.3915 156.004 84.1809C154.797 84.3915 153.558 84.3866 152.344 84.1619C151.028 83.9181 149.776 83.4218 148.656 82.7048C148.354 82.5116 148.001 82.4279 147.663 82.458C147.914 82.4356 148.173 82.4758 148.413 82.5769C148.497 82.6121 148.578 82.6548 148.656 82.7047C148.861 82.8355 149.069 82.959 149.282 83.0748ZM156 61.1217C156.417 61.1792 156.833 61.2571 157.245 61.3555C159.428 61.8765 161.439 62.9539 163.082 64.4828C164.725 66.0117 165.945 67.9399 166.622 70.0799C167.154 71.7636 167.337 73.5332 167.164 75.2807C167.337 73.5332 167.154 71.7635 166.622 70.0798C165.945 67.9398 164.726 66.0116 163.082 64.4827C161.439 62.9539 159.428 61.8765 157.245 61.3554C156.833 61.257 156.418 61.1791 156 61.1217V61.1217ZM153.451 58.019H77C74.7909 58.019 73 59.8099 73 62.019V62.819C73 65.0282 74.7909 66.819 77 66.819H155.719C155.789 66.8337 155.86 66.8493 155.93 66.8661C157.161 67.1601 158.296 67.7679 159.223 68.6305C160.15 69.4931 160.838 70.581 161.22 71.7883C161.602 72.9957 161.665 74.2813 161.402 75.5201C161.14 76.7589 160.561 77.9087 159.723 78.8575C158.884 79.8063 157.814 80.5218 156.617 80.9344C155.42 81.347 154.136 81.4426 152.891 81.212C151.957 81.039 151.068 80.6867 150.273 80.1779C148.589 79.0997 146.02 79.1123 144.428 81.0082C142.95 82.7699 142.996 85.7166 145.249 87.244C147.072 88.4797 149.135 89.3292 151.312 89.7325C154.029 90.2357 156.829 90.0271 159.44 89.127C162.052 88.2269 164.386 86.666 166.215 84.5962C168.045 82.5264 169.307 80.0182 169.88 77.3158C170.452 74.6134 170.315 71.8088 169.482 69.1751C168.649 66.5413 167.148 64.1681 165.126 62.2864C163.104 60.4047 160.628 59.0787 157.942 58.4374C157.3 58.2842 156.652 58.1714 156 58.0987V58.019H155.003C154.486 57.9939 153.968 57.9939 153.451 58.019ZM157.594 83.7708C157.594 83.7707 157.594 83.7707 157.594 83.7707C157.594 83.7707 157.594 83.7707 157.594 83.7708ZM166.945 76.6941C166.945 76.6942 166.945 76.6942 166.945 76.6942C166.945 76.6942 166.945 76.6942 166.945 76.6941Z" fill="#13476C"/>
<path fill-rule="evenodd" clip-rule="evenodd" d="M117.697 88.0373C117.816 88.1023 117.938 88.1625 118.062 88.2178C117.827 88.1131 117.601 87.991 117.384 87.8523C117.232 87.7549 117.053 87.7131 116.883 87.7293C117.01 87.7172 117.141 87.7372 117.263 87.7884C117.304 87.806 117.345 87.8273 117.384 87.8523C117.486 87.9177 117.591 87.9794 117.697 88.0373ZM121 77.0532C121.227 77.0825 121.454 77.124 121.679 77.1776C122.018 77.2587 122.35 77.3666 122.67 77.5C122.35 77.3666 122.018 77.2587 121.679 77.1776C121.454 77.124 121.227 77.0826 121 77.0532V77.0532ZM117.875 76H55.9995C54.8949 76 53.9995 76.8954 53.9995 78C53.9995 79.1046 54.8949 80 55.9995 80H121V79.9279C121.007 79.9295 121.014 79.9312 121.021 79.9329C121.637 80.0799 122.204 80.3839 122.668 80.8152C123.131 81.2464 123.475 81.7904 123.666 82.3941C123.857 82.9977 123.888 83.6406 123.757 84.26C123.626 84.8794 123.337 85.4542 122.917 85.9286C122.498 86.403 121.963 86.7608 121.365 86.9671C120.766 87.1734 120.124 87.2212 119.502 87.1059C119.035 87.0194 118.59 86.8433 118.193 86.5889C117.35 86.0497 116.066 86.0561 115.27 87.004C114.531 87.8849 114.554 89.3582 115.681 90.1219C116.592 90.7397 117.624 91.1645 118.712 91.3662C120.07 91.6177 121.471 91.5134 122.776 91.0634C124.082 90.6134 125.249 89.8329 126.164 88.798C127.079 87.7631 127.71 86.509 127.996 85.1578C128.282 83.8066 128.214 82.4043 127.797 81.0874C127.381 79.7706 126.63 78.584 125.619 77.6431C124.608 76.7023 123.37 76.0392 122.027 75.7186C120.95 75.4616 119.835 75.4315 118.751 75.6268C118.412 75.6879 118.118 75.8196 117.875 76Z" fill="#93C7EC"/>
<path fill-rule="evenodd" clip-rule="evenodd" d="M118.197 87.0373C118.495 87.1997 118.809 87.3325 119.133 87.4335C118.693 87.2964 118.273 87.1009 117.884 86.8523C117.732 86.7549 117.553 86.7131 117.383 86.7293C117.51 86.7172 117.641 86.7372 117.763 86.7884C117.804 86.806 117.845 86.8273 117.884 86.8523C117.986 86.9177 118.091 86.9794 118.197 87.0373ZM122 76.1375C122.059 76.15 122.119 76.1634 122.179 76.1776C122.518 76.2587 122.85 76.3666 123.17 76.5C122.85 76.3666 122.518 76.2587 122.179 76.1776C122.119 76.1634 122.059 76.15 122 76.1375V76.1375ZM118.375 75H56.9995C55.8949 75 54.9995 75.8954 54.9995 77C54.9995 78.1046 55.8949 79 56.9995 79H121.765C122.286 79.1632 122.766 79.4413 123.168 79.8152C123.631 80.2464 123.975 80.7904 124.166 81.3941C124.357 81.9977 124.388 82.6406 124.257 83.26C124.126 83.8794 123.837 84.4542 123.417 84.9286C122.998 85.403 122.463 85.7608 121.865 85.9671C121.266 86.1734 120.624 86.2212 120.002 86.1059C119.535 86.0194 119.09 85.8433 118.693 85.5889C117.85 85.0497 116.566 85.0561 115.77 86.004C115.031 86.8849 115.054 88.3582 116.181 89.1219C117.092 89.7397 118.124 90.1645 119.212 90.3662C120.57 90.6177 121.971 90.5134 123.276 90.0634C124.582 89.6134 125.749 88.8329 126.664 87.798C127.579 86.7631 128.21 85.509 128.496 84.1578C128.782 82.8066 128.714 81.4043 128.297 80.0874C127.881 78.7706 127.13 77.584 126.119 76.6431C125.108 75.7023 123.87 75.0392 122.527 74.7186C121.45 74.4616 120.335 74.4315 119.251 74.6268C118.912 74.6879 118.618 74.8196 118.375 75Z" fill="#13476C"/>
<path fill-rule="evenodd" clip-rule="evenodd" d="M379.207 44.96C379.138 44.9545 379.069 44.9485 379 44.942V44.9419C380.416 45.0762 381.85 44.9776 383.245 44.6447C383.924 44.4826 384.586 44.2667 385.226 44C384.586 44.2667 383.924 44.4827 383.245 44.6448C381.918 44.9614 380.556 45.066 379.207 44.96ZM379 47.9529V48H70.9995C68.7904 48 66.9995 46.2091 66.9995 44V43C66.9995 40.7909 68.7904 39 70.9995 39H379V39.2338C379.039 39.2387 379.078 39.2442 379.117 39.2502C380.05 39.3929 381.005 39.3546 381.929 39.1341C383.161 38.8401 384.296 38.2323 385.223 37.3697C386.15 36.5071 386.838 35.4192 387.22 34.2119C387.601 33.0045 387.664 31.7189 387.402 30.4801C387.139 29.2413 386.561 28.0915 385.722 27.1427C384.883 26.1939 383.814 25.4784 382.616 25.0658C381.419 24.6532 380.136 24.5575 378.89 24.7882C377.956 24.9612 377.068 25.3134 376.273 25.8223C374.588 26.9005 372.019 26.8879 370.428 24.992C368.949 23.2303 368.996 20.2836 371.249 18.7562C373.071 17.5205 375.135 16.671 377.312 16.2677C380.028 15.7645 382.828 15.9731 385.44 16.8732C388.052 17.7733 390.386 19.3342 392.215 21.404C394.044 23.4738 395.307 25.982 395.879 28.6844C396.452 31.3868 396.315 34.1913 395.482 36.8251C394.649 39.4589 393.148 41.8321 391.125 43.7138C389.103 45.5955 386.628 46.9215 383.941 47.5628C382.318 47.9503 380.65 48.0799 379 47.9529Z" fill="#FFBF80"/>
<path fill-rule="evenodd" clip-rule="evenodd" d="M376.207 42.96C376.138 42.9545 376.069 42.9485 376 42.942V42.9419C377.416 43.0762 378.85 42.9776 380.245 42.6447C380.924 42.4826 381.586 42.2667 382.226 42C381.586 42.2667 380.924 42.4827 380.245 42.6448C378.918 42.9614 377.556 43.066 376.207 42.96ZM376 45.9529V46H67.9995C65.7904 46 63.9995 44.2091 63.9995 42V41C63.9995 38.7909 65.7904 37 67.9995 37H376V37.2338C376.039 37.2387 376.078 37.2442 376.117 37.2502C377.05 37.3929 378.005 37.3546 378.929 37.1341C380.161 36.8401 381.296 36.2323 382.223 35.3697C383.15 34.5071 383.838 33.4192 384.22 32.2119C384.601 31.0045 384.664 29.7189 384.402 28.4801C384.139 27.2413 383.561 26.0915 382.722 25.1427C381.883 24.1939 380.814 23.4784 379.616 23.0658C378.419 22.6532 377.136 22.5575 375.89 22.7882C374.956 22.9612 374.068 23.3134 373.273 23.8223C371.588 24.9005 369.019 24.8879 367.428 22.992C365.949 21.2303 365.996 18.2836 368.249 16.7562C370.071 15.5205 372.135 14.671 374.312 14.2677C377.028 13.7645 379.828 13.9731 382.44 14.8732C385.052 15.7733 387.386 17.3342 389.215 19.404C391.044 21.4738 392.307 23.982 392.879 26.6844C393.452 29.3868 393.315 32.1913 392.482 34.8251C391.649 37.4589 390.148 39.8321 388.125 41.7138C386.103 43.5955 383.628 44.9215 380.941 45.5628C379.318 45.9503 377.65 46.0799 376 45.9529Z" fill="#FF8C1A"/>
<path fill-rule="evenodd" clip-rule="evenodd" d="M11 31C9.34315 31 8 29.6569 8 28V27C8 25.3431 9.34315 24 11 24H309V24.2063C309.657 24.2905 310.327 24.2555 310.976 24.1006C311.899 23.8801 312.75 23.4242 313.446 22.7773C314.141 22.1303 314.657 21.3144 314.943 20.4089C315.23 19.5034 315.277 18.5392 315.08 17.6101C314.883 16.681 314.449 15.8186 313.82 15.107C313.191 14.3954 312.389 13.8588 311.491 13.5493C310.593 13.2399 309.63 13.1681 308.697 13.3411C307.996 13.4709 307.33 13.7351 306.733 14.1167C305.47 14.9254 303.543 14.9159 302.35 13.494C301.241 12.1727 301.275 9.96267 302.965 8.81717C304.332 7.89038 305.88 7.25324 307.513 6.95076C309.55 6.57338 311.65 6.72983 313.609 7.4049C315.567 8.07996 317.318 9.25064 318.69 10.803C320.062 12.3553 321.009 14.2365 321.438 16.2633C321.867 18.2901 321.765 20.3935 321.14 22.3688C320.515 24.3442 319.39 26.1241 317.873 27.5353C316.356 28.9466 314.5 29.9411 312.484 30.4221C311.34 30.6954 310.166 30.7976 309 30.7296V31H11Z" fill="#FFBF80"/>
<path fill-rule="evenodd" clip-rule="evenodd" d="M300.715 7.31717C302.082 6.39038 303.63 5.75324 305.263 5.45076C307.3 5.07338 309.4 5.22983 311.359 5.9049C313.317 6.57997 315.068 7.75064 316.44 9.30299C317.812 10.8553 318.759 12.7365 319.188 14.7633C319.617 16.7901 319.515 18.8935 318.89 20.8688C318.265 22.8442 317.14 24.6241 315.623 26.0353C314.106 27.4466 312.25 28.4411 310.234 28.9221C308.619 29.3076 306.946 29.3527 305.321 29.0599C305.229 29.0433 305.139 29.0233 305.052 29H8C6.34315 29 5 27.6569 5 26C5 24.3431 6.34315 23 8 23H304.58C305.222 22.69 305.947 22.5852 306.617 22.6876C307.316 22.7947 308.033 22.766 308.726 22.6006C309.649 22.3801 310.5 21.9242 311.196 21.2773C311.891 20.6303 312.407 19.8144 312.693 18.9089C312.98 18.0034 313.027 17.0392 312.83 16.1101C312.633 15.181 312.199 14.3186 311.57 13.607C310.941 12.8954 310.139 12.3588 309.241 12.0493C308.343 11.7399 307.38 11.6682 306.447 11.8412C305.746 11.9709 305.08 12.2351 304.483 12.6167C303.22 13.4254 301.293 13.4159 300.1 11.994C298.991 10.6727 299.025 8.46268 300.715 7.31717ZM306.684 26.97C306.455 26.952 306.227 26.9259 306 26.8918C306.227 26.9259 306.455 26.952 306.684 26.97Z" fill="#FF8C1A"/>
</g>
<defs>
<filter id="filter0_d_431_10193" x="0" y="0.25" width="401.227" height="96.7502" filterUnits="userSpaceOnUse" color-interpolation-filters="sRGB">
<feFlood flood-opacity="0" result="BackgroundImageFix"/>
<feColorMatrix in="SourceAlpha" type="matrix" values="0 0 0 0 0 0 0 0 0 0 0 0 0 0 0 0 0 0 127 0" result="hardAlpha"/>
<feOffset/>
<feGaussianBlur stdDeviation="2.5"/>
<feComposite in2="hardAlpha" operator="out"/>
<feColorMatrix type="matrix" values="0 0 0 0 0.0166954 0 0 0 0 0.0835437 0 0 0 0 0.112193 0 0 0 0.15 0"/>
<feBlend mode="normal" in2="BackgroundImageFix" result="effect1_dropShadow_431_10193"/>
<feBlend mode="normal" in="SourceGraphic" in2="effect1_dropShadow_431_10193" result="shape"/>
</filter>
</defs>
</svg>
