<svg width="74" height="75" viewBox="0 0 74 75" fill="none" xmlns="http://www.w3.org/2000/svg">
<path d="M12.6621 17.6368C12.6621 16.7373 13.0195 15.8746 13.6555 15.2385C14.2916 14.6025 15.1543 14.2451 16.0538 14.2451H22.8373C23.7368 14.2451 24.5995 14.6025 25.2356 15.2385C25.8717 15.8746 26.229 16.7373 26.229 17.6368V24.4203C26.229 25.3198 25.8717 26.1825 25.2356 26.8186C24.5995 27.4547 23.7368 27.812 22.8373 27.812H16.0538C15.1543 27.812 14.2916 27.4547 13.6555 26.8186C13.0195 26.1825 12.6621 25.3198 12.6621 24.4203V17.6368ZM29.6207 17.6368C29.6207 16.7373 29.9781 15.8746 30.6142 15.2385C31.2502 14.6025 32.1129 14.2451 33.0125 14.2451H39.7959C40.6955 14.2451 41.5582 14.6025 42.1942 15.2385C42.8303 15.8746 43.1877 16.7373 43.1877 17.6368V24.4203C43.1877 25.3198 42.8303 26.1825 42.1942 26.8186C41.5582 27.4547 40.6955 27.812 39.7959 27.812H33.0125C32.1129 27.812 31.2502 27.4547 30.6142 26.8186C29.9781 26.1825 29.6207 25.3198 29.6207 24.4203V17.6368ZM46.5794 17.6368C46.5794 16.7373 46.9367 15.8746 47.5728 15.2385C48.2089 14.6025 49.0716 14.2451 49.9711 14.2451H56.7546C57.6541 14.2451 58.5168 14.6025 59.1529 15.2385C59.7889 15.8746 60.1463 16.7373 60.1463 17.6368V24.4203C60.1463 25.3198 59.7889 26.1825 59.1529 26.8186C58.5168 27.4547 57.6541 27.812 56.7546 27.812H49.9711C49.0716 27.812 48.2089 27.4547 47.5728 26.8186C46.9367 26.1825 46.5794 25.3198 46.5794 24.4203V17.6368ZM12.6621 34.5955C12.6621 33.6959 13.0195 32.8332 13.6555 32.1972C14.2916 31.5611 15.1543 31.2038 16.0538 31.2038H22.8373C23.7368 31.2038 24.5995 31.5611 25.2356 32.1972C25.8717 32.8332 26.229 33.6959 26.229 34.5955V41.3789C26.229 42.2785 25.8717 43.1412 25.2356 43.7772C24.5995 44.4133 23.7368 44.7707 22.8373 44.7707H16.0538C15.1543 44.7707 14.2916 44.4133 13.6555 43.7772C13.0195 43.1412 12.6621 42.2785 12.6621 41.3789V34.5955ZM29.6207 34.5955C29.6207 33.6959 29.9781 32.8332 30.6142 32.1972C31.2502 31.5611 32.1129 31.2038 33.0125 31.2038H39.7959C40.6955 31.2038 41.5582 31.5611 42.1942 32.1972C42.8303 32.8332 43.1877 33.6959 43.1877 34.5955V41.3789C43.1877 42.2785 42.8303 43.1412 42.1942 43.7772C41.5582 44.4133 40.6955 44.7707 39.7959 44.7707H33.0125C32.1129 44.7707 31.2502 44.4133 30.6142 43.7772C29.9781 43.1412 29.6207 42.2785 29.6207 41.3789V34.5955ZM46.5794 34.5955C46.5794 33.6959 46.9367 32.8332 47.5728 32.1972C48.2089 31.5611 49.0716 31.2038 49.9711 31.2038H56.7546C57.6541 31.2038 58.5168 31.5611 59.1529 32.1972C59.7889 32.8332 60.1463 33.6959 60.1463 34.5955V41.3789C60.1463 42.2785 59.7889 43.1412 59.1529 43.7772C58.5168 44.4133 57.6541 44.7707 56.7546 44.7707H49.9711C49.0716 44.7707 48.2089 44.4133 47.5728 43.7772C46.9367 43.1412 46.5794 42.2785 46.5794 41.3789V34.5955ZM12.6621 51.5541C12.6621 50.6546 13.0195 49.7919 13.6555 49.1558C14.2916 48.5197 15.1543 48.1624 16.0538 48.1624H22.8373C23.7368 48.1624 24.5995 48.5197 25.2356 49.1558C25.8717 49.7919 26.229 50.6546 26.229 51.5541V58.3376C26.229 59.2371 25.8717 60.0998 25.2356 60.7359C24.5995 61.372 23.7368 61.7293 22.8373 61.7293H16.0538C15.1543 61.7293 14.2916 61.372 13.6555 60.7359C13.0195 60.0998 12.6621 59.2371 12.6621 58.3376V51.5541ZM29.6207 51.5541C29.6207 50.6546 29.9781 49.7919 30.6142 49.1558C31.2502 48.5197 32.1129 48.1624 33.0125 48.1624H39.7959C40.6955 48.1624 41.5582 48.5197 42.1942 49.1558C42.8303 49.7919 43.1877 50.6546 43.1877 51.5541V58.3376C43.1877 59.2371 42.8303 60.0998 42.1942 60.7359C41.5582 61.372 40.6955 61.7293 39.7959 61.7293H33.0125C32.1129 61.7293 31.2502 61.372 30.6142 60.7359C29.9781 60.0998 29.6207 59.2371 29.6207 58.3376V51.5541ZM46.5794 51.5541C46.5794 50.6546 46.9367 49.7919 47.5728 49.1558C48.2089 48.5197 49.0716 48.1624 49.9711 48.1624H56.7546C57.6541 48.1624 58.5168 48.5197 59.1529 49.1558C59.7889 49.7919 60.1463 50.6546 60.1463 51.5541V58.3376C60.1463 59.2371 59.7889 60.0998 59.1529 60.7359C58.5168 61.372 57.6541 61.7293 56.7546 61.7293H49.9711C49.0716 61.7293 48.2089 61.372 47.5728 60.7359C46.9367 60.0998 46.5794 59.2371 46.5794 58.3376V51.5541Z" fill="#0B2B41"/>
<g clip-path="url(#clip0_302_10558)">
<path d="M57.6307 17.6039L71.9801 9.31925" stroke="#E67300" stroke-width="2.49917" stroke-linecap="round" stroke-linejoin="round"/>
<path d="M62.9277 6.89355L71.9814 9.31947L69.5554 18.3731" stroke="#E67300" stroke-width="2.49917" stroke-linecap="round" stroke-linejoin="round"/>
<path d="M50.8403 15.7845L42.5557 1.43506" stroke="#E67300" stroke-width="2.49917" stroke-linecap="round" stroke-linejoin="round"/>
<path d="M51.6093 3.86097L42.5557 1.43506L40.1298 10.4887" stroke="#E67300" stroke-width="2.49917" stroke-linecap="round" stroke-linejoin="round"/>
<path d="M55.8105 24.3943L64.0952 38.7437" stroke="#E67300" stroke-width="2.49917" stroke-linecap="round" stroke-linejoin="round"/>
<path d="M55.0419 36.3175L64.0955 38.7435L66.5214 29.6898" stroke="#E67300" stroke-width="2.49917" stroke-linecap="round" stroke-linejoin="round"/>
<path d="M49.0211 22.5749L34.6717 30.8595" stroke="#E67300" stroke-width="2.49917" stroke-linecap="round" stroke-linejoin="round"/>
<path d="M43.7263 33.285L34.6727 30.859L37.0986 21.8054" stroke="#E67300" stroke-width="2.49917" stroke-linecap="round" stroke-linejoin="round"/>
</g>
<g clip-path="url(#clip1_302_10558)">
<path d="M22.5734 50.6061L30.858 36.2567" stroke="#E67300" stroke-width="2.49917" stroke-linecap="round" stroke-linejoin="round"/>
<path d="M21.8066 38.6826L30.8603 36.2567L33.2862 45.3103" stroke="#E67300" stroke-width="2.49917" stroke-linecap="round" stroke-linejoin="round"/>
<path d="M15.784 52.4258L1.43457 44.1411" stroke="#E67300" stroke-width="2.49917" stroke-linecap="round" stroke-linejoin="round"/>
<path d="M10.4882 41.7152L1.43457 44.1411L3.86048 53.1947" stroke="#E67300" stroke-width="2.49917" stroke-linecap="round" stroke-linejoin="round"/>
<path d="M24.3936 57.3965L38.743 65.6811" stroke="#E67300" stroke-width="2.49917" stroke-linecap="round" stroke-linejoin="round"/>
<path d="M29.6896 68.1073L38.7432 65.6814L36.3173 56.6278" stroke="#E67300" stroke-width="2.49917" stroke-linecap="round" stroke-linejoin="round"/>
<path d="M17.6032 59.2161L9.31852 73.5656" stroke="#E67300" stroke-width="2.49917" stroke-linecap="round" stroke-linejoin="round"/>
<path d="M18.3711 71.1392L9.31751 73.5651L6.8916 64.5115" stroke="#E67300" stroke-width="2.49917" stroke-linecap="round" stroke-linejoin="round"/>
</g>
<defs>
<clipPath id="clip0_302_10558">
<rect width="32.8055" height="32.8055" fill="white" transform="translate(41.7285) rotate(15)"/>
</clipPath>
<clipPath id="clip1_302_10558">
<rect width="32.8055" height="32.8055" fill="white" transform="translate(0 43.3125) rotate(-15)"/>
</clipPath>
</defs>
</svg>
