<svg width="60" height="75" viewBox="0 0 60 75" fill="none" xmlns="http://www.w3.org/2000/svg">
<path fill-rule="evenodd" clip-rule="evenodd" d="M12.5411 25.4124C10.7947 25.5551 9.68832 25.8279 8.80035 26.2804C7.04996 27.1722 5.62684 28.5954 4.73497 30.3458C4.28252 31.2337 4.00964 32.3401 3.86695 34.0865C3.72249 35.8547 3.72104 38.1103 3.72104 41.2669V71.0088L10.6182 64.1117C11.6649 63.0649 13.0846 62.4769 14.565 62.4769L39.8152 62.4769C42.9718 62.4769 45.2274 62.4754 46.9956 62.331C48.742 62.1883 49.8484 61.9154 50.7363 61.463C52.4867 60.5711 53.9098 59.148 54.8017 57.3976C55.2541 56.5096 55.527 55.4032 55.6697 53.6568C55.8142 51.8887 55.8156 49.6331 55.8156 46.4764V41.2669C55.8156 38.1103 55.8142 35.8547 55.6697 34.0865C55.527 32.3401 55.2541 31.2337 54.8017 30.3458C53.9098 28.5954 52.4867 27.1722 50.7363 26.2804C49.8484 25.8279 48.742 25.5551 46.9956 25.4124C45.2274 25.2679 42.9718 25.2665 39.8152 25.2665H19.7215C16.5649 25.2665 14.3092 25.2679 12.5411 25.4124ZM3.40343 71.3264C3.40338 71.3265 3.40348 71.3264 3.40343 71.3264ZM19.6389 21.5454H39.8978C42.9538 21.5454 45.3612 21.5454 47.2986 21.7037C49.2751 21.8652 50.9257 22.2006 52.4256 22.9649C54.8762 24.2135 56.8686 26.2059 58.1172 28.6564C58.8814 30.1564 59.2169 31.807 59.3784 33.7835C59.5367 35.7209 59.5367 38.1283 59.5367 41.1842V46.5591C59.5367 49.6151 59.5367 52.0225 59.3784 53.9598C59.2169 55.9364 58.8814 57.5869 58.1172 59.0869C56.8686 61.5374 54.8762 63.5298 52.4256 64.7784C50.9257 65.5427 49.2751 65.8782 47.2986 66.0397C45.3612 66.1979 42.9538 66.1979 39.8979 66.1979L14.565 66.1979C14.0715 66.1979 13.5983 66.3939 13.2494 66.7429L6.0346 73.9576C3.80768 76.1845 4.75399e-07 74.6073 4.75399e-07 71.458L2.29358e-07 41.1843C-1.25648e-05 38.1283 -2.25281e-05 35.7209 0.158268 33.7835C0.319757 31.807 0.655227 30.1564 1.41949 28.6564C2.66811 26.2059 4.66048 24.2135 7.11104 22.9649C8.61099 22.2006 10.2616 21.8652 12.2381 21.7037C14.1755 21.5454 16.5829 21.5454 19.6389 21.5454Z" fill="#0B2B41"/>
<path fill-rule="evenodd" clip-rule="evenodd" d="M14.8838 38.2905C14.8838 37.2629 15.7168 36.4299 16.7443 36.4299H42.7916C43.8191 36.4299 44.6521 37.2629 44.6521 38.2905C44.6521 39.318 43.8191 40.151 42.7916 40.151H16.7443C15.7168 40.151 14.8838 39.318 14.8838 38.2905ZM14.8838 49.4536C14.8838 48.426 15.7168 47.5931 16.7443 47.5931H35.3495C36.3771 47.5931 37.21 48.426 37.21 49.4536C37.21 50.4811 36.3771 51.3141 35.3495 51.3141H16.7443C15.7168 51.3141 14.8838 50.4811 14.8838 49.4536Z" fill="#0B2B41"/>
<path fill-rule="evenodd" clip-rule="evenodd" d="M35.238 30.2146L38.2902 33.2668L31.1834 40.3735L38.2902 47.4802L35.238 50.5324L25.0791 40.3735L35.238 30.2146Z" fill="#E67300"/>
<path fill-rule="evenodd" clip-rule="evenodd" d="M44.4525 15.8432C43.4203 16.4392 43.0666 17.7591 43.6626 18.7914C44.7991 20.7599 45.3975 22.9929 45.3975 25.266C45.3975 27.5391 44.7991 29.7721 43.6626 31.7406C42.5261 33.7091 40.8914 35.3438 38.9228 36.4803C36.9543 37.6169 34.7213 38.2152 32.4482 38.2152C31.2563 38.2152 30.29 39.1815 30.29 40.3734C30.29 41.5654 31.2563 42.5316 32.4482 42.5316C35.479 42.5316 38.4563 41.7338 41.081 40.2185C43.7058 38.7031 45.8853 36.5235 47.4007 33.8988C48.9161 31.2741 49.7139 28.2967 49.7139 25.266C49.7139 22.2352 48.9161 19.2579 47.4007 16.6332C46.8047 15.6009 45.4848 15.2472 44.4525 15.8432Z" fill="#E67300"/>
<path fill-rule="evenodd" clip-rule="evenodd" d="M29.6575 20.3176L26.6053 17.2655L33.7121 10.1587L26.6053 3.05199L29.6575 -0.000170233L39.8164 10.1587L29.6575 20.3176Z" fill="#E67300"/>
<path fill-rule="evenodd" clip-rule="evenodd" d="M20.4439 34.689C21.4762 34.093 21.8299 32.7731 21.2339 31.7408C20.0974 29.7723 19.499 27.5393 19.499 25.2662C19.499 22.9932 20.0974 20.7602 21.2339 18.7916C22.3704 16.8231 24.0051 15.1884 25.9736 14.0519C27.9422 12.9153 30.1752 12.317 32.4483 12.317C33.6402 12.317 34.6065 11.3507 34.6065 10.1588C34.6065 8.96686 33.6402 8.0006 32.4483 8.0006C29.4175 8.0006 26.4401 8.79838 23.8154 10.3138C21.1907 11.8291 19.0112 14.0087 17.4958 16.6334C15.9804 19.2581 15.1826 22.2355 15.1826 25.2662C15.1826 28.297 15.9804 31.2743 17.4958 33.8991C18.0917 34.9313 19.4117 35.285 20.4439 34.689Z" fill="#E67300"/>
</svg>
