<svg width="140" height="140" viewBox="0 0 140 140" fill="none" xmlns="http://www.w3.org/2000/svg">
<path d="M53.7277 64.3986C53.0231 69.4067 52.6377 74.831 52.6377 80.4954C52.6377 105.807 60.3325 126.327 69.8246 126.327C79.3163 126.327 87.0112 105.807 87.0112 80.4954C87.0112 74.8311 86.6258 69.4067 85.9212 64.3986" stroke="#93C7EC" stroke-width="2.20888" stroke-linecap="round" stroke-linejoin="round"/>
<path d="M56.8069 65.3022C56.2371 69.3522 55.9254 73.7388 55.9254 78.3195C55.9255 98.789 62.1482 115.383 69.8243 115.383C77.5001 115.383 83.7229 98.789 83.7229 78.3196C83.7229 73.7389 83.4112 69.3523 82.8414 65.3023" stroke="#1B6498" stroke-width="1.04598" stroke-linecap="round" stroke-linejoin="round"/>
<path d="M86.2541 63.707C103.984 66.2012 116.602 72.6158 116.602 80.136C116.602 89.8242 95.6594 97.6774 69.8251 97.6774C43.9908 97.6774 23.0479 89.8239 23.0479 80.136C23.0479 72.6161 35.6663 66.2014 53.3961 63.707" stroke="#93C7EC" stroke-width="0.824527" stroke-linecap="round" stroke-linejoin="round"/>
<path d="M89.3857 61.1179C110.457 64.1028 125.458 71.7401 125.467 80.6763C125.479 92.1885 100.602 101.495 69.904 101.465C39.2056 101.434 14.3103 92.0765 14.2988 80.5646C14.2898 71.6289 29.2763 64.0215 50.3413 61.0786" stroke="#13476C" stroke-width="2.22087" stroke-linecap="round" stroke-linejoin="round"/>
<path d="M67.5582 82.4752C68.8108 83.7278 70.8418 83.7278 72.0945 82.4752C73.3471 81.2225 73.3471 79.1915 72.0945 77.9389C70.8418 76.6862 68.8108 76.6862 67.5582 77.9389C66.3055 79.1915 66.3055 81.2225 67.5582 82.4752Z" stroke="#93C7EC" stroke-width="0.824527" stroke-linecap="round" stroke-linejoin="round"/>
<path d="M65.8436 84.1893C68.0429 86.3886 71.6087 86.3886 73.808 84.1893C76.0074 81.99 76.0074 78.4241 73.808 76.2248C71.6087 74.0254 68.0429 74.0255 65.8436 76.2248C63.6443 78.4241 63.6442 81.9899 65.8436 84.1893Z" stroke="#13476C" stroke-width="1.44765" stroke-linecap="round" stroke-linejoin="round"/>
<path d="M59.1904 51.3423C57.5176 52.5194 55.4719 50.4737 56.649 48.8008C60.9134 42.7402 61.0872 34.7021 57.0888 28.4628L56.7826 27.9842C55.6822 26.2678 57.679 24.2536 59.4053 25.3385L59.9669 25.6914C66.2233 29.6244 74.2294 29.4162 80.2733 25.1636C81.955 23.9802 84.0111 26.0363 82.8277 27.718C78.5751 33.7619 78.3669 41.768 82.2999 48.0244L82.6528 48.586C83.7377 50.3124 81.7235 52.3091 80.0071 51.2087L79.5285 50.9025C73.2892 46.9042 65.2511 47.0779 59.1904 51.3423Z" stroke="#93C7EC" stroke-width="0.824527" stroke-linecap="round" stroke-linejoin="round"/>
<path d="M62.6461 47.0557C61.5212 47.8472 60.1456 46.4716 60.9371 45.3467C63.8047 41.2712 63.9216 35.866 61.2328 31.6703L61.0269 31.3485C60.287 30.1943 61.6297 28.8398 62.7906 29.5694L63.1682 29.8067C67.3754 32.4514 72.7591 32.3114 76.8233 29.4517C77.9542 28.656 79.3368 30.0386 78.5411 31.1695C75.6814 35.2337 75.5414 40.6174 78.1862 44.8246L78.4235 45.2023C79.153 46.3631 77.7985 47.7058 76.6443 46.9659L76.3225 46.76C72.1269 44.0713 66.7216 44.1881 62.6461 47.0557Z" stroke="#EEF6FC" stroke-width="0.329376" stroke-linecap="round" stroke-linejoin="round"/>
<path d="M53.9519 57.8417C51.4483 59.6032 48.3869 56.5418 50.1485 54.0382C56.5304 44.968 56.7905 32.9385 50.8066 23.601L50.3484 22.8848C48.7016 20.3161 51.6899 17.3016 54.2734 18.9252L55.1139 19.4534C64.4771 25.3394 76.4587 25.0277 85.5038 18.6635C88.0206 16.8925 91.0976 19.9695 89.3266 22.4863C82.9624 31.5314 82.6508 43.5131 88.5368 52.8763L89.0649 53.7168C90.6886 56.3003 87.6741 59.2886 85.1054 57.6418L84.3892 57.1835C75.0517 51.1997 63.0221 51.4597 53.9519 57.8417Z" stroke="#2280C3" stroke-width="1.85612" stroke-linecap="round" stroke-linejoin="round"/>
<path d="M71.923 39.762C71.923 38.6784 69.9991 35.9954 69.9991 35.9954C69.9991 35.9954 68.0752 38.6784 68.0752 39.762C68.0752 40.2938 68.2779 40.8038 68.6387 41.1798C68.9995 41.5558 69.4888 41.7671 69.9991 41.7671C70.5093 41.7671 70.9987 41.5558 71.3595 41.1798C71.7203 40.8038 71.923 40.2938 71.923 39.762Z" fill="#BEDDF4" stroke="#BEDDF4" stroke-width="0.641299" stroke-linecap="round" stroke-linejoin="round"/>
<path d="M73.2974 39.9786C73.2974 38.121 69.9993 33.5215 69.9993 33.5215C69.9993 33.5215 66.7012 38.121 66.7012 39.9786C66.7012 40.8902 67.0487 41.7645 67.6672 42.4091C68.2857 43.0537 69.1246 43.4158 69.9993 43.4158C70.874 43.4158 71.7129 43.0537 72.3314 42.4091C72.9499 41.7645 73.2974 40.8902 73.2974 39.9786Z" stroke="#1B6498" stroke-width="0.674613" stroke-linecap="round" stroke-linejoin="round"/>
</svg>
