<svg width="75" height="66" viewBox="0 0 75 66" fill="none" xmlns="http://www.w3.org/2000/svg">
<g clip-path="url(#clip0_302_10582)">
<path d="M43.184 10.9331C45.6487 10.9331 48.0124 11.9122 49.7552 13.655C51.4979 15.3978 52.477 17.7615 52.477 20.2262C52.483 22.0555 51.9422 23.8448 50.9246 25.3647L52.477 29.5192L47.2511 28.579C45.9942 29.1919 44.6154 29.5133 43.2171 29.5192C41.8188 29.5252 40.4372 29.2153 39.1753 28.6131C37.9133 28.0109 36.8035 27.1315 35.9286 26.0408C35.0537 24.9501 34.4362 23.676 34.1222 22.3133C33.8081 20.9508 33.8056 19.5349 34.1148 18.1712C34.424 16.8076 35.037 15.5312 35.908 14.4374C36.779 13.3435 37.8856 12.4603 39.1454 11.8536C40.4052 11.2468 41.7857 10.9322 43.184 10.9331Z" stroke="#E67300" stroke-width="2.1866" stroke-linecap="round" stroke-linejoin="round"/>
<path d="M44.5184 5.48843C43.0459 3.61466 41.0258 2.24668 38.7393 1.57494C36.4527 0.903202 34.0137 0.961143 31.7616 1.74069C29.5096 2.52025 27.5567 3.9826 26.1748 5.92418C24.7929 7.86573 24.0508 10.1899 24.0518 12.573C24.045 14.8384 24.7151 17.0541 25.976 18.9361L24.0518 24.0526L28.6874 23.2217" stroke="#E67300" stroke-width="2.1866" stroke-linecap="round" stroke-linejoin="round"/>
</g>
<g clip-path="url(#clip1_302_10582)">
<path d="M28.8195 58.7097C27.9013 55.847 26.098 53.3499 23.6696 51.5783C21.2408 49.8067 18.3123 48.8521 15.3062 48.8521C12.3 48.8521 9.37153 49.8067 6.94289 51.5783C4.51427 53.3499 2.71095 55.847 1.79297 58.7097H28.8195Z" stroke="#0B2B41" stroke-width="2.1866" stroke-linecap="round" stroke-linejoin="round"/>
<path d="M15.3066 48.8702C20.4173 48.8702 24.5605 44.7271 24.5605 39.6164C24.5605 34.5056 20.4173 30.3625 15.3066 30.3625C10.1958 30.3625 6.05273 34.5056 6.05273 39.6164C6.05273 44.7271 10.1958 48.8702 15.3066 48.8702Z" stroke="#0B2B41" stroke-width="2.1866" stroke-linecap="round" stroke-linejoin="round"/>
<path d="M18.3275 43.197C18.3275 43.197 17.5597 44.7078 15.3058 44.7078C13.052 44.7078 12.2842 43.197 12.2842 43.197" stroke="#0B2B41" stroke-width="2.1866" stroke-linecap="round" stroke-linejoin="round"/>
<path d="M24.3918 37.8545C24.371 37.8546 24.3505 37.8547 24.3299 37.8547C21.64 37.8547 19.2251 36.6779 17.5717 34.8111C15.9184 36.6779 13.5034 37.8548 10.8136 37.8548C9.25157 37.8548 7.78226 37.4579 6.50098 36.7596C7.70479 33.0469 11.1916 30.3625 15.3054 30.3625C19.8137 30.3625 23.569 33.5864 24.3918 37.8545Z" stroke="#0B2B41" stroke-width="2.1866" stroke-linecap="round" stroke-linejoin="round"/>
</g>
<g clip-path="url(#clip2_302_10582)">
<path d="M73.2062 64.8308C72.288 61.968 70.4847 59.4709 68.0563 57.6994C65.6276 55.9278 62.6991 54.9731 59.6929 54.9731C56.6867 54.9731 53.7582 55.9278 51.3296 57.6994C48.901 59.4709 47.0977 61.968 46.1797 64.8308H73.2062Z" stroke="#0B2B41" stroke-width="2.1866" stroke-linecap="round" stroke-linejoin="round"/>
<path d="M59.6933 54.9913C64.804 54.9913 68.9472 50.8482 68.9472 45.7375C68.9472 40.6267 64.804 36.4836 59.6933 36.4836C54.5825 36.4836 50.4395 40.6267 50.4395 45.7375C50.4395 50.8482 54.5825 54.9913 59.6933 54.9913Z" stroke="#0B2B41" stroke-width="2.1866" stroke-linecap="round" stroke-linejoin="round"/>
<path d="M62.7142 49.3181C62.7142 49.3181 61.9464 50.8289 59.6926 50.8289C57.4387 50.8289 56.6709 49.3181 56.6709 49.3181" stroke="#0B2B41" stroke-width="2.1866" stroke-linecap="round" stroke-linejoin="round"/>
<path d="M68.7785 43.9756C68.7577 43.9757 68.7372 43.9758 68.7166 43.9758C66.0267 43.9758 63.6118 42.799 61.9584 40.9322C60.3051 42.799 57.8901 43.9759 55.2003 43.9759C53.6383 43.9759 52.169 43.579 50.8877 42.8807C52.0915 39.168 55.5783 36.4836 59.6921 36.4836C64.2004 36.4836 67.9557 39.7075 68.7785 43.9756Z" stroke="#0B2B41" stroke-width="2.1866" stroke-linecap="round" stroke-linejoin="round"/>
</g>
<defs>
<clipPath id="clip0_302_10582">
<rect width="30.6125" height="30.6125" fill="white" transform="translate(22.959)"/>
</clipPath>
<clipPath id="clip1_302_10582">
<rect width="30.6125" height="30.6125" fill="white" transform="translate(0 29.1909)"/>
</clipPath>
<clipPath id="clip2_302_10582">
<rect width="30.6125" height="30.6125" fill="white" transform="translate(44.3867 35.312)"/>
</clipPath>
</defs>
</svg>
