<svg width="24" height="18" viewBox="0 0 24 18" fill="none" xmlns="http://www.w3.org/2000/svg">
<g clip-path="url(#clip0_302_10611)">
<mask id="mask0_302_10611" style="mask-type:luminance" maskUnits="userSpaceOnUse" x="0" y="0" width="24" height="18">
<rect width="24" height="18" fill="white"/>
</mask>
<g mask="url(#mask0_302_10611)">
<path fill-rule="evenodd" clip-rule="evenodd" d="M0 0V18H24V0H0Z" fill="#F7FCFF"/>
<mask id="mask1_302_10611" style="mask-type:luminance" maskUnits="userSpaceOnUse" x="0" y="0" width="24" height="18">
<path fill-rule="evenodd" clip-rule="evenodd" d="M0 0V18H24V0H0Z" fill="white"/>
</mask>
<g mask="url(#mask1_302_10611)">
<path fill-rule="evenodd" clip-rule="evenodd" d="M0 0V6H24V0H0Z" fill="#E31D1C"/>
<path fill-rule="evenodd" clip-rule="evenodd" d="M0 12V18H24V12H0Z" fill="#3D58DB"/>
<rect x="7.55762" y="4.7981" width="8.55" height="3" fill="#E31D1C"/>
<path d="M7.84787 6.57935H15.723C15.7387 7.1284 15.7432 8.22529 15.7431 9.27125C15.7431 9.89692 15.7414 10.4992 15.7398 10.9452C15.739 11.1681 15.7381 11.352 15.7375 11.48L15.7368 11.6283L15.7366 11.6603L15.7344 11.6745C15.7308 11.6962 15.7248 11.7295 15.7157 11.7727C15.6976 11.8592 15.6674 11.9849 15.6196 12.1368C15.5238 12.4413 15.3587 12.8459 15.0827 13.2488C14.5385 14.0433 13.5514 14.8522 11.7376 14.8522C9.92547 14.8522 8.98253 14.0434 8.47988 13.2531C8.22424 12.8512 8.07886 12.4472 7.99762 12.1426C7.95713 11.9908 7.93295 11.8651 7.919 11.7785C7.91203 11.7353 7.90764 11.702 7.90506 11.6803L7.90274 11.6593L7.90272 11.658L7.90225 11.6194L7.90047 11.4722L7.8941 10.9407C7.88883 10.4976 7.8818 9.89857 7.87478 9.27524C7.86314 8.24324 7.85153 7.14686 7.84787 6.57935Z" fill="#F7FCFF" stroke="#E31D1C" stroke-width="0.5625"/>
<mask id="mask2_302_10611" style="mask-type:luminance" maskUnits="userSpaceOnUse" x="7" y="6" width="10" height="10">
<path d="M7.84787 6.57935H15.723C15.7387 7.1284 15.7432 8.22529 15.7431 9.27125C15.7431 9.89692 15.7414 10.4992 15.7398 10.9452C15.739 11.1681 15.7381 11.352 15.7375 11.48L15.7368 11.6283L15.7366 11.6603L15.7344 11.6745C15.7308 11.6962 15.7248 11.7295 15.7157 11.7727C15.6976 11.8592 15.6674 11.9849 15.6196 12.1368C15.5238 12.4413 15.3587 12.8459 15.0827 13.2488C14.5385 14.0433 13.5514 14.8522 11.7376 14.8522C9.92547 14.8522 8.98253 14.0434 8.47988 13.2531C8.22424 12.8512 8.07886 12.4472 7.99762 12.1426C7.95713 11.9908 7.93295 11.8651 7.919 11.7785C7.91203 11.7353 7.90764 11.702 7.90506 11.6803L7.90274 11.6593L7.90272 11.658L7.90225 11.6194L7.90047 11.4722L7.8941 10.9407C7.88883 10.4976 7.8818 9.89857 7.87478 9.27524C7.86314 8.24324 7.85153 7.14686 7.84787 6.57935Z" fill="white" stroke="white" stroke-width="0.5625"/>
</mask>
<g mask="url(#mask2_302_10611)">
<path fill-rule="evenodd" clip-rule="evenodd" d="M7.87402 6.78003H9.45606V8.38646H7.87402V6.78003ZM9.45606 8.38646H11.0381V9.99288H9.45606V8.38646ZM12.6201 9.99288H11.0381V11.5993H9.45606V13.2057H11.0381V14.8122H12.6201V13.2057H14.2021V14.8122H15.7842V13.2057H14.2021V11.5993H15.7842V9.99288H14.2021V8.38646H15.7842V6.78003H14.2021V8.38646H12.6201V6.78003H11.0381V8.38646H12.6201V9.99288ZM12.6201 11.5993H14.2021V9.99288H12.6201V11.5993ZM12.6201 11.5993V13.2057H11.0381V11.5993H12.6201ZM7.87402 9.99288H9.45606V11.5993H7.87402V9.99288ZM9.45606 13.2057H7.87402V14.8122H9.45606V13.2057Z" fill="#F50100"/>
</g>
<path fill-rule="evenodd" clip-rule="evenodd" d="M7.83998 6.12203C7.83998 6.12203 8.32931 5.86066 8.74667 5.72596C9.16403 5.59126 9.49391 5.51767 9.49391 5.51767L8.87296 3.2286L7.62922 2.76392L6.9248 3.92499L7.83998 6.12203Z" fill="#56C6F5" stroke="white" stroke-width="0.15"/>
<path fill-rule="evenodd" clip-rule="evenodd" d="M10.9056 5.30691C10.9056 5.30691 11.3229 5.26966 11.7614 5.27818C12.1999 5.2867 12.5708 5.28982 12.5708 5.28982L12.785 3.03271L11.8457 2.18417L10.8017 3.05265L10.9056 5.30691Z" fill="#56C6F5" stroke="white" stroke-width="0.15"/>
<path d="M9.38754 5.48831L9.40915 5.56171L9.48211 5.53863L9.48212 5.53863L9.48217 5.53861L9.48241 5.53854L9.4834 5.53823L9.48739 5.53697L9.50301 5.53212L9.56126 5.51439C9.6108 5.49952 9.67987 5.47928 9.75793 5.45778C9.91512 5.41451 10.105 5.36726 10.2456 5.34773C10.3886 5.32785 10.565 5.31352 10.7067 5.30414C10.7774 5.29947 10.839 5.29605 10.8829 5.2938L10.9344 5.2913L10.9481 5.29069L10.9516 5.29054L10.9525 5.2905L10.9527 5.29049L10.9527 5.29049L10.9528 5.29049L11.0311 5.28727L11.0244 5.20911L10.8352 3.0158L10.8322 2.9812L10.8039 2.96109L9.78186 2.23524L9.72925 2.19788L9.68445 2.24432L8.75559 3.20725L8.7253 3.23865L8.73762 3.2805L9.38754 5.48831Z" fill="#2E42A5" stroke="white" stroke-width="0.15"/>
<mask id="mask3_302_10611" style="mask-type:luminance" maskUnits="userSpaceOnUse" x="8" y="2" width="4" height="4">
<path d="M9.38754 5.48831L9.40915 5.56171L9.48211 5.53863L9.48212 5.53863L9.48217 5.53861L9.48241 5.53854L9.4834 5.53823L9.48739 5.53697L9.50301 5.53212L9.56126 5.51439C9.6108 5.49952 9.67987 5.47928 9.75793 5.45778C9.91512 5.41451 10.105 5.36726 10.2456 5.34773C10.3886 5.32785 10.565 5.31352 10.7067 5.30414C10.7774 5.29947 10.839 5.29605 10.8829 5.2938L10.9344 5.2913L10.9481 5.29069L10.9516 5.29054L10.9525 5.2905L10.9527 5.29049L10.9527 5.29049L10.9528 5.29049L11.0311 5.28727L11.0244 5.20911L10.8352 3.0158L10.8322 2.9812L10.8039 2.96109L9.78186 2.23524L9.72925 2.19788L9.68445 2.24432L8.75559 3.20725L8.7253 3.23865L8.73762 3.2805L9.38754 5.48831Z" fill="white" stroke="white" stroke-width="0.15"/>
</mask>
<g mask="url(#mask3_302_10611)">
</g>
<path d="M14.1689 5.48667L14.1485 5.56224L14.0739 5.53863L14.0739 5.53863L14.0738 5.53861L14.0736 5.53854L14.0726 5.53823L14.0686 5.53697L14.053 5.53212L13.9948 5.51439C13.9452 5.49952 13.8761 5.47928 13.7981 5.45778C13.6409 5.41451 13.451 5.36726 13.3105 5.34773C13.1674 5.32785 12.991 5.31352 12.8493 5.30414C12.7786 5.29947 12.7171 5.29605 12.6731 5.2938L12.6217 5.2913L12.6079 5.29069L12.6044 5.29054L12.6035 5.2905L12.6033 5.29049L12.6033 5.29049L12.6033 5.29049L12.5249 5.28727L12.5316 5.20911L12.7208 3.0158L12.7238 2.9812L12.7521 2.96109L13.7742 2.23524L13.8282 2.19683L13.873 2.24582L14.7487 3.20512L14.7765 3.2355L14.7658 3.27523L14.1689 5.48667Z" fill="#2E42A5" stroke="white" stroke-width="0.15"/>
<mask id="mask4_302_10611" style="mask-type:luminance" maskUnits="userSpaceOnUse" x="12" y="2" width="3" height="4">
<path d="M14.1689 5.48667L14.1485 5.56224L14.0739 5.53863L14.0739 5.53863L14.0738 5.53861L14.0736 5.53854L14.0726 5.53823L14.0686 5.53697L14.053 5.53212L13.9948 5.51439C13.9452 5.49952 13.8761 5.47928 13.7981 5.45778C13.6409 5.41451 13.451 5.36726 13.3105 5.34773C13.1674 5.32785 12.991 5.31352 12.8493 5.30414C12.7786 5.29947 12.7171 5.29605 12.6731 5.2938L12.6217 5.2913L12.6079 5.29069L12.6044 5.29054L12.6035 5.2905L12.6033 5.29049L12.6033 5.29049L12.6033 5.29049L12.5249 5.28727L12.5316 5.20911L12.7208 3.0158L12.7238 2.9812L12.7521 2.96109L13.7742 2.23524L13.8282 2.19683L13.873 2.24582L14.7487 3.20512L14.7765 3.2355L14.7658 3.27523L14.1689 5.48667Z" fill="white" stroke="white" stroke-width="0.15"/>
</mask>
<g mask="url(#mask4_302_10611)">
</g>
<path d="M15.9116 6.09474L15.8792 6.16936L15.8074 6.13103L15.8074 6.13103L15.8074 6.13103L15.8074 6.131L15.8071 6.13088L15.8062 6.13036L15.8021 6.12822L15.7862 6.11987C15.7722 6.11258 15.7518 6.10197 15.7258 6.08881C15.674 6.06246 15.6004 6.02592 15.514 5.98521C15.3406 5.90354 15.1172 5.80608 14.913 5.74018C14.706 5.67336 14.5206 5.62168 14.387 5.58671C14.3202 5.56923 14.2664 5.55594 14.2294 5.54704L14.1869 5.53701L14.176 5.53451L14.1733 5.5339L14.1727 5.53375L14.1725 5.53372L14.1725 5.53372L14.1725 5.53372L14.1725 5.53371L14.095 5.51642L14.1167 5.44001L14.7512 3.20809L14.7616 3.17161L14.7971 3.15834L16.0408 2.69366L16.099 2.67193L16.1312 2.72501L16.8356 3.88609L16.8557 3.91926L16.8403 3.95485L15.9116 6.09474Z" fill="#56C6F5" stroke="white" stroke-width="0.15"/>
<mask id="mask5_302_10611" style="mask-type:luminance" maskUnits="userSpaceOnUse" x="14" y="2" width="3" height="5">
<path d="M15.9116 6.09474L15.8792 6.16936L15.8074 6.13103L15.8074 6.13103L15.8074 6.13103L15.8074 6.131L15.8071 6.13088L15.8062 6.13036L15.8021 6.12822L15.7862 6.11987C15.7722 6.11258 15.7518 6.10197 15.7258 6.08881C15.674 6.06246 15.6004 6.02592 15.514 5.98521C15.3406 5.90354 15.1172 5.80608 14.913 5.74018C14.706 5.67336 14.5206 5.62168 14.387 5.58671C14.3202 5.56923 14.2664 5.55594 14.2294 5.54704L14.1869 5.53701L14.176 5.53451L14.1733 5.5339L14.1727 5.53375L14.1725 5.53372L14.1725 5.53372L14.1725 5.53372L14.1725 5.53371L14.095 5.51642L14.1167 5.44001L14.7512 3.20809L14.7616 3.17161L14.7971 3.15834L16.0408 2.69366L16.099 2.67193L16.1312 2.72501L16.8356 3.88609L16.8557 3.91926L16.8403 3.95485L15.9116 6.09474Z" fill="white" stroke="white" stroke-width="0.15"/>
</mask>
<g mask="url(#mask5_302_10611)">
</g>
</g>
</g>
</g>
<defs>
<clipPath id="clip0_302_10611">
<rect width="24" height="18" fill="white"/>
</clipPath>
</defs>
</svg>
