<svg width="149" height="300" viewBox="0 0 149 300" fill="none" xmlns="http://www.w3.org/2000/svg">
<path d="M124.859 180.742C133.242 188.465 141.435 197.022 144.444 207.505C145.986 212.892 146.077 218.501 146.16 224.057L146.477 245.515C146.585 252.792 146.684 260.189 144.496 267.195C142.308 274.201 137.509 280.885 130.215 283.935" fill="#1B6498"/>
<path d="M22.5244 180.742C14.1408 188.465 5.94789 197.023 2.93926 207.505C1.39764 212.893 1.30646 218.502 1.22358 224.057L0.906548 245.515C0.798801 252.792 0.699354 260.19 2.88745 267.195C5.07555 274.201 9.87444 280.885 17.1681 283.935" fill="#1B6498"/>
<path d="M131.229 284.292C138.226 281.368 143.711 274.968 146.276 266.71C148.536 259.444 148.425 251.903 148.317 244.61L148 223.152C147.917 217.584 147.832 211.828 146.232 206.248C143.151 195.508 134.815 186.739 126.266 178.865L124.44 180.846C132.702 188.455 140.746 196.888 143.642 206.989C145.145 212.223 145.225 217.799 145.3 223.189L145.617 244.647C145.721 251.729 145.824 259.05 143.698 265.906C141.369 273.393 136.446 279.186 130.184 281.803L131.229 284.292Z" fill="#0B2B41"/>
<path d="M17.143 284.292L18.1791 281.805C11.9194 279.188 6.98993 273.395 4.66507 265.908C2.53292 259.054 2.64066 251.729 2.74634 244.649L3.06337 223.191C3.14211 217.803 3.22499 212.225 4.72102 206.991C7.62191 196.89 15.6636 188.457 23.9229 180.848L22.0974 178.867C13.548 186.741 5.2121 195.51 2.13094 206.25C0.529233 211.83 0.446345 217.586 0.363462 223.153L0.0464302 244.612C-0.0613172 251.905 -0.173188 259.446 2.08743 266.712C4.66094 274.959 10.1457 281.368 17.143 284.292Z" fill="#0B2B41"/>
<path d="M87.1064 160.629C98.4431 165.024 109.364 170.421 119.739 176.762C122.814 178.627 125.956 180.709 128.005 184.118C130.402 188.125 130.906 193.351 131.279 198.316C133.816 232.157 133.995 266.134 131.815 300H15.7922C13.6123 266.134 13.7905 232.159 16.3267 198.318C16.6997 193.345 17.2032 188.127 19.6006 184.12C21.6416 180.711 24.7911 178.637 27.8661 176.764C38.2409 170.424 49.1627 165.026 60.499 160.631" fill="#2280C3"/>
<path d="M19.6527 238.756C19.5056 238.756 19.3875 229.218 19.3875 217.453C19.3875 205.688 19.5056 196.15 19.6527 196.15C19.7999 196.15 19.918 205.688 19.918 217.453C19.918 229.218 19.7999 238.756 19.6527 238.756Z" fill="#1B6498"/>
<path d="M21.9954 207.078L22.0555 213.23C22.072 214.805 22.101 215.781 22.1756 215.785C22.2502 215.789 22.3497 214.815 22.4284 213.238C22.5072 211.661 22.5569 209.479 22.5238 207.072C22.4906 204.664 22.3787 202.484 22.2544 200.909C22.1301 199.335 21.9995 198.367 21.9291 198.371C21.8586 198.375 21.8524 199.353 21.8814 200.928L21.9954 207.078Z" fill="#1B6498"/>
<path d="M126.486 289.452C125.45 286.808 124.48 284.416 123.765 282.695C123.05 280.973 122.58 279.918 122.512 279.943C122.443 279.968 122.791 281.07 123.417 282.827C124.043 284.584 124.948 286.998 125.995 289.644C127.041 292.29 128.032 294.671 128.778 296.38C129.524 298.09 130.021 299.132 130.091 299.105C130.162 299.078 129.783 297.986 129.126 296.242C128.469 294.497 127.532 292.095 126.486 289.452Z" fill="#1B6498"/>
<path d="M128.902 288.49C128.374 285.611 127.98 282.992 127.709 281.092C127.437 279.192 127.272 278.015 127.195 278.022C127.118 278.028 127.16 279.219 127.338 281.13C127.516 283.04 127.854 285.688 128.374 288.577C128.894 291.465 129.528 294.055 130.044 295.91C130.56 297.764 130.954 298.889 131.02 298.871C131.086 298.852 130.829 297.692 130.398 295.818C129.967 293.945 129.431 291.364 128.902 288.49Z" fill="#1B6498"/>
<path d="M15.0184 299.813H132.983L133.045 298.844C135.224 264.93 135.045 230.907 132.511 197.018C132.096 191.631 131.541 186.451 129.092 182.367C126.953 178.794 123.663 176.6 120.476 174.656C110.048 168.287 99.0719 162.86 87.6795 158.44L86.9335 160.374C98.2116 164.748 109.077 170.121 119.401 176.426C122.49 178.309 125.42 180.261 127.318 183.43C129.535 187.132 130.064 192.043 130.449 197.174C132.952 230.644 133.151 264.246 131.044 297.743H16.9661C14.8588 264.246 15.0578 230.644 17.5608 197.174C17.9462 192.043 18.4746 187.132 20.6917 183.43C22.5876 180.261 25.5176 178.309 28.607 176.426C38.93 170.121 49.7959 164.748 61.0742 160.374L60.3282 158.44C48.936 162.86 37.9582 168.287 27.5295 174.656C24.3427 176.6 21.0523 178.801 18.9139 182.367C16.4647 186.457 15.899 191.631 15.495 197.018C12.9567 230.909 12.7744 264.934 14.95 298.85L15.0184 299.813Z" fill="#0B2B41"/>
<path d="M59.8751 157.199C57.6062 158.503 54.0443 160.585 54.5457 163.71C54.8172 165.409 56.1205 166.807 57.6414 167.611C59.1623 168.415 60.8966 168.712 62.6019 168.948C67.8484 169.675 73.1695 169.924 78.4512 169.439C81.2837 169.178 84.2011 168.666 86.5447 167.056C88.8882 165.446 90.5106 162.485 89.7771 159.735C89.1554 157.377 85.894 158.393 84.1307 156.893" fill="#2280C3"/>
<path d="M84.1455 134.262L83.584 158.907C83.5612 159.929 83.5011 161.045 82.8194 161.808C82.3345 162.349 81.6176 162.608 80.9255 162.827C76.1992 164.317 71.2179 164.819 66.2905 164.305C64.865 164.156 63.3524 163.874 62.3225 162.877C61.1788 161.771 60.9073 160.065 60.7208 158.484C59.7014 149.792 59.4237 141.03 59.892 132.291" fill="#FFC6AD"/>
<path d="M59.4399 143.938C59.4959 143.994 59.558 144.05 59.6202 144.102C60.8013 145.096 62.5356 145.378 64.1787 145.527C69.8168 146.045 75.5026 145.546 80.9625 144.05C81.7561 143.843 82.5787 143.573 83.134 143.033C83.4303 142.74 83.6499 142.38 83.7722 141.982C83.8199 139.902 83.8654 137.822 83.9131 135.743L59.6699 133.772C59.4731 137.156 59.3964 140.544 59.4399 143.938Z" fill="#E39493"/>
<path d="M70.0158 165.531C73.8222 165.531 77.6058 164.953 81.2361 163.811C82.0297 163.561 82.929 163.233 83.5899 162.496C84.5617 161.412 84.597 159.918 84.626 158.93L85.1875 134.285L83.1154 134.237L82.5539 158.882C82.5332 159.785 82.4793 160.637 82.0545 161.112C81.7437 161.46 81.1739 161.659 80.6186 161.835C76.0269 163.277 71.1907 163.764 66.4042 163.269C65.1361 163.136 63.8515 162.904 63.0475 162.127C62.1627 161.271 61.9244 159.796 61.7545 158.36C60.7454 149.728 60.4719 141.024 60.9381 132.345L58.8661 132.233C58.3936 141.031 58.6713 149.852 59.6949 158.602C59.9021 160.411 60.2295 162.288 61.6053 163.619C62.8652 164.835 64.6264 165.167 66.1846 165.33C67.4569 165.465 68.7353 165.531 70.0158 165.531Z" fill="#0B2B41"/>
<path d="M114.555 67.8309C117.042 66.9316 120.061 67.8933 121.915 69.6587C125.365 72.9471 127.226 79.3433 125.784 83.9018C125.035 86.2244 123.433 88.1765 121.302 89.3638C118.902 90.6858 113.158 91.697 111.89 88.2366" fill="#FFC6AD"/>
<path d="M110.993 69.4087C113.137 68.6358 115.725 69.4627 117.317 70.9795C120.282 73.8058 121.875 79.303 120.632 83.2192C119.99 85.2137 118.617 86.8915 116.788 87.9143C114.727 89.0518 109.791 89.9202 108.707 86.9468" fill="#E39493"/>
<path d="M116.353 91.2596C118.477 91.2596 120.671 90.5924 121.922 89.9024C124.289 88.5873 126.067 86.4213 126.895 83.8437C128.418 79.0344 126.562 72.1676 122.751 68.5394C120.472 66.3637 117.003 65.5204 114.326 66.486L115.031 68.4358C117.227 67.6443 119.859 68.643 121.324 70.0396C124.558 73.1228 126.205 79.1567 124.919 83.22C124.254 85.2916 122.827 87.033 120.926 88.0914C119.465 88.8974 116.398 89.6247 114.44 88.8933C114.11 88.7889 113.807 88.6107 113.556 88.372C113.304 88.133 113.111 87.8401 112.99 87.5154L111.044 88.2282C111.268 88.8336 111.624 89.3819 112.087 89.8326C112.549 90.2834 113.106 90.6258 113.717 90.8348C114.564 91.1309 115.456 91.2749 116.353 91.2596Z" fill="#0B2B41"/>
<path d="M123.421 77.0312C123.235 76.3418 122.956 75.6808 122.592 75.0668C122.43 74.8018 122.25 74.5484 122.053 74.3085C121.96 74.1966 121.875 74.0847 121.78 73.9894L121.502 73.7179C121.342 73.5654 121.169 73.4268 120.986 73.3035C120.852 73.2018 120.707 73.1164 120.553 73.0486C120.298 72.9326 120.139 72.9057 120.085 72.9761C119.971 73.1253 120.344 73.5687 120.824 74.3002L121.011 74.5882C121.075 74.6877 121.131 74.7954 121.195 74.9094C121.33 75.1166 121.442 75.3735 121.572 75.6242C122.101 76.7363 122.413 77.9387 122.492 79.1675C122.492 79.4513 122.526 79.7228 122.511 79.9756C122.511 80.102 122.511 80.2263 122.511 80.3444L122.488 80.6863C122.424 81.5586 122.316 82.1367 122.488 82.203C122.569 82.2383 122.695 82.1367 122.861 81.9109C122.963 81.777 123.049 81.6318 123.116 81.4778C123.217 81.2781 123.3 81.0702 123.365 80.8562L123.475 80.4832C123.51 80.3527 123.53 80.2138 123.557 80.0688C123.613 79.7636 123.647 79.4546 123.659 79.1447C123.676 78.4327 123.596 77.7216 123.421 77.0312Z" fill="#0B2B41"/>
<path d="M120.004 77.3876C119.581 77.821 119.282 78.3598 119.138 78.9478C119.043 79.4058 119.117 79.7124 119.279 79.7642C119.44 79.816 119.668 79.6316 119.938 79.3498C120.207 79.068 120.535 78.6702 120.92 78.264C121.305 77.8579 121.678 77.5119 121.956 77.228C122.234 76.9441 122.408 76.7141 122.341 76.5484C122.275 76.3826 121.97 76.3308 121.513 76.4489C120.935 76.6224 120.415 76.9462 120.004 77.3876Z" fill="#0B2B41"/>
<path d="M24.4592 67.8309C21.9728 66.9316 18.9538 67.8933 17.0993 69.6587C13.6493 72.9471 11.7885 79.3433 13.2307 83.9018C13.9787 86.2248 15.5825 88.1769 17.7147 89.3638C20.1141 90.6858 25.8579 91.697 27.126 88.2366" fill="#FFC6AD"/>
<path d="M28.0232 69.4087C25.8786 68.6358 23.2906 69.4627 21.6993 70.9795C18.7342 73.8058 17.1407 79.303 18.384 83.2192C19.0242 85.2133 20.398 86.8911 22.2256 87.9143C24.2873 89.0518 29.223 89.9202 30.3066 86.9468" fill="#E39493"/>
<path d="M22.6607 91.2596C23.56 91.2743 24.4551 91.1291 25.3026 90.8307C25.9139 90.6216 26.4713 90.2793 26.9333 89.8284C27.3954 89.3777 27.7518 88.8295 27.9756 88.224L26.0299 87.5112C25.9097 87.8359 25.715 88.1289 25.4642 88.3678C25.2135 88.6065 24.911 88.7847 24.5795 88.8892C22.6214 89.6206 19.5568 88.8892 18.0939 88.0873C16.1918 87.0293 14.7641 85.2877 14.099 83.2158C12.8122 79.1567 14.4595 73.1207 17.694 70.0354C19.1569 68.643 21.7884 67.6422 23.9848 68.4358L24.6872 66.486C22.008 65.5204 18.5435 66.3637 16.2622 68.5394C12.4558 72.1697 10.5972 79.0344 12.1181 83.8437C12.9469 86.4213 14.7247 88.5873 17.091 89.9024C18.3405 90.5924 20.5452 91.2596 22.6607 91.2596Z" fill="#0B2B41"/>
<path d="M15.5925 77.0312C15.779 76.3418 16.0567 75.6808 16.4214 75.0668C16.583 74.8018 16.7633 74.5484 16.9601 74.3085C17.0533 74.1966 17.1383 74.0847 17.2336 73.9894L17.5113 73.7179C17.6708 73.5654 17.8449 73.4268 18.0272 73.3035C18.1619 73.2018 18.3069 73.1164 18.4603 73.0486C18.7151 72.9326 18.8747 72.9057 18.9286 72.9761C19.0425 73.1253 18.6696 73.5687 18.1888 74.3002L18.0024 74.5882C17.9381 74.6877 17.8822 74.7954 17.8179 74.9094C17.6833 75.1166 17.5714 75.3735 17.4408 75.6242C16.9125 76.7363 16.5996 77.9387 16.5208 79.1675C16.5208 79.4513 16.4877 79.7228 16.5022 79.9756C16.5022 80.102 16.5022 80.2263 16.5022 80.3444L16.525 80.6863C16.5892 81.5586 16.697 82.1367 16.525 82.203C16.4442 82.2383 16.3178 82.1367 16.152 81.9109C16.0505 81.777 15.9655 81.6318 15.8971 81.4778C15.7956 81.2781 15.7127 81.0702 15.6485 80.8562L15.5387 80.4832C15.5034 80.3527 15.4827 80.2138 15.4558 80.0688C15.3998 79.7636 15.3667 79.4546 15.3542 79.1447C15.3377 78.4327 15.4185 77.7216 15.5925 77.0312Z" fill="#0B2B41"/>
<path d="M19.0146 77.3876C19.4373 77.821 19.7357 78.3598 19.8807 78.9478C19.976 79.4058 19.9014 79.7124 19.7398 79.7642C19.5782 79.816 19.3503 79.6316 19.0809 79.3498C18.8115 79.068 18.4841 78.6702 18.0987 78.264C17.7133 77.8579 17.3403 77.5119 17.0627 77.228C16.785 76.9441 16.611 76.7141 16.6773 76.5484C16.7436 76.3826 17.0482 76.3308 17.5061 76.4489C18.0842 76.6224 18.6043 76.9462 19.0146 77.3876Z" fill="#0B2B41"/>
<path d="M118.363 40.0632C121.886 43.4096 122.205 49.2176 121.995 53.7513C121.711 59.9468 119.631 64.2795 116.591 69.613C114.882 72.6112 113.925 75.6986 113.085 79.0305L107.217 68.8049L104.501 44.3545V35.9502L118.363 40.0632Z" fill="#FFD9B3"/>
<path d="M114.34 79.2815C115.086 76.3164 116.014 73.1544 117.74 70.1251C120.589 65.1231 122.974 60.4444 123.278 53.7993C123.595 46.8827 122.303 42.1439 119.325 39.3135L117.897 40.8157C120.415 43.209 121.496 47.4235 121.213 53.704C120.929 59.8994 118.755 64.1658 115.943 69.0994C114.095 72.3443 113.115 75.6679 112.334 78.776L114.34 79.2815Z" fill="#0B2B41"/>
<path d="M24.2587 97.5348C24.4203 103.144 24.6275 108.931 26.5214 114.269C29.8222 123.593 37.9177 130.597 46.925 134.677C62.8343 141.885 78.7685 141.885 94.7296 134.677C103.733 130.597 111.832 123.587 115.133 114.269C117.027 108.931 117.232 103.146 117.396 97.5348C117.56 91.9237 117.189 86.1716 114.936 80.9583C113.708 78.1134 111.814 75.2435 111.739 72.0484C111.667 69.0211 112.568 65.9483 112.9 62.95C113.691 55.8635 112.263 48.0415 107.413 42.5982C103.269 37.9526 97.3321 35.2444 91.7002 33.0667C78.2173 28.1588 63.4373 28.1588 49.9544 33.0667C44.3225 35.2361 38.3819 37.9443 34.2419 42.5982C29.3912 48.0435 27.9635 55.8594 28.7551 62.95C29.0887 65.9483 29.9859 69.0211 29.9154 72.0484C29.8408 75.2394 27.947 78.1113 26.7182 80.9583C24.47 86.1695 24.0971 91.9299 24.2587 97.5348Z" fill="#FFC6AD"/>
<path d="M26.5207 109.327C29.8215 118.651 37.917 125.654 46.9243 129.734C62.8336 136.944 78.7678 136.944 94.7289 129.734C103.732 125.654 111.832 118.645 115.133 109.327C116.997 104.074 117.225 98.3881 117.387 92.864C117.441 94.3414 117.437 95.8188 117.387 97.2879C117.225 102.899 117.018 108.684 115.124 114.022C111.823 123.346 103.728 130.35 94.7206 134.43C78.7678 141.659 62.8336 141.659 46.916 134.43C37.9129 130.35 29.8132 123.34 26.5124 114.022C24.6185 108.684 24.4134 102.899 24.2497 97.2879C24.2062 95.8188 24.202 94.3414 24.2497 92.864C24.4279 98.3902 24.6579 104.076 26.5207 109.327Z" fill="#E39493"/>
<path d="M40.9014 81.4503C38.1766 85.558 34.536 88.9763 30.2634 91.4356C29.7392 91.7361 24.3849 94.0215 24.2254 93.4932C23.8545 92.2727 25.7608 88.5575 25.4686 87.3184C25.8395 84.7718 28.9062 82.5962 29.936 80.2092C31.1627 77.3642 33.0586 74.4944 33.1332 71.2993C33.2057 68.2741 32.3044 65.2012 31.9749 62.2029C31.1813 55.1164 32.609 47.2965 37.4617 41.8531C41.6059 37.2076 47.5423 34.4994 53.1742 32.3217C66.6571 27.4146 81.4372 27.4146 94.9201 32.3217C100.552 34.4932 103.335 37.9556 107.475 42.6012C109.447 44.8162 110.753 47.7109 111.675 50.5061C103.909 54.6088 98.4012 55.7091 89.6591 56.9067C81.4807 58.0256 73.1075 58.3737 65.0016 56.7658C65.0016 56.7658 52.7059 54.3104 48.4686 51.4199C49.4093 55.564 49.5709 60.0687 48.5431 64.2149C47.7765 67.3064 46.5395 70.2529 45.1843 73.1248C44.0323 75.5636 42.9672 78.0977 41.5582 80.3998C41.3469 80.7603 41.1272 81.1105 40.9014 81.4503Z" fill="#E39493"/>
<path d="M70.5134 140.861C78.7499 140.861 86.804 139.183 93.8594 135.99C99.6176 133.383 104.543 129.865 108.494 125.532C112.745 120.875 115.819 115.268 117.458 109.179C119.069 103.204 119.421 96.9602 118.494 90.8416C118.04 87.8433 116.807 84.8326 115.614 81.9317C114.188 78.463 112.844 75.185 112.769 72.0251C112.726 70.2038 113.067 68.2954 113.391 66.4305C113.588 65.3303 113.791 64.1927 113.915 63.0676C114.86 54.7607 112.767 47.0547 108.194 41.9139C103.911 37.1067 97.9185 34.3633 92.0795 32.113C78.3562 27.1121 63.3109 27.1121 49.5877 32.113C43.7506 34.3612 37.7562 37.1067 33.4732 41.9139C28.8939 47.0526 26.8012 54.7607 27.7315 63.0697C27.8558 64.1927 28.0589 65.3323 28.2557 66.4326C28.5873 68.2975 28.9292 70.2058 28.8774 72.0272C28.8256 74.2008 27.7895 76.3226 26.7846 78.376C26.4385 79.0846 26.078 79.8264 25.7651 80.5475C23.72 85.2843 22.657 91.1648 22.7192 97.5385C22.7876 105.738 24.7104 113.79 27.9947 119.631C31.5731 125.996 37.6836 131.417 45.6652 135.312C52.8429 138.814 61.1456 140.729 69.6763 140.845L70.5134 140.861ZM71.9742 30.4201C78.5924 30.4377 85.1526 31.6644 91.3294 34.04C96.924 36.195 102.651 38.8058 106.64 43.2856C110.828 47.9871 112.734 55.1109 111.87 62.8334C111.752 63.8902 111.563 64.9449 111.364 66.0617C111.016 68.0177 110.656 70.0401 110.703 72.0707C110.788 75.6139 112.27 79.2255 113.704 82.717C114.849 85.5081 116.035 88.3944 116.451 91.1461C117.335 96.9813 116.998 102.936 115.461 108.634C113.907 114.406 110.994 119.722 106.965 124.138C103.204 128.263 98.507 131.616 93.0057 134.104C85.9876 137.281 77.9314 138.907 69.7074 138.785C61.4834 138.663 53.4831 136.831 46.5769 133.462C41.2766 130.876 34.0638 126.21 29.8036 118.628C26.6955 113.083 24.8617 105.396 24.7954 97.5343C24.7436 91.4362 25.7382 85.8479 27.6693 81.3722C27.9657 80.6884 28.291 80.0088 28.6494 79.2898C29.7497 77.0375 30.8893 74.7064 30.9515 72.079C30.9992 70.0504 30.6386 68.0281 30.2905 66.07C30.0833 64.9532 29.903 63.8985 29.7849 62.8417C28.9209 55.1191 30.8209 47.9933 35.0148 43.2939C39.0035 38.8161 44.7307 36.2033 50.3274 34.0483C56.8564 31.5337 63.8103 30.3072 70.8056 30.4367H70.8512C71.2241 30.4272 71.5992 30.4222 71.9742 30.4222V30.4201Z" fill="#0B2B41"/>
<path d="M45.2586 46.7456C46.566 52.5857 46.0874 58.6836 43.8848 64.2483C43.1243 64.0428 42.4385 63.6267 41.906 63.0478C41.3714 62.4688 41.0129 61.7507 40.8699 60.9765C40.8098 66.4178 40.2835 71.9916 37.9297 76.8962C35.5758 81.8008 31.0918 85.9574 25.6879 86.6515C23.7899 80.3771 22.8119 73.86 22.787 67.3046C20.9221 70.7242 20.1513 74.6348 20.5844 78.5062C14.6521 62.1141 14.6376 44.744 19.1733 28.039C20.2467 24.0917 21.8173 20.1921 24.4861 17.0881C27.1549 13.9842 31.0463 11.7588 35.1365 11.8189C39.2268 11.879 43.344 14.5871 44.3572 18.551C46.3651 14.6901 49.2846 11.3773 52.861 8.89975C56.4394 6.42197 60.567 4.85424 64.8872 4.3325C66.7376 4.10664 71.9634 3.34827 73.4469 4.7925C75.2787 6.57447 72.3301 7.78456 71.0433 8.1451C69.2406 8.65069 67.3696 8.87654 66.7065 10.9341C66.9407 10.2068 70.0529 8.90762 70.7636 8.48699C72.3301 7.55871 73.909 6.647 75.5294 5.81195C78.2583 4.37104 81.1301 3.22166 84.0994 2.38268C90.3819 0.668256 97.0001 0.588482 103.322 2.15061C100.564 3.08719 97.2405 4.39259 95.0938 6.39213C100.56 6.27195 105.516 6.93916 109.482 11.2076C113.152 15.157 114.559 21.0789 113.057 26.257L111.074 27.6888C116.697 27.0278 120.593 20.1465 118.266 14.985C118.949 17.8274 118.952 20.7913 118.272 23.6346C117.592 26.4781 116.249 29.1204 114.354 31.346C123.788 30.3286 131.856 21.8642 132.418 12.3908C133.029 13.7583 132.99 15.3248 132.832 16.8146C131.666 27.2433 124.768 36.4474 116.024 42.2492C107.28 48.051 96.8468 50.8089 86.4492 52.2345C78.2707 53.3555 69.8954 53.7036 61.7916 52.0936C53.6877 50.4836 45.8532 46.8016 40.2193 40.7698" fill="#FFD9B3"/>
<g opacity="0.5">
<path opacity="0.5" d="M20.0564 49.5287C20.8334 54.2509 22.9573 58.6333 24.2482 63.2395C26.0426 69.7064 26.2 76.5182 24.7061 83.0609C25.0003 84.2668 25.3277 85.4632 25.6862 86.6497C31.0736 85.9576 35.5741 81.8011 37.93 76.8944C40.286 71.9878 40.8102 66.416 40.8703 60.9748C41.0132 61.7489 41.3738 62.4669 41.9063 63.0456C42.4409 63.6245 43.1268 64.0408 43.8872 64.2465C46.0898 58.6814 46.5685 52.5825 45.261 46.7417L40.2196 40.7618C45.8536 46.7935 53.6881 50.4756 61.794 52.0877C69.8999 53.6997 78.2648 53.3475 86.4515 52.2286C89.5596 51.8017 92.6781 51.2547 95.751 50.544C90.3222 50.1453 85.0073 48.7902 80.051 46.5408C85.5026 46.9241 90.9769 43.2109 92.6387 38.0059C90.0507 40.9172 85.6911 41.7501 81.8826 40.9379C78.0742 40.1256 74.7175 37.9127 71.6549 35.5029C72.8505 36.122 74.1828 36.4324 75.5297 36.4059C76.8745 36.3793 78.1944 36.0167 79.363 35.3512C80.5337 34.6856 81.52 33.7381 82.2307 32.5947C82.9435 31.4511 83.358 30.1482 83.4367 28.8039C76.7419 31.072 69.5995 31.6932 62.6124 30.6149C59.1065 30.0699 55.47 28.9779 53.0996 26.336C50.1759 23.0746 49.8817 18.0478 51.4793 13.9658C49.7532 14.5713 48.2012 15.592 46.9621 16.938C45.723 18.284 44.8341 19.9139 44.3741 21.6843C42.7786 19.09 40.7501 16.5621 37.9072 15.4681C33.7486 13.8726 28.8647 15.9073 25.9783 19.3014C23.0919 22.6954 21.8342 27.1628 21.0158 31.5431C20.4646 34.4894 20.075 37.4639 19.8492 40.453C19.6213 43.472 19.5632 46.5345 20.0564 49.5287Z" fill="#E6A474"/>
</g>
<path d="M24.95 87.7914L25.8182 87.6795C31.131 86.9978 36.1288 83.0381 38.8722 77.3462C40.8904 73.1419 41.5783 68.4736 41.8083 64.3584C42.3512 64.778 42.9728 65.0826 43.6379 65.2536L44.5186 65.4774L44.8543 64.6319C47.0403 59.0946 47.5852 53.0448 46.4249 47.2059C51.7087 50.5502 57.2742 52.2451 61.5965 53.1051C68.8633 54.5555 76.8034 54.5969 86.5877 53.2563C99.0657 51.5469 108.881 48.2253 116.593 43.1032C126.291 36.6694 132.745 26.881 133.86 16.9185C134.032 15.3893 134.106 13.6032 133.371 11.958L131.643 8.0853L131.392 12.3185C130.911 20.4203 124.573 27.7948 116.767 29.8399C118.617 26.9249 119.67 23.5752 119.819 20.1261C120.191 18.2531 119.98 16.3116 119.214 14.5626L117.265 15.2401C117.642 16.7606 117.805 18.3263 117.749 19.8919C117.557 20.814 117.221 21.7006 116.755 22.5193C116.158 23.5858 115.348 24.5176 114.374 25.2565C115.41 20.0598 113.862 14.3989 110.247 10.5055C106.747 6.73846 102.536 5.63197 98.2907 5.3999C100.013 4.44053 101.973 3.7091 103.662 3.13514L106.991 2.00379L103.581 1.1501C97.0869 -0.460309 90.2884 -0.378257 83.8339 1.38839C80.7942 2.24436 77.854 3.42025 75.0608 4.89639L74.8681 4.99585C74.6982 4.64256 74.4641 4.32367 74.1781 4.05513C72.6365 2.55496 68.9172 2.7891 65.1253 3.26568L64.7689 3.30919C60.6434 3.80545 56.6795 5.2215 53.1736 7.4527C49.6677 9.6841 46.7067 12.6737 44.5082 16.2016C42.7408 13.0583 39.0649 10.8453 35.1466 10.7893H34.9767C30.9383 10.7893 26.734 12.8842 23.6943 16.4191C21.2928 19.2144 19.4839 22.9275 18.1681 27.7741C15.8309 36.3814 14.7347 45.0095 14.9109 53.4179C15.0746 62.0995 16.6597 70.6956 19.6041 78.865L22.6065 87.1532L21.6078 78.3884C21.3819 76.3801 21.5 74.3485 21.9538 72.3794C22.3392 77.3198 23.2592 82.2039 24.6972 86.946L24.95 87.7914ZM41.8871 60.8049L39.8295 60.9665C39.7777 65.525 39.4151 71.4118 36.9908 76.4489C34.7115 81.1981 30.7166 84.5839 26.4232 85.479C24.72 79.5691 23.8435 73.4513 23.8207 67.3008L23.8062 63.2913L21.8771 66.8138C20.8826 68.6315 20.1801 70.5931 19.7906 72.6281C18.0562 66.3522 17.1155 59.884 16.9871 53.3744C16.8151 45.1649 17.8863 36.7337 20.1718 28.3169C21.4151 23.775 23.0727 20.325 25.2691 17.7701C27.9628 14.6455 31.6448 12.8138 35.1197 12.8614C38.9592 12.9174 42.5004 15.4764 43.352 18.8145L44.0234 21.4377L45.2666 19.0362C47.1978 15.3216 50.0054 12.1345 53.4471 9.75124C56.8888 7.36816 60.8589 5.86093 65.0155 5.36053L65.3781 5.31495C69.5636 4.78864 72.0377 4.86323 72.7277 5.53458C72.9805 5.78116 72.997 5.90756 72.997 5.90963C72.9846 5.95688 72.9618 6.00018 72.9287 6.03603C72.3526 6.35927 71.7953 6.67837 71.271 6.98918C71.1136 7.04512 70.9478 7.099 70.7717 7.14666C70.5644 7.20675 70.3427 7.26269 70.1293 7.31863C68.5069 7.73305 66.4866 8.26557 65.7303 10.6111L67.7029 11.2473C67.6863 11.3022 67.6615 11.354 67.6283 11.4006C67.9246 11.0401 69.574 10.2382 70.2785 9.89421C70.7261 9.67664 71.0804 9.50467 71.3 9.37413L72.1558 8.86854C72.8934 8.6085 73.5793 8.21687 74.1781 7.71233C74.7749 7.3808 75.3882 7.04927 76.0098 6.72809C78.6724 5.31743 81.478 4.19292 84.3768 3.37342C89.3291 2.0214 94.5072 1.7081 99.5858 2.45342C97.7002 3.26982 95.8208 4.29756 94.3932 5.62576L92.404 7.48026L95.1225 7.42016C100.674 7.29791 105.114 8.01278 108.73 11.9041C110.39 13.7292 111.572 15.9372 112.171 18.3308C112.77 20.7245 112.767 23.2292 112.161 25.6212L107.242 29.1748L111.2 28.7106C113.09 28.4672 114.861 27.6516 116.274 26.3733C115.597 27.9315 114.689 29.3789 113.581 30.6667L111.852 32.6579L114.474 32.3761C119.279 31.8581 123.895 29.5063 127.472 25.7455C128.844 24.3089 130.023 22.6983 130.975 20.9549C128.816 28.7935 123.238 36.2094 115.45 41.3772C108.003 46.319 98.4689 49.5328 86.308 51.1988C76.7578 52.5083 69.0352 52.4669 62.0006 51.0682C55.9916 49.8747 47.4671 46.9925 40.9816 40.0531L39.4669 41.4683C41.3048 43.4302 43.3645 45.1746 45.6002 46.6672L44.2554 46.9717C45.4324 52.2574 45.1029 57.7676 43.3023 62.8748C42.9355 62.6461 42.6226 62.3442 42.3781 61.9878C42.1336 61.6316 41.9679 61.2288 41.8871 60.8049Z" fill="#0B2B41"/>
<path d="M107.986 41.562C104.039 43.5885 100.527 44.5209 100.58 44.6804C100.597 44.7447 101.494 44.5934 102.903 44.1748C103.608 43.9676 104.436 43.6838 105.342 43.3294C106.247 42.9751 107.223 42.5379 108.226 42.0303C109.229 41.5226 110.151 40.9818 110.974 40.4617C111.796 39.9416 112.509 39.4257 113.092 38.9864C114.258 38.0933 114.909 37.4551 114.867 37.4054C114.755 37.279 111.939 39.5624 107.986 41.562Z" fill="#BCC1C2"/>
<path d="M101.414 42.3279C98.6908 43.3639 96.3328 43.7286 96.3556 43.8882C96.3556 43.9565 96.9772 43.9524 97.9304 43.8053C98.4111 43.7328 98.9788 43.6167 99.6025 43.4572C100.956 43.1062 102.269 42.6107 103.517 41.9798C104.091 41.6876 104.594 41.3996 105.002 41.1344C105.831 40.6102 106.277 40.2123 106.246 40.1564C106.152 40.0279 104.144 41.3147 101.414 42.3279Z" fill="#BCC1C2"/>
<path d="M24.5917 24.7486C24.0219 26.1214 23.5909 27.548 23.307 29.0067C23.0356 30.3453 22.8926 31.5637 22.7807 32.5852C22.5839 34.6303 22.5466 35.9005 22.6149 35.9005C22.6833 35.9005 22.8636 34.6573 23.1516 32.6266C23.3028 31.6175 23.4914 30.4157 23.7836 29.1041C24.0902 27.6866 24.5233 26.2996 25.0786 24.96C25.6319 23.626 26.3633 22.3716 27.2481 21.2303C27.9795 20.3026 28.8311 19.4767 29.7822 18.7749C30.5944 18.1678 31.2927 17.7243 31.7693 17.4073C32.2459 17.0903 32.507 16.9059 32.4883 16.8748C32.4697 16.8437 32.1775 16.968 31.6595 17.2312C30.9343 17.6031 30.2339 18.0182 29.5584 18.4744C28.5452 19.1568 27.6376 19.9839 26.8647 20.9298C25.9282 22.0881 25.1636 23.374 24.5917 24.7486Z" fill="#BCC1C2"/>
<path d="M28.9373 22.6434C28.2722 23.5907 27.7314 24.6185 27.3253 25.7018C27.0145 26.5306 26.8881 27.059 26.9523 27.0838C27.0166 27.1087 27.2735 26.628 27.6672 25.853C28.1603 24.8452 28.7281 23.8757 29.3663 22.9521C29.7226 22.4573 30.1184 21.9915 30.5494 21.5597C30.7566 21.3753 30.9452 21.1826 31.1482 21.0375L31.4321 20.8138L31.7077 20.6294C32.4184 20.1631 32.9302 19.9787 32.9033 19.8938C32.8929 19.8585 32.7541 19.871 32.5096 19.9269L32.3024 19.9766C32.2299 19.9994 32.1532 20.0305 32.0703 20.0616C31.8797 20.1283 31.6932 20.2102 31.515 20.3061L31.2021 20.4739L30.883 20.6812C30.6509 20.8405 30.4272 21.0135 30.2137 21.1992C29.7392 21.6353 29.3124 22.1194 28.9373 22.6434Z" fill="#BCC1C2"/>
<path d="M22.9907 49.2876C22.8435 49.2876 22.7254 47.7394 22.7254 45.8294C22.7254 43.9193 22.8435 42.3711 22.9907 42.3711C23.1378 42.3711 23.2559 43.9193 23.2559 45.8294C23.2559 47.7394 23.1378 49.2876 22.9907 49.2876Z" fill="#BCC1C2"/>
<path d="M21.5502 52.3178C21.7429 54.13 22.0433 55.929 22.4495 57.7052C22.7686 59.0686 23.0421 59.8912 23.1084 59.8746C23.2617 59.8373 22.5199 56.4702 22.0724 52.2536C21.6248 48.0369 21.6248 44.5869 21.4673 44.5869C21.3989 44.5869 21.3057 45.4468 21.2829 46.8475C21.2622 48.6747 21.3513 50.5014 21.5502 52.3178Z" fill="#BCC1C2"/>
<path d="M34.5128 76.8847C34.9914 75.9701 35.4038 75.0213 35.7436 74.046C35.8886 73.5922 36.0337 73.1653 36.1311 72.753C36.1829 72.5458 36.2409 72.3531 36.2802 72.1604L36.3921 71.6071C36.6594 70.194 36.6574 69.303 36.5993 69.2988C36.5413 69.2947 36.3921 70.1608 36.0295 71.5243L35.8866 72.0588C35.8368 72.2453 35.7705 72.4339 35.7104 72.6307C35.5965 73.0286 35.439 73.443 35.2857 73.874C34.5812 75.7705 33.6301 77.5654 32.4552 79.2116C32.1776 79.5846 31.9227 79.9451 31.6575 80.2621C31.5269 80.4217 31.4068 80.5833 31.2804 80.7284L30.9178 81.1428C29.9853 82.1995 29.3347 82.8004 29.3906 82.8605C29.4466 82.9206 30.1677 82.4109 31.1913 81.3997L31.587 80.9977C31.7238 80.8568 31.8543 80.6993 32.0014 80.5419C32.2874 80.229 32.563 79.8705 32.8572 79.5058C33.4726 78.6741 34.0258 77.798 34.5128 76.8847Z" fill="#BCC1C2"/>
<path d="M42.8651 52.7608C42.8941 51.932 42.8651 51.1301 42.8299 50.409C42.7947 49.6879 42.7035 49.0415 42.6102 48.5027C42.43 47.4252 42.2269 46.7788 42.1606 46.7912C42.001 46.8202 42.4693 49.4642 42.3367 52.7422C42.2041 56.0202 41.5659 58.6248 41.7151 58.6641C41.7793 58.6828 42.03 58.0425 42.289 56.9899C42.4196 56.4595 42.5439 55.8192 42.6475 55.1043C42.7511 54.3895 42.8319 53.5959 42.8651 52.7608Z" fill="#BCC1C2"/>
<path d="M39.7453 48.263C39.6521 47.6507 39.5195 47.0451 39.3475 46.45C39.2045 45.9649 39.0325 45.4896 38.8295 45.0265C38.4793 44.237 38.1768 43.7957 38.1167 43.8267C37.9696 43.8951 38.8626 45.8056 39.2232 48.3397C39.5837 50.8738 39.304 52.9583 39.4635 52.9811C39.5299 52.9915 39.6935 52.4818 39.8013 51.626C39.8614 51.1241 39.8924 50.619 39.8883 50.1134C39.8821 49.4943 39.8324 48.8762 39.7453 48.263Z" fill="#BCC1C2"/>
<path d="M46.1286 39.4393C45.2086 38.5937 44.3404 37.6942 43.5261 36.7456C43.1614 36.3001 42.805 35.8857 42.5046 35.4713C42.3513 35.2641 42.1958 35.0735 42.0591 34.8787L41.6675 34.3172C40.6812 32.8792 40.1673 31.9198 40.0886 31.9592C40.0554 31.9758 40.1528 32.2306 40.3579 32.6803L40.5299 33.0532C40.5962 33.1879 40.677 33.3309 40.7599 33.4842C40.9298 33.7909 41.1122 34.1473 41.3546 34.5202L41.7234 35.1087C41.854 35.3159 42.0032 35.5231 42.1503 35.7303C42.4404 36.1634 42.7905 36.5965 43.1511 37.0585C44.759 39.0355 46.6591 40.7541 48.7892 42.1537C49.2844 42.4666 49.7506 42.7753 50.2106 43.0157C50.4385 43.1421 50.654 43.2706 50.8695 43.3783L51.4911 43.6871C51.8848 43.8943 52.2578 44.0352 52.581 44.174C52.7427 44.2403 52.8939 44.3066 53.0328 44.3584L53.4223 44.4931C53.8906 44.6506 54.1537 44.721 54.1682 44.6879C54.1993 44.605 53.1944 44.1926 51.6631 43.3555L51.0664 43.0219C50.8592 42.9059 50.6519 42.7691 50.4323 42.6386C49.9889 42.3817 49.5392 42.0688 49.0606 41.7497C48.0391 41.0381 47.059 40.2667 46.1286 39.4393Z" fill="#BCC1C2"/>
<path d="M87.7234 47.8297C84.3127 48.1944 81.5258 47.811 81.5072 47.9747C81.5072 48.041 82.1827 48.2213 83.3182 48.3519C83.9833 48.4248 84.6526 48.4644 85.3219 48.47C86.965 48.4857 88.6019 48.3175 90.2078 47.9685C90.8625 47.8264 91.509 47.6515 92.1452 47.4443C93.2309 47.0858 93.865 46.7709 93.8422 46.7066C93.7883 46.5512 91.1381 47.4919 87.7234 47.8297Z" fill="#BCC1C2"/>
<path d="M83.4535 41.8975C82.7304 41.7359 82.0155 41.5324 81.3152 41.2883C80.994 41.1682 80.6936 41.0604 80.4076 40.9382C80.1217 40.8159 79.8668 40.7061 79.6306 40.5963C78.6899 40.1549 78.1283 39.8234 78.0828 39.8918C78.0372 39.9601 78.5365 40.3891 79.4586 40.9278C79.6886 41.0625 79.9435 41.2055 80.2294 41.3422C80.5154 41.479 80.8199 41.6137 81.1453 41.7566C82.5729 42.3248 84.0876 42.6511 85.623 42.7222C85.9773 42.7222 86.3109 42.745 86.6259 42.7222C86.9408 42.6994 87.2309 42.6932 87.4961 42.6663C88.557 42.5544 89.189 42.3513 89.1766 42.2892C89.1641 42.227 88.5135 42.2788 87.4754 42.2892C87.2164 42.2892 86.9305 42.2892 86.6259 42.2892C86.3213 42.2892 86.0042 42.2581 85.6541 42.2353C84.9143 42.1652 84.1808 42.0525 83.4535 41.8975Z" fill="#BCC1C2"/>
<path d="M59.6487 33.5484C58.9795 32.8497 58.364 32.1023 57.8067 31.3126C57.5601 30.9417 57.3177 30.5936 57.1229 30.2476C57.0234 30.0756 56.9157 29.914 56.8307 29.7524L56.5821 29.2841C55.9605 28.0802 55.6828 27.2804 55.5979 27.3053C55.5626 27.3156 55.5979 27.527 55.6952 27.902L55.7781 28.2128C55.8134 28.3247 55.8569 28.4449 55.9024 28.5754C55.9978 28.8324 56.0952 29.1328 56.2423 29.4457L56.466 29.943C56.5448 30.115 56.6443 30.2849 56.7375 30.4672C56.9198 30.8319 57.1519 31.1987 57.3985 31.5903C58.4925 33.2645 59.8995 34.7116 61.5426 35.8525C61.9259 36.1053 62.2865 36.3519 62.647 36.5467C62.8252 36.6461 62.9931 36.7539 63.163 36.8326L63.652 37.0709C63.9607 37.2284 64.257 37.334 64.5119 37.4356C64.6403 37.4853 64.7585 37.533 64.8703 37.5703L65.1791 37.6614C65.5521 37.7671 65.7613 37.8106 65.7717 37.7754C65.8007 37.6925 65.0071 37.39 63.8219 36.7394L63.3598 36.4783C63.2003 36.3871 63.0407 36.2711 62.8729 36.1737C62.531 35.9665 62.1912 35.7158 61.8368 35.4588C61.0619 34.8772 60.3304 34.2386 59.6487 33.5484Z" fill="#BCC1C2"/>
<path d="M105.305 13.9416C104.413 13.147 103.421 12.4712 102.355 11.9317C101.49 11.4922 100.589 11.1296 99.6609 10.848C98.08 10.3714 97.0626 10.2657 97.0522 10.3258C97.0419 10.3859 98.0199 10.6449 99.5387 11.2023C100.427 11.527 101.291 11.9149 102.125 12.3627C103.14 12.9068 104.088 13.5682 104.949 14.3332C105.799 15.1036 106.531 15.9944 107.122 16.9772C107.606 17.7801 107.979 18.6452 108.229 19.5486C108.396 20.1586 108.505 20.7829 108.554 21.4135C108.587 21.8631 108.6 22.118 108.639 22.1221C108.679 22.1262 108.73 21.8734 108.759 21.4114C108.79 20.7541 108.734 20.0958 108.592 19.4533C108.383 18.4956 108.03 17.5754 107.543 16.7244C106.949 15.6844 106.194 14.7451 105.305 13.9416Z" fill="#BCC1C2"/>
<path d="M88.8798 9.21855C88.1545 9.23658 87.4314 9.29894 86.7144 9.40483C86.1301 9.4931 85.5499 9.61555 84.9801 9.77179C84.0083 10.0432 83.4406 10.3105 83.4613 10.3727C83.5069 10.5302 85.8753 9.79666 88.888 9.75107C91.9008 9.70549 94.2961 10.3147 94.3355 10.1551C94.3541 10.0909 93.7781 9.84845 92.7939 9.61638C92.2178 9.48336 91.6356 9.38452 91.0471 9.32008C90.3281 9.24238 89.6029 9.2084 88.8798 9.21855Z" fill="#BCC1C2"/>
<path d="M87.3902 17.5504C86.3956 17.2933 85.3782 17.1385 84.3526 17.0883C83.5238 17.0461 82.6949 17.0461 81.8661 17.0883C80.453 17.1546 79.5868 17.2707 79.5868 17.3391C79.5868 17.4074 80.4633 17.4323 81.8661 17.4613C82.5685 17.4779 83.4015 17.5028 84.3194 17.5836C85.312 17.6602 86.2941 17.8237 87.2576 18.0726C88.2149 18.3189 89.1349 18.6911 89.9928 19.1791C90.6931 19.5852 91.352 20.0601 91.9591 20.5964C92.9952 21.5164 93.5443 22.2043 93.6168 22.1525C93.6437 22.1318 93.5443 21.9328 93.3143 21.6096C92.9869 21.1513 92.6201 20.7215 92.2202 20.3249C90.8962 18.982 89.2282 18.0268 87.4006 17.5628L87.3902 17.5504Z" fill="#BCC1C2"/>
<path d="M97.2818 33.9122C96.5815 33.995 95.9122 34.0365 95.3009 34.051C94.6897 34.0655 94.1385 34.051 93.6744 34.0158C92.7482 33.9619 92.17 33.8894 92.1535 33.9681C92.1369 34.0468 92.6943 34.2354 93.635 34.3825C94.1841 34.4687 94.7373 34.5184 95.2926 34.5317C96.6644 34.5692 98.0332 34.4037 99.356 34.0406C99.8939 33.8919 100.421 33.7079 100.935 33.4895C101.809 33.1123 102.298 32.7808 102.269 32.7207C102.24 32.6606 101.691 32.8595 100.806 33.1351C100.365 33.276 99.8326 33.4231 99.2379 33.5661C98.6432 33.7091 97.9801 33.8334 97.2818 33.9122Z" fill="#BCC1C2"/>
<path d="M58.7395 11.2782C57.8775 11.8264 57.0819 12.4738 56.3691 13.2073C55.8283 13.775 55.5589 14.1811 55.6107 14.2267C55.7267 14.3345 57.0611 12.9669 59.0255 11.7237C60.9898 10.4804 62.7821 9.8298 62.7324 9.67854C62.7117 9.61223 62.2309 9.67854 61.4891 9.93755C60.5236 10.2753 59.5994 10.7253 58.7395 11.2782Z" fill="#BCC1C2"/>
<path d="M50.2505 21.1181C48.5721 23.9465 47.7537 26.5055 47.8801 26.5407C48.0065 26.5759 49.0529 24.1703 50.7064 21.3875C52.3599 18.6047 53.9761 16.5264 53.8538 16.4249C53.7316 16.3234 51.9164 18.2918 50.2505 21.1181Z" fill="#BCC1C2"/>
<path d="M119.416 57.0399C119.432 56.024 119.357 55.0087 119.19 54.0064C119.099 53.5464 119.02 53.1092 118.902 52.7114C118.846 52.5042 118.8 52.3156 118.738 52.1333L118.558 51.6091C118.45 51.2734 118.313 50.9874 118.204 50.7264C118.146 50.5979 118.096 50.4777 118.044 50.372L117.889 50.084C117.698 49.7401 117.578 49.5577 117.545 49.5743C117.511 49.5909 117.569 49.8022 117.7 50.1669L117.812 50.4694L117.932 50.8237C118.013 51.0869 118.125 51.3791 118.206 51.7147L118.347 52.2327C118.396 52.413 118.429 52.6078 118.475 52.8046C118.572 53.1983 118.632 53.6335 118.709 54.0727C118.994 56.0261 118.946 58.0136 118.568 59.9512C118.471 60.3946 118.39 60.8194 118.274 61.2069C118.218 61.4016 118.175 61.5923 118.117 61.7705L117.949 62.2843C117.851 62.6159 117.727 62.9059 117.632 63.1608L117.497 63.5193L117.371 63.8156C117.221 64.1741 117.163 64.3833 117.186 64.3999C117.209 64.4165 117.348 64.2424 117.555 63.9068L117.725 63.6291C117.783 63.5255 117.839 63.4074 117.903 63.281C118.025 63.0303 118.177 62.7464 118.299 62.4169L118.506 61.901C118.577 61.7207 118.63 61.528 118.697 61.3312C118.836 60.9375 118.935 60.5024 119.047 60.0507C119.26 59.0602 119.384 58.0526 119.416 57.0399Z" fill="#BCC1C2"/>
<path d="M116.772 51.0453C116.584 50.4922 116.353 49.9545 116.082 49.4373C115.859 49.0169 115.605 48.6137 115.321 48.2314C114.834 47.5808 114.453 47.2513 114.401 47.2948C114.35 47.3383 114.609 47.7569 115.008 48.4365C115.216 48.7764 115.423 49.1887 115.645 49.6549C116.121 50.6684 116.476 51.7346 116.703 52.8314C116.805 53.337 116.88 53.797 116.925 54.1886C117.02 54.9677 117.045 55.4608 117.132 55.465C117.219 55.4691 117.311 54.9677 117.311 54.1637C117.307 53.6884 117.269 53.2139 117.195 52.7444C117.098 52.1679 116.956 51.5998 116.772 51.0453Z" fill="#BCC1C2"/>
<path d="M74.678 102.3C74.0336 102.264 73.4037 102.087 72.8359 101.782C72.3283 101.512 71.8641 101.17 71.458 100.764C70.7245 100.056 70.3722 99.3844 70.0076 99.4321C69.8397 99.4549 69.6968 99.6704 69.647 100.076C69.6056 100.647 69.7113 101.218 69.9578 101.734C70.3122 102.521 70.8592 103.204 71.5492 103.721C72.4215 104.4 73.4866 104.786 74.593 104.824C75.6975 104.861 76.7874 104.547 77.7032 103.928C78.4264 103.462 79.019 102.821 79.4272 102.064C79.7048 101.565 79.8478 101.003 79.8416 100.433C79.8188 100.018 79.6903 99.8113 79.5246 99.7657C79.1661 99.6932 78.7683 100.34 77.9892 100.996C77.554 101.374 77.065 101.684 76.5387 101.919C75.9544 102.179 75.3183 102.31 74.678 102.3Z" fill="#0B2B41"/>
<path d="M81.5403 65.1913C87.6363 63.1482 94.5943 63.8506 100.288 66.7743C101.936 67.5926 103.449 68.6568 104.776 69.9301C105.713 70.8542 106.548 72.313 105.812 73.4029C105.28 74.1944 104.126 74.3394 103.227 74.0245C102.327 73.7095 101.612 73.0258 100.877 72.4166C98.4459 70.4268 95.5993 69.007 92.5471 68.2614C89.497 67.5159 86.3164 67.4637 83.2415 68.1087C82.5908 68.2496 81.9278 68.4237 81.2689 68.3304C78.5897 67.9492 80.0049 65.701 81.3787 65.2824" fill="#FFD9B3"/>
<path opacity="0.5" d="M81.2714 66.8406C81.9303 66.9338 82.5934 66.7598 83.244 66.6189C86.319 65.9734 89.4975 66.025 92.5497 66.7697C95.6018 67.5144 98.448 68.9336 100.879 70.9226C101.613 71.5318 102.33 72.2093 103.229 72.5305C104.128 72.8517 105.28 72.7087 105.815 71.9089C105.908 71.7667 105.978 71.6109 106.022 71.4468C106.094 71.6894 106.112 71.9443 106.076 72.1946C106.04 72.4447 105.951 72.6844 105.815 72.8972C105.283 73.6888 104.128 73.8338 103.229 73.5189C102.33 73.2039 101.615 72.5201 100.879 71.9109C98.448 69.922 95.6018 68.5028 92.5497 67.7581C89.4975 67.0132 86.319 66.9618 83.244 67.6073C82.5934 67.7482 81.9303 67.9222 81.2714 67.829C79.8044 67.6218 79.5661 66.851 79.8748 66.1299C80.0655 66.4635 80.4965 66.7308 81.2714 66.8406Z" fill="#E6A474"/>
<path d="M104.151 74.7972C104.98 74.7972 105.836 74.4864 106.329 73.7612C107.274 72.3605 106.316 70.5889 105.212 69.499C103.841 68.1791 102.276 67.0776 100.571 66.2334C94.6217 63.1771 87.4337 62.572 81.3398 64.613L81.7356 65.792C87.5166 63.8547 94.3461 64.4328 100.003 67.3399C101.595 68.1273 103.057 69.1546 104.338 70.3858C104.959 70.995 105.85 72.2507 105.297 73.0691C104.93 73.6141 104.054 73.67 103.432 73.4442C102.763 73.2038 102.189 72.7169 101.567 72.2009L101.261 71.944C96.327 67.8434 89.367 66.1422 83.0969 67.5077L82.8897 67.5512C82.3365 67.6735 81.8164 67.7895 81.3356 67.7211C81.0497 67.6797 80.3825 67.5471 80.3556 67.1969C80.3245 66.7991 80.9046 66.0759 81.5387 65.8832L81.1761 64.6938C80.1401 65.0129 79.0274 66.1588 79.1144 67.2922C79.1538 67.8082 79.4729 68.7116 81.1595 68.9499C81.864 69.0514 82.552 68.8981 83.1591 68.7634L83.3518 68.7199C89.2551 67.4352 95.809 69.0348 100.457 72.8972L100.755 73.1479C101.422 73.7135 102.112 74.2958 102.993 74.6128C103.365 74.7413 103.757 74.8037 104.151 74.7972Z" fill="#0B2B41"/>
<path d="M71.2109 65.1913C65.1149 63.1482 58.1569 63.8506 52.4629 66.7743C50.8156 67.5926 49.3029 68.6568 47.9748 69.9301C47.0382 70.8542 46.2031 72.313 46.9387 73.4029C47.4712 74.1944 48.6254 74.3394 49.5247 74.0245C50.4239 73.7095 51.1388 73.0258 51.8744 72.4166C54.3049 70.4268 57.1519 69.007 60.2041 68.2614C63.2542 67.5159 66.4348 67.4637 69.5097 68.1087C70.1604 68.2496 70.8234 68.4237 71.4823 68.3304C74.1615 67.9492 72.7463 65.701 71.3725 65.2824" fill="#FFD9B3"/>
<path opacity="0.5" d="M71.4782 66.8406C70.8193 66.9338 70.1562 66.7598 69.5056 66.6189C66.4306 65.9736 63.2521 66.0254 60.1999 66.7701C57.1499 67.5148 54.3028 68.9338 51.8723 70.9226C51.1388 71.5318 50.4219 72.2093 49.5226 72.5305C48.6233 72.8517 47.4712 72.7087 46.9367 71.9089C46.8434 71.7667 46.773 71.6109 46.7294 71.4468C46.659 71.6894 46.6403 71.9443 46.6756 72.1946C46.7108 72.4447 46.7999 72.6844 46.9367 72.8972C47.4692 73.6888 48.6233 73.8338 49.5226 73.5189C50.4219 73.2039 51.1367 72.5201 51.8723 71.9109C54.3028 69.9222 57.1499 68.5032 60.1999 67.7585C63.2521 67.0138 66.4306 66.962 69.5056 67.6073C70.1562 67.7482 70.8193 67.9222 71.4782 67.829C72.9452 67.6218 73.1835 66.851 72.8748 66.1299C72.6862 66.4635 72.2552 66.7308 71.4782 66.8406Z" fill="#E6A474"/>
<path d="M48.6005 74.7978C48.9859 74.7982 49.3692 74.7323 49.7339 74.603C50.6145 74.286 51.3045 73.7038 51.9717 73.1381L52.2701 72.8874C56.9157 69.0251 63.4717 67.4233 69.375 68.7101L69.5677 68.7536C70.1748 68.8883 70.8627 69.0416 71.5672 68.9401C73.2539 68.6997 73.573 67.7984 73.6123 67.2825C73.6994 66.147 72.597 65.0032 71.5507 64.6841L71.188 65.8734C71.8221 66.0662 72.4023 66.7893 72.3712 67.1871C72.3442 67.5373 71.677 67.6699 71.3911 67.7114C70.9104 67.7797 70.3882 67.6637 69.8371 67.5415L69.6298 67.4979C63.3598 66.1345 56.3997 67.8336 51.4661 71.9342L51.1595 72.1912C50.5482 72.7071 49.9722 73.1941 49.2946 73.4344C48.673 73.6582 47.8027 73.6043 47.4297 73.0594C46.8744 72.2305 47.7716 70.9873 48.3891 70.376C49.6696 69.1448 51.1305 68.1175 52.7239 67.3301C58.3806 64.4292 65.2101 63.8449 70.9912 65.7823L71.387 64.6033C65.2951 62.5623 58.105 63.1673 52.1561 66.2236C50.4508 67.0684 48.8843 68.1705 47.5147 69.4913C46.4103 70.5812 45.4551 72.3528 46.3979 73.7535C46.9159 74.4849 47.7634 74.7978 48.6005 74.7978Z" fill="#0B2B41"/>
<path d="M31.0797 111.742C31.5377 113.176 32.0764 114.584 32.6897 115.959C33.1891 117.098 33.8004 118.184 34.5173 119.2C35.0063 119.888 35.5823 120.508 36.235 121.044C36.4132 121.189 36.6039 121.318 36.8049 121.429C36.9458 121.504 37.0287 121.529 37.0515 121.5C37.1592 121.371 36.177 120.534 35.1431 118.787C34.5463 117.757 34.0262 116.684 33.589 115.576C33.0834 114.318 32.5696 112.913 32.0909 111.431C30.166 105.454 29.7453 100.323 29.4325 100.348C29.2978 100.348 29.2253 101.655 29.4159 103.742C29.6894 106.46 30.2468 109.141 31.0797 111.742Z" fill="#FCFDFD"/>
<path d="M117.46 35.6088C116.051 37.1048 114.721 38.1636 114.878 38.4226C114.955 38.5428 115.398 38.4226 116.03 38.0787C117.659 37.1247 118.985 35.7298 119.855 34.0547C120.172 33.4062 120.27 32.9565 120.141 32.8881C119.872 32.7452 118.882 34.1252 117.46 35.6088Z" fill="#FCFDFD"/>
<path d="M69.3509 48.4021C64.867 47.8448 61.3963 46.5269 61.2699 46.8191C61.216 46.9455 62.022 47.4407 63.4414 48.0043C63.7957 48.1431 64.1873 48.2903 64.6142 48.4187C65.041 48.5472 65.501 48.6902 65.988 48.8228C68.1098 49.3725 70.2916 49.651 72.4839 49.6516C72.9874 49.6516 73.4681 49.6516 73.9136 49.6081C74.3591 49.5646 74.7756 49.5438 75.1569 49.5003C76.6695 49.3159 77.577 49.0383 77.5563 48.9036C77.5273 48.599 73.8307 48.9989 69.3509 48.4021Z" fill="#FCFDFD"/>
<path d="M83.2851 6.67642C81.4264 7.48536 79.6486 8.47062 77.9785 9.61876C76.7042 10.4994 75.981 11.1334 76.0577 11.2536C76.1344 11.3738 77.0046 10.9677 78.3639 10.2611C79.7232 9.55452 81.5818 8.56407 83.7016 7.65029C84.7625 7.19858 85.7902 6.82146 86.7371 6.50651C87.2137 6.36561 87.6633 6.21435 88.0943 6.10868C88.3015 6.05273 88.5087 5.99057 88.7159 5.94291L89.2941 5.8103C90.7673 5.4767 91.7121 5.35444 91.708 5.18868C91.708 5.11616 91.4656 5.06021 91.0284 5.02291L90.6637 4.99805C90.5311 4.99805 90.386 4.99805 90.2306 4.99805C89.8784 5.00157 89.524 5.02291 89.1739 5.06228L88.5522 5.13273C88.345 5.16174 88.1213 5.20525 87.8933 5.24462C87.4354 5.31715 86.9609 5.44147 86.4553 5.56372C85.3737 5.86231 84.3149 6.23403 83.2851 6.67642Z" fill="#FCFDFD"/>
<path d="M56.8316 45.5989C56.0815 45.0514 55.6132 44.4165 55.7852 44.1809C55.9592 43.9454 56.7052 44.1981 57.4553 44.7456C58.2033 45.293 58.6716 45.9279 58.4996 46.1635C58.3276 46.3991 57.5816 46.1463 56.8316 45.5989Z" fill="#FCFDFD"/>
<path d="M72.662 11.9822C71.8601 12.5251 71.4332 13.2255 71.6259 13.443C71.8186 13.6606 72.519 13.356 73.2546 12.8567C73.9901 12.3573 74.531 11.8206 74.4004 11.5575C74.2699 11.2943 73.4618 11.4373 72.662 11.9822Z" fill="#FCFDFD"/>
<path d="M49.4481 16.0625C48.8741 16.8036 48.3623 17.5908 47.9168 18.4163C47.722 18.8017 47.5335 19.1664 47.3884 19.5207C47.3139 19.6969 47.2372 19.8668 47.1812 20.0325L47.0113 20.5153C46.5969 21.7586 46.5327 22.5625 46.6612 22.5978C46.7896 22.633 47.1315 21.9181 47.6972 20.8054L47.921 20.3703C47.9976 20.219 48.0909 20.0678 48.1779 19.9061C48.3478 19.5829 48.555 19.2514 48.7643 18.8991C49.6926 17.3846 50.7908 15.9823 52.0402 14.7198C52.3324 14.4338 52.6059 14.152 52.869 13.9096C53.0037 13.7873 53.1301 13.6609 53.2586 13.5491L53.6274 13.2279C54.5723 12.4115 55.198 11.9266 55.1193 11.7919C55.0406 11.6573 54.2905 11.9328 53.1799 12.6208L52.753 12.9005C52.6059 13 52.4609 13.1077 52.3055 13.2279C51.9946 13.4517 51.6838 13.7231 51.3585 14.0049C50.6664 14.6369 50.0262 15.3252 49.4481 16.0625Z" fill="#FCFDFD"/>
<path d="M18.9452 50.8905C18.997 52.543 19.1793 54.1891 19.486 55.8138C19.6476 56.5576 19.7906 57.2642 19.9853 57.9169C20.0786 58.2422 20.1573 58.5593 20.2568 58.8576L20.5489 59.7113C20.7251 60.2584 20.9406 60.7329 21.1167 61.1618C21.2079 61.369 21.2887 61.5762 21.3715 61.742L21.6181 62.2165C21.9207 62.7821 22.1196 63.0784 22.1859 63.0453C22.2522 63.0121 22.1859 62.664 21.9994 62.0569L21.8419 61.5555L21.672 60.9546C21.5518 60.5236 21.3923 60.0408 21.2576 59.5041L21.0379 58.6525C20.9613 58.3562 20.9053 58.0433 20.8307 57.7221C20.6774 57.0819 20.5697 56.3857 20.4391 55.6501C19.9315 52.4829 19.8465 49.2621 20.1905 46.073C20.2837 45.3395 20.3542 44.6391 20.4743 44.0009C20.5303 43.6777 20.5717 43.3607 20.6318 43.0602L20.8079 42.1982C20.9074 41.645 21.0421 41.1622 21.1395 40.7188L21.2783 40.1096L21.4089 39.5999C21.5601 38.9782 21.616 38.6301 21.5435 38.6032C21.471 38.5763 21.2928 38.8829 21.0214 39.4652L20.7997 39.9521C20.7251 40.1324 20.6546 40.3313 20.5738 40.5447C20.4205 40.9736 20.2319 41.4585 20.0827 42.0138L19.8361 42.882C19.7533 43.1845 19.6911 43.5036 19.6144 43.8352C19.4528 44.4941 19.3471 45.2089 19.2249 45.9611C19.0052 47.5945 18.912 49.2426 18.9452 50.8905Z" fill="#FCFDFD"/>
<path d="M75.4199 150.556C75.4199 149.912 75.3184 149.269 75.1174 148.658C75.0262 148.393 74.9123 148.136 74.7776 147.889C74.7134 147.775 74.6574 147.661 74.589 147.56L74.3818 147.276C74.2637 147.114 74.129 146.965 73.9798 146.833C73.9156 146.773 73.8576 146.715 73.7975 146.669C73.7374 146.623 73.6773 146.586 73.6235 146.553C73.4163 146.422 73.2733 146.379 73.2235 146.433C73.1137 146.551 73.4307 146.967 73.7436 147.676L73.8659 147.952C73.9073 148.047 73.9363 148.159 73.9757 148.258C74.0565 148.482 74.127 148.71 74.1829 148.942C74.4336 150.003 74.4233 151.109 74.1497 152.166C74.0897 152.396 74.0171 152.622 73.9322 152.846C73.8908 152.949 73.8597 153.053 73.8161 153.15L73.6877 153.424C73.352 154.118 73.037 154.526 73.1427 154.646C73.1904 154.7 73.3292 154.663 73.5447 154.535C73.5986 154.501 73.6566 154.464 73.7208 154.423C73.7809 154.377 73.8389 154.321 73.9053 154.263C74.0586 154.133 74.1974 153.985 74.3197 153.828L74.5269 153.548C74.5973 153.449 74.6553 153.341 74.7237 153.223C74.8625 152.978 74.9827 152.724 75.0801 152.46C75.2935 151.847 75.4096 151.205 75.4199 150.556Z" fill="#BCC1C2"/>
<path d="M72.8874 170.724C74.8206 170.724 76.7083 170.639 78.5462 170.471C81.3186 170.216 84.5075 169.711 87.1307 167.91C90.0669 165.896 91.567 162.423 90.7776 159.469C90.243 157.469 88.4569 157.135 87.0209 156.868C86.1507 156.706 85.3301 156.553 84.8017 156.104L83.4591 157.682C84.4081 158.491 85.5954 158.718 86.6417 158.905C88.0466 159.166 88.5936 159.319 88.7739 160.001C89.3955 162.367 87.8353 164.91 85.9559 166.199C83.7243 167.73 80.8607 168.173 78.3535 168.405C73.5276 168.849 68.275 168.687 62.7405 167.921C61.1678 167.703 59.5143 167.429 58.1218 166.694C56.7294 165.958 55.7701 164.788 55.5628 163.544C55.2002 161.282 57.8628 159.545 60.3866 158.097L59.3506 156.3C57.0941 157.595 52.894 160.007 53.5136 163.872C53.814 165.737 55.1712 167.481 57.1501 168.526C58.8409 169.419 60.6954 169.729 62.4525 169.976C65.9087 170.465 69.3959 170.714 72.8874 170.724Z" fill="#0B2B41"/>
<path d="M86.6438 161.149C85.5891 160.372 84.5717 160.043 84.493 160.198C84.4142 160.353 85.27 160.919 86.2708 161.648C87.2716 162.378 88.0652 163.028 88.1957 162.908C88.3263 162.788 87.7026 161.922 86.6438 161.149Z" fill="#0B2B41"/>
<path d="M85.9523 164.418C85.6311 163.832 85.2167 163.301 84.7277 162.845C84.3465 162.501 84.0605 162.354 84.0046 162.414C83.8823 162.549 84.6966 163.45 85.3991 164.725C86.1015 165.999 86.4351 167.164 86.6237 167.13C86.7065 167.114 86.7293 166.793 86.6402 166.289C86.5118 165.632 86.2797 165 85.9523 164.418Z" fill="#0B2B41"/>
<path d="M83.5901 165.697C83.4699 164.209 82.9685 163.093 82.8048 163.146C82.6411 163.2 82.8504 164.34 82.9623 165.749C83.0741 167.158 83.0576 168.318 83.2358 168.341C83.414 168.364 83.7165 167.185 83.5901 165.697Z" fill="#0B2B41"/>
<path d="M79.6421 166.375C79.8493 167.571 79.8617 168.573 80.042 168.594C80.1269 168.594 80.2326 168.354 80.2968 167.931C80.4357 166.825 80.2513 165.699 79.7664 164.695C79.5716 164.315 79.3914 164.112 79.3126 164.147C79.1489 164.22 79.4514 165.177 79.6421 166.375Z" fill="#0B2B41"/>
<path d="M75.8511 168.347C75.677 168.347 75.5361 167.462 75.5361 166.37C75.5361 165.278 75.677 164.394 75.8511 164.394C76.0251 164.394 76.166 165.278 76.166 166.37C76.166 167.462 76.0251 168.347 75.8511 168.347Z" fill="#0B2B41"/>
<path d="M71.9348 168.339C71.7607 168.329 71.6799 167.434 71.7545 166.342C71.8291 165.252 72.0301 164.375 72.2021 164.388C72.3762 164.4 72.457 165.293 72.3824 166.385C72.3078 167.477 72.1068 168.352 71.9348 168.339Z" fill="#0B2B41"/>
<path d="M67.2618 168.345C67.094 168.299 67.1831 167.435 67.4608 166.414C67.7363 165.392 68.099 164.601 68.2668 164.646C68.4346 164.692 68.3455 165.558 68.0679 166.58C67.7902 167.601 67.4297 168.391 67.2618 168.345Z" fill="#0B2B41"/>
<path d="M63.4953 168.337C63.3357 168.268 63.4808 167.551 63.8227 166.733C64.1625 165.914 64.5707 165.303 64.7302 165.371C64.8919 165.438 64.7447 166.157 64.4029 166.975C64.063 167.794 63.6569 168.403 63.4953 168.337Z" fill="#0B2B41"/>
<path d="M60.5562 165.763C59.344 166.895 58.1961 167.628 58.2769 167.798C58.3163 167.873 58.6623 167.779 59.17 167.518C60.4858 166.81 61.5984 165.78 62.4045 164.522C62.7029 164.035 62.8189 163.693 62.7505 163.652C62.6075 163.544 61.7787 164.64 60.5562 165.763Z" fill="#0B2B41"/>
<path d="M58.4633 162.86C57.765 163.076 57.0895 163.353 56.441 163.689C55.9437 163.958 55.6743 164.194 55.7137 164.269C55.753 164.344 56.0887 164.257 56.6129 164.101C57.1372 163.946 57.8562 163.716 58.6539 163.459C60.2453 162.943 61.5382 162.543 61.5113 162.375C61.4844 162.207 60.0878 162.334 58.4633 162.86Z" fill="#0B2B41"/>
<path d="M55.8404 161.644C55.8134 161.472 56.8951 161.157 58.2564 160.942C59.6198 160.726 60.745 160.689 60.7719 160.861C60.8009 161.033 59.7172 161.348 58.3559 161.564C56.9945 161.781 55.8673 161.816 55.8404 161.644Z" fill="#0B2B41"/>
<path d="M140.703 205.447C140.233 204.357 139.707 203.292 139.126 202.256C138.85 201.784 138.591 201.332 138.324 200.926C138.057 200.52 137.81 200.141 137.57 199.803C136.61 198.454 135.912 197.708 135.86 197.748C135.808 197.787 136.391 198.624 137.259 200.01C137.466 200.356 137.713 200.738 137.949 201.154C138.185 201.571 138.438 202.018 138.699 202.491C139.202 203.444 139.735 204.509 140.218 205.653C140.701 206.796 141.107 207.913 141.444 208.939C141.604 209.455 141.764 209.942 141.888 210.406C142.012 210.87 142.134 211.301 142.234 211.697C142.632 213.282 142.814 214.283 142.895 214.272C142.976 214.262 142.905 213.236 142.599 211.616C142.52 211.202 142.431 210.766 142.311 210.294C142.19 209.822 142.058 209.32 141.909 208.794C141.566 207.658 141.163 206.541 140.703 205.447Z" fill="#BCC1C2"/>
<path d="M141.334 214.55C141.56 216.172 141.66 217.658 141.749 218.741C141.838 219.825 141.917 220.49 141.991 220.488C142.066 220.486 142.116 219.815 142.124 218.727C142.136 217.305 142.048 215.884 141.859 214.475C141.747 213.696 141.59 212.923 141.388 212.163C141.285 211.814 141.194 211.481 141.08 211.178C141.026 211.027 140.976 210.878 140.92 210.739L140.754 210.341C140.315 209.332 139.913 208.777 139.859 208.808C139.805 208.839 140.066 209.456 140.404 210.466L140.535 210.865C140.578 211.004 140.617 211.151 140.661 211.303C140.754 211.603 140.827 211.924 140.916 212.274C141.073 212.973 141.218 213.739 141.334 214.55Z" fill="#BCC1C2"/>
<path d="M124.803 184.364C124.223 183.536 123.575 182.757 122.866 182.038C122.53 181.714 122.215 181.404 121.892 181.142C121.732 181.01 121.585 180.877 121.432 180.761L120.989 180.432C119.847 179.603 119.047 179.259 119.018 179.311C118.989 179.363 119.7 179.847 120.759 180.726L121.173 181.074C121.316 181.196 121.453 181.333 121.602 181.47C121.904 181.737 122.199 182.052 122.516 182.375C123.867 183.807 124.992 185.436 125.852 187.207C126.04 187.622 126.231 188.007 126.374 188.384C126.449 188.571 126.529 188.749 126.591 188.927L126.772 189.435C127.219 190.736 127.393 191.579 127.478 191.565C127.563 191.55 127.493 190.684 127.128 189.325L126.977 188.795C126.923 188.61 126.85 188.424 126.782 188.229C126.654 187.835 126.473 187.431 126.291 187.002C125.869 186.082 125.372 185.2 124.803 184.364Z" fill="#BCC1C2"/>
<path d="M118.579 180.966C117.901 180.544 117.199 180.16 116.475 179.823C115.885 179.547 115.279 179.307 114.66 179.102C113.604 178.755 112.922 178.65 112.903 178.714C112.853 178.872 115.487 179.626 118.291 181.408C121.094 183.19 122.934 185.22 123.056 185.106C123.106 185.063 122.717 184.485 121.948 183.689C121.495 183.219 121.017 182.777 120.514 182.363C119.897 181.859 119.251 181.393 118.579 180.966Z" fill="#BCC1C2"/>
<path d="M20.8661 289.364C19.9585 287.502 19.2644 285.541 18.794 283.523C18.4293 281.971 18.3029 280.985 18.2201 280.993C18.1372 281.002 18.1517 282.002 18.4273 283.598C18.7982 285.68 19.4612 287.698 20.3937 289.596C20.8847 290.664 21.5188 291.658 22.2772 292.555C22.9091 293.297 23.7007 293.886 24.5917 294.281C25.1905 294.549 25.8411 294.683 26.4959 294.677C26.9579 294.663 27.2004 294.58 27.1962 294.549C27.1921 294.518 26.9414 294.52 26.5042 294.472C25.8908 294.402 25.2962 294.223 24.7471 293.944C23.9348 293.527 23.22 292.947 22.6439 292.238C21.9353 291.356 21.3385 290.392 20.8661 289.364Z" fill="#BCC1C2"/>
<path d="M20.7379 282.937C20.2054 279.854 20.5079 277.299 20.3442 277.282C20.2779 277.282 20.1163 277.904 20.0293 278.94C19.9795 279.551 19.9671 280.164 19.9899 280.778C20.0438 282.282 20.2945 283.772 20.7338 285.212C20.912 285.798 21.1254 286.374 21.3699 286.936C21.7843 287.893 22.1511 288.434 22.2091 288.405C22.3583 288.343 21.2394 286.024 20.7379 282.937Z" fill="#BCC1C2"/>
<path d="M7.52237 207.09C6.45111 209.674 5.94345 212.211 5.95588 214.048C5.95588 214.278 5.95588 214.496 5.95588 214.703C5.95588 214.91 5.9849 215.105 5.99733 215.285L6.04084 215.791C6.05327 215.946 6.08849 216.085 6.10713 216.205C6.20038 216.709 6.26876 216.982 6.31434 216.976C6.40966 216.964 6.22939 215.847 6.33921 214.055L6.35787 213.711C6.35787 213.595 6.3848 213.474 6.3993 213.354L6.48841 212.598C6.5858 212.08 6.6666 211.523 6.81786 210.94C7.12246 209.689 7.52445 208.464 8.01967 207.277C8.52111 206.088 9.08469 204.923 9.70631 203.792C10.2741 202.741 10.8294 201.819 11.2997 201.048C11.538 200.665 11.7473 200.309 11.9421 200.012C12.1016 199.759 12.2902 199.525 12.4995 199.312C12.8517 198.972 13.1211 198.898 13.1211 198.85C13.1211 198.802 12.8041 198.833 12.371 199.154C12.1224 199.353 11.8986 199.583 11.7079 199.838C11.4821 200.128 11.2542 200.46 10.9931 200.841C10.4792 201.591 9.88453 202.499 9.28777 203.551C8.62471 204.693 8.03417 205.874 7.52237 207.09Z" fill="#BCC1C2"/>
<path d="M7.77257 213.589C7.49077 214.898 7.32708 216.228 7.28149 217.567C7.25456 218.603 7.32087 219.225 7.38925 219.225C7.54879 219.225 7.63582 216.711 8.29059 213.696C8.94536 210.682 9.87573 208.346 9.72861 208.284C9.66645 208.257 9.34528 208.808 8.95159 209.755C8.44601 210.994 8.05023 212.277 7.77257 213.589Z" fill="#BCC1C2"/>
<path d="M39.0844 173.965C37.5905 174.76 36.1836 175.531 34.8927 176.244C33.7385 176.866 32.6196 177.552 31.5401 178.3C30.8066 178.807 30.1248 179.385 29.5032 180.028C29.0743 180.492 28.8816 180.792 28.9355 180.842C29.0494 180.954 30.0565 180.03 31.9462 178.927C32.8869 178.37 34.0452 177.767 35.3506 177.104C36.656 176.441 38.0878 175.693 39.5817 174.897C45.5576 171.715 50.2902 168.923 50.1493 168.667C50.0084 168.41 45.0603 170.78 39.0844 173.965Z" fill="#FCFDFD"/>
<path d="M22.5983 186.662C22.2626 187.276 21.987 187.918 21.7694 188.581C21.6762 188.89 21.5871 189.182 21.5312 189.462C21.4711 189.719 21.4255 189.98 21.3944 190.243C21.2763 191.209 21.3716 191.81 21.5084 191.822C21.6451 191.834 21.8316 191.275 22.13 190.409C22.2046 190.202 22.2812 189.957 22.3807 189.706C22.4802 189.456 22.5879 189.192 22.6915 188.917C22.9277 188.368 23.2054 187.777 23.539 187.176C23.8726 186.575 24.2352 186.031 24.575 185.542C24.7532 185.303 24.9169 185.069 25.0847 184.862C25.2526 184.655 25.4059 184.447 25.551 184.282C26.1332 183.579 26.5248 183.14 26.4316 183.018C26.3383 182.895 25.7872 183.142 25.0267 183.749C24.8195 183.913 24.6227 184.089 24.4341 184.275C24.2269 184.47 24.0197 184.69 23.8125 184.941C23.3546 185.475 22.9484 186.051 22.5983 186.662Z" fill="#FCFDFD"/>
<path d="M9.08248 264.785C7.60717 259.456 7.44346 254.922 7.12229 254.931C6.98553 254.931 6.85084 256.074 6.91508 257.925L6.95239 258.65C6.96689 258.903 6.99589 259.164 7.02076 259.435C7.06427 259.978 7.14715 260.554 7.22796 261.161C7.6258 263.795 8.32823 266.373 9.32282 268.843C9.55903 269.408 9.78074 269.947 10.019 270.436C10.1351 270.683 10.2449 270.921 10.3588 271.147L10.6945 271.791C11.571 273.424 12.2672 274.338 12.3853 274.278C12.6713 274.114 10.5163 270.127 9.08248 264.785Z" fill="#FCFDFD"/>
<path d="M84.2487 79.4185C84.2466 80.6514 84.7087 81.8399 85.5417 82.7483C86.0037 82.2409 86.5673 81.8356 87.1952 81.5581C87.823 81.2809 88.5026 81.1375 89.1885 81.1375C89.8743 81.1375 90.554 81.2809 91.1818 81.5581C91.8096 81.8356 92.3732 82.2409 92.8353 82.7483C93.3761 82.1555 93.7657 81.4396 93.9687 80.6626C94.1718 79.8854 94.1821 79.0706 93.9977 78.2888C93.8154 77.507 93.4445 76.7816 92.9161 76.1755C92.3898 75.5695 91.7226 75.101 90.9746 74.8107C90.2266 74.5204 89.4185 74.417 88.6207 74.5094C87.823 74.6018 87.0584 74.8873 86.3974 75.3411C85.7344 75.7951 85.1914 76.4035 84.8185 77.114C84.4434 77.8245 84.2487 78.6156 84.2487 79.4185Z" fill="#0B2B41"/>
<path d="M57.3248 79.4185C57.3228 80.6514 57.7848 81.8399 58.6178 82.7483C59.0799 82.2409 59.6435 81.8356 60.2713 81.5581C60.8991 81.2809 61.5788 81.1375 62.2646 81.1375C62.9505 81.1375 63.6301 81.2809 64.258 81.5581C64.8858 81.8356 65.4494 82.2409 65.9115 82.7483C66.4523 82.1555 66.8418 81.4396 67.0449 80.6626C67.248 79.8854 67.2583 79.0706 67.0739 78.2888C66.8916 77.507 66.5206 76.7816 65.9923 76.1755C65.466 75.5695 64.7988 75.101 64.0507 74.8107C63.3027 74.5204 62.4946 74.417 61.6969 74.5094C60.8991 74.6018 60.1346 74.8873 59.4736 75.3411C58.8105 75.7951 58.2676 76.4035 57.8946 77.114C57.5196 77.8245 57.3248 78.6156 57.3248 79.4185Z" fill="#0B2B41"/>
<path d="M90.8565 78.9293C90.2079 78.9293 89.6837 78.4043 89.6837 77.7565C89.6837 77.1088 90.2079 76.5837 90.8565 76.5837C91.5051 76.5837 92.0293 77.1088 92.0293 77.7565C92.0293 78.4043 91.5051 78.9293 90.8565 78.9293Z" fill="#FCFDFD"/>
<path d="M63.4385 78.9296C62.79 78.9296 62.2657 78.4045 62.2657 77.7568C62.2657 77.109 62.79 76.584 63.4385 76.584C64.0871 76.584 64.6113 77.109 64.6113 77.7568C64.6113 78.4045 64.0871 78.9296 63.4385 78.9296Z" fill="#FCFDFD"/>
<path d="M61.9243 112.275C61.5887 112.275 61.2592 112.366 60.9733 112.539C60.6852 112.712 60.4511 112.96 60.2936 113.257C60.1382 113.553 60.0657 113.886 60.0843 114.221C60.103 114.555 60.2128 114.879 60.4014 115.156C61.9513 117.392 64.0213 119.219 66.4311 120.481C68.843 121.743 71.5242 122.402 74.2449 122.402C76.9655 122.402 79.6467 121.743 82.0586 120.481C84.4684 119.219 86.5384 117.392 88.0883 115.156C88.2769 114.879 88.3867 114.555 88.4053 114.221C88.424 113.886 88.3515 113.553 88.1961 113.257C88.0386 112.96 87.8044 112.712 87.5164 112.539C87.2284 112.366 86.901 112.275 86.5653 112.275H61.9243Z" fill="#BA6560"/>
<path d="M74.2448 123.439C77.1333 123.438 79.9782 122.738 82.5372 121.398C85.0962 120.059 87.2926 118.12 88.9399 115.748C89.2362 115.316 89.4102 114.811 89.4393 114.287C89.4703 113.764 89.3585 113.242 89.114 112.778C88.8694 112.314 88.5027 111.925 88.0531 111.655C87.6034 111.384 87.0895 111.241 86.5653 111.241H61.9243C61.4001 111.241 60.8862 111.384 60.4366 111.655C59.9869 111.925 59.6202 112.314 59.3757 112.778C59.1312 113.242 59.0193 113.764 59.0503 114.287C59.0794 114.811 59.2534 115.316 59.5497 115.748C61.197 118.12 63.3934 120.059 65.9524 121.398C68.5114 122.738 71.3564 123.438 74.2448 123.439ZM86.5653 113.313C86.7145 113.313 86.8595 113.354 86.988 113.431C87.1144 113.509 87.218 113.62 87.2864 113.753C87.3548 113.879 87.3879 114.023 87.3796 114.167C87.3713 114.311 87.3216 114.449 87.2387 114.567C85.7841 116.666 83.8405 118.381 81.5779 119.566C79.3152 120.75 76.7997 121.369 74.2469 121.369C71.692 121.369 69.1765 120.75 66.9138 119.566C64.6512 118.381 62.7075 116.666 61.253 114.567C61.1701 114.449 61.1204 114.311 61.1121 114.167C61.1038 114.023 61.1369 113.879 61.2053 113.753C61.2737 113.62 61.3773 113.509 61.5037 113.431C61.6322 113.354 61.7772 113.313 61.9264 113.313H86.5653Z" fill="#0B2B41"/>
</svg>
