<svg width="20" height="20" viewBox="0 0 20 20" xmlns="http://www.w3.org/2000/svg">
<g clip-path="url(#clip0_302_10393)">
<path fill-rule="evenodd" clip-rule="evenodd" d="M2.35586 0.638689C2.57458 0.4203 2.83721 0.250887 3.12636 0.141677C3.4155 0.0324666 3.72456 -0.0140472 4.03304 0.00521808C4.34152 0.0244833 4.64238 0.109088 4.91569 0.253424C5.189 0.397761 5.42852 0.598535 5.61836 0.842439L7.86211 3.72494C8.27336 4.25369 8.41836 4.94244 8.25586 5.59244L7.57211 8.32994C7.53676 8.47173 7.53867 8.62025 7.57766 8.76108C7.61664 8.90191 7.69138 9.03027 7.79461 9.13369L10.8659 12.2049C10.9694 12.3084 11.098 12.3832 11.2391 12.4222C11.3801 12.4612 11.5289 12.463 11.6709 12.4274L14.4071 11.7437C14.7279 11.6635 15.0627 11.6573 15.3862 11.7255C15.7097 11.7937 16.0135 11.9346 16.2746 12.1374L19.1571 14.3799C20.1934 15.1862 20.2884 16.7174 19.3609 17.6437L18.0684 18.9362C17.1434 19.8612 15.7609 20.2674 14.4721 19.8137C11.1736 18.6531 8.1787 16.7647 5.70961 14.2887C3.23372 11.82 1.34537 8.82551 0.184612 5.52744C-0.267888 4.23994 0.138362 2.85619 1.06336 1.93119L2.35586 0.638689Z" />
</g>
<defs>
<clipPath id="clip0_302_10393">
<rect width="20" height="20" />
</clipPath>
</defs>
</svg>
