<svg width="71" height="75" viewBox="0 0 71 75" fill="none" xmlns="http://www.w3.org/2000/svg">
<g clip-path="url(#clip0_302_10535)">
<path d="M46.721 20.387H14.826C14.0907 20.4072 13.3705 20.6002 12.7235 20.9505C12.0766 21.3007 11.5212 21.7984 11.102 22.4032L3.12833 33.4487C2.53624 34.2857 2.24055 35.2966 2.28817 36.321C2.3358 37.3453 2.72401 38.3244 3.3912 39.1029L27.3123 66.6725C27.7219 67.2007 28.2467 67.628 28.8465 67.9217C29.4464 68.2158 30.1055 68.3684 30.7735 68.3684C31.4414 68.3684 32.1006 68.2158 32.7004 67.9217C33.3003 67.628 33.825 67.2007 34.2346 66.6725L58.1557 39.1029C58.8228 38.3244 59.2111 37.3453 59.2589 36.321C59.3063 35.2966 59.0108 34.2857 58.4187 33.4487L50.4449 22.4032C50.0259 21.7984 49.4705 21.3007 48.8236 20.9505C48.1766 20.6002 47.4561 20.4072 46.721 20.387Z" stroke="#0B2B41" stroke-width="4.38312" stroke-linecap="round" stroke-linejoin="round"/>
<path d="M28.4946 20.343L17.7998 36.9112L30.7738 68.2504" stroke="#0B2B41" stroke-width="4.38312" stroke-linecap="round" stroke-linejoin="round"/>
<path d="M33.1842 20.343L43.8351 36.9112L30.7734 68.2504" stroke="#0B2B41" stroke-width="4.38312" stroke-linecap="round" stroke-linejoin="round"/>
<path d="M2.37305 36.9114H59.1782" stroke="#0B2B41" stroke-width="4.38312" stroke-linecap="round" stroke-linejoin="round"/>
</g>
<g clip-path="url(#clip1_302_10535)">
<path d="M36.0954 17.2653L47.1532 13.2442L51.1742 2.18646C51.5935 1.03323 53.2245 1.03322 53.6439 2.18646L57.6649 13.2442L68.7226 17.2653C69.8759 17.6846 69.8759 19.3156 68.7226 19.735L57.6649 23.756L53.6439 34.8137C53.2245 35.967 51.5935 35.967 51.1742 34.8137L47.1532 23.756L36.0954 19.735C34.9422 19.3156 34.9422 17.6846 36.0954 17.2653Z" stroke="#E67300" stroke-width="3.07587" stroke-linecap="round" stroke-linejoin="round"/>
</g>
<g clip-path="url(#clip2_302_10535)">
<path d="M1.4165 50.1993L8.58911 47.5911L11.1973 40.4185C11.4693 39.6704 12.5273 39.6704 12.7993 40.4185L15.4075 47.5911L22.5801 50.1993C23.3282 50.4713 23.3282 51.5293 22.5801 51.8013L15.4075 54.4095L12.7993 61.582C12.5273 62.3302 11.4693 62.3302 11.1973 61.582L8.58911 54.4095L1.4165 51.8013C0.668459 51.5293 0.668456 50.4713 1.4165 50.1993Z" stroke="#E67300" stroke-width="2.43507" stroke-linecap="round" stroke-linejoin="round"/>
</g>
<defs>
<clipPath id="clip0_302_10535">
<rect width="61.3637" height="61.3637" fill="white" transform="translate(0.0917969 13.6367)"/>
</clipPath>
<clipPath id="clip1_302_10535">
<rect width="37" height="37" fill="white" transform="translate(33.9082)"/>
</clipPath>
<clipPath id="clip2_302_10535">
<rect width="24" height="24" fill="white" transform="translate(0 39)"/>
</clipPath>
</defs>
</svg>
