<svg width="110" height="124" viewBox="0 0 110 124" fill="none" xmlns="http://www.w3.org/2000/svg">
<path d="M60.6029 102.251L56.7731 103.722C55.3919 104.233 53.87 104.233 52.4889 103.722L48.659 102.251C38.9584 98.5031 30.6261 91.9662 24.7453 83.4904C18.8645 75.014 15.7072 64.9905 15.6836 54.7226V36.9394C23.0348 37.9718 30.5326 37.0313 37.387 34.2168C44.2414 31.4024 50.1986 26.8182 54.631 20.9473C62.745 32.5895 76.1818 38.0908 93.5783 36.9394V54.7226C93.555 64.9905 90.3976 75.014 84.5166 83.4904C78.6355 91.9662 70.3035 98.5031 60.6029 102.251Z" stroke="#67B0E4" stroke-width="1.05758" stroke-linecap="round" stroke-linejoin="round"/>
<path d="M59.1502 95.1879L56.252 96.417C55.2068 96.8435 54.055 96.8435 53.0099 96.417L50.1116 95.1879C42.7706 92.0567 36.4651 86.5955 32.0148 79.5144C27.5644 72.4329 25.1751 64.0588 25.1572 55.4805V40.6237C30.7203 41.4862 36.3943 40.7005 41.5814 38.3491C46.7685 35.9978 51.2767 32.168 54.6309 27.2632C60.7713 36.9896 70.9397 41.5856 84.1046 40.6237V55.4805C84.0869 64.0588 81.6976 72.4329 77.2471 79.5144C72.7965 86.5955 66.4912 92.0567 59.1502 95.1879Z" stroke="#93C7EC" stroke-width="1.44094" stroke-linecap="round" stroke-linejoin="round"/>
<path d="M58.1824 86.548L55.9052 87.4494C55.084 87.7621 54.1791 87.7621 53.3578 87.4494L51.0806 86.548C45.3127 84.2518 40.3584 80.2469 36.8617 75.0541C33.365 69.861 31.4876 63.72 31.4736 57.4293V46.5343C35.8446 47.1668 40.3028 46.5906 44.3784 44.8663C48.4539 43.142 51.996 40.3335 54.6315 36.7366C59.4561 43.8693 67.4456 47.2397 77.7894 46.5343V57.4293C77.7755 63.72 75.8982 69.861 72.4014 75.0541C68.9045 80.2469 63.9503 84.2518 58.1824 86.548Z" stroke="#EEF6FC" stroke-width="2.38444" stroke-linecap="round" stroke-linejoin="round"/>
<path d="M62.34 110.273L57.7339 112.061C56.0728 112.682 54.2423 112.682 52.5812 112.061L47.9751 110.273C36.3081 105.719 26.2869 97.7754 19.214 87.4757C12.1411 77.1752 8.34377 64.9948 8.31543 52.5173V30.9073C17.1568 32.1619 26.1744 31.019 34.4182 27.5989C42.6619 24.1788 49.8267 18.6082 55.1575 11.4739C64.9163 25.6214 81.0768 32.3065 102 30.9073V52.5173C101.972 64.9948 98.1742 77.1752 91.101 87.4757C84.0279 97.7754 74.007 105.719 62.34 110.273Z" stroke="#2280C3" stroke-width="1.06561" stroke-linecap="round" stroke-linejoin="round"/>
<path d="M63.3088 119.324L58.0816 121.448C56.1965 122.184 54.1193 122.184 52.2342 121.448L47.007 119.324C33.767 113.916 22.3946 104.483 14.3681 92.2521C6.34149 80.0204 2.03216 65.5561 2 50.739V25.0772C12.0335 26.5671 22.2669 25.2098 31.6222 21.1484C40.9775 17.0871 49.1083 10.472 55.1579 2C66.2325 18.8002 84.5719 26.7387 108.316 25.0772V50.739C108.284 65.5561 103.975 80.0204 95.9477 92.2521C87.9209 104.483 76.5488 113.916 63.3088 119.324Z" stroke="#13476C" stroke-width="2.54336" stroke-linecap="round" stroke-linejoin="round"/>
</svg>
