<svg width="24" height="18" viewBox="0 0 24 18" fill="none" xmlns="http://www.w3.org/2000/svg">
<g clip-path="url(#clip0_302_10609)">
<mask id="mask0_302_10609" style="mask-type:luminance" maskUnits="userSpaceOnUse" x="0" y="0" width="24" height="18">
<rect width="24" height="18" fill="white"/>
</mask>
<g mask="url(#mask0_302_10609)">
<path fill-rule="evenodd" clip-rule="evenodd" d="M0 0V18H24V0H0Z" fill="#3D58DB"/>
<mask id="mask1_302_10609" style="mask-type:luminance" maskUnits="userSpaceOnUse" x="0" y="0" width="24" height="18">
<path fill-rule="evenodd" clip-rule="evenodd" d="M0 0V18H24V0H0Z" fill="white"/>
</mask>
<g mask="url(#mask1_302_10609)">
<path fill-rule="evenodd" clip-rule="evenodd" d="M0 0V6H24V0H0Z" fill="#F7FCFF"/>
<path fill-rule="evenodd" clip-rule="evenodd" d="M0 12V18H24V12H0Z" fill="#E31D1C"/>
<path d="M11.703 4.52271L11.9516 4.49626L11.9278 4.27271H11.703H4.75865H4.52494L4.50922 4.50589L4.75865 4.52271L4.50921 4.50595L4.5092 4.5061L4.50916 4.50668L4.50901 4.50896L4.50842 4.51784L4.50614 4.55241L4.49765 4.68429C4.49042 4.79839 4.48028 4.96261 4.4686 5.16333C4.44525 5.5647 4.41575 6.11241 4.39117 6.69742C4.3425 7.85607 4.31128 9.19541 4.39353 9.81347C4.5553 11.0291 5.29364 13.7385 8.13446 14.9656L8.23534 15.0092L8.33565 14.9643C11.038 13.756 11.9436 11.3226 12.1528 9.81483C12.258 9.05618 12.2048 7.71561 12.1293 6.58829C12.0912 6.01958 12.0468 5.49688 12.0119 5.11644C11.9945 4.92616 11.9794 4.77135 11.9687 4.664L11.9561 4.54005L11.9528 4.50757L11.9519 4.4992L11.9516 4.49704L11.9516 4.49647L11.9516 4.49632L11.703 4.52271Z" fill="#E31D1C" stroke="white" stroke-width="0.5"/>
<mask id="mask2_302_10609" style="mask-type:luminance" maskUnits="userSpaceOnUse" x="4" y="4" width="9" height="12">
<path d="M11.703 4.52271L11.9516 4.49626L11.9278 4.27271H11.703H4.75865H4.52494L4.50922 4.50589L4.75865 4.52271L4.50921 4.50595L4.5092 4.5061L4.50916 4.50668L4.50901 4.50896L4.50842 4.51784L4.50614 4.55241L4.49765 4.68429C4.49042 4.79839 4.48028 4.96261 4.4686 5.16333C4.44525 5.5647 4.41575 6.11241 4.39117 6.69742C4.3425 7.85607 4.31128 9.19541 4.39353 9.81347C4.5553 11.0291 5.29364 13.7385 8.13446 14.9656L8.23534 15.0092L8.33565 14.9643C11.038 13.756 11.9436 11.3226 12.1528 9.81483C12.258 9.05618 12.2048 7.71561 12.1293 6.58829C12.0912 6.01958 12.0468 5.49688 12.0119 5.11644C11.9945 4.92616 11.9794 4.77135 11.9687 4.664L11.9561 4.54005L11.9528 4.50757L11.9519 4.4992L11.9516 4.49704L11.9516 4.49647L11.9516 4.49632L11.703 4.52271Z" fill="white" stroke="white" stroke-width="0.5"/>
</mask>
<g mask="url(#mask2_302_10609)">
<path fill-rule="evenodd" clip-rule="evenodd" d="M7.3971 4.94238C7.3971 4.94238 7.55196 5.17835 7.62129 5.53916C7.69062 5.89997 7.70258 6.31042 7.70258 6.31042L6.52952 6.12953V7.46524L7.7354 7.27396L7.69933 8.67461C7.69933 8.67461 7.5461 8.72119 7.17756 8.67461C6.80903 8.62802 6.08301 8.43288 6.08301 8.43288V9.70817C6.08301 9.70817 6.82063 9.47218 7.17756 9.41803C7.53449 9.36388 7.69933 9.41803 7.69933 9.41803L7.71099 10.6409H8.90704L8.89538 9.41803C8.89538 9.41803 9.27178 9.36009 9.66941 9.42282C10.067 9.48555 10.4442 9.70817 10.4442 9.70817V8.43288C10.4442 8.43288 10.0621 8.62326 9.70169 8.67063C9.34127 8.71801 8.89538 8.67461 8.89538 8.67461L8.93145 7.27396C8.93145 7.27396 9.1402 7.2223 9.42012 7.2603C9.70003 7.2983 10.0504 7.46524 10.0504 7.46524V6.12953C10.0504 6.12953 9.7089 6.31534 9.44023 6.34905C9.17156 6.38275 8.89863 6.31042 8.89863 6.31042C8.89863 6.31042 8.90861 5.87976 8.96638 5.56209C9.02415 5.24442 9.18774 4.94238 9.18774 4.94238H7.3971Z" fill="#F7FCFF"/>
<path fill-rule="evenodd" clip-rule="evenodd" d="M5.17285 12.1839C5.17285 12.1839 5.50247 11.4765 6.03882 11.342C6.57517 11.2074 7.13758 11.7629 7.13758 11.7629C7.13758 11.7629 7.48101 10.6406 8.31809 10.6406C9.15516 10.6406 9.44894 11.7629 9.44894 11.7629C9.44894 11.7629 9.80608 11.342 10.3197 11.342C10.8333 11.342 11.3091 12.1839 11.3091 12.1839C11.3091 12.1839 9.77502 14.969 8.24096 14.969C6.70691 14.969 5.17285 12.1839 5.17285 12.1839Z" fill="#2E42A5"/>
</g>
</g>
</g>
</g>
<defs>
<clipPath id="clip0_302_10609">
<rect width="24" height="18" fill="white"/>
</clipPath>
</defs>
</svg>
