<svg width="24" height="18" viewBox="0 0 24 18" fill="none" xmlns="http://www.w3.org/2000/svg">
<g clip-path="url(#clip0_302_10610)">
<mask id="mask0_302_10610" style="mask-type:luminance" maskUnits="userSpaceOnUse" x="0" y="0" width="24" height="18">
<rect width="24" height="18" fill="white"/>
</mask>
<g mask="url(#mask0_302_10610)">
<path fill-rule="evenodd" clip-rule="evenodd" d="M0 0V18H24V0H0Z" fill="#2E42A5"/>
<mask id="mask1_302_10610" style="mask-type:luminance" maskUnits="userSpaceOnUse" x="0" y="0" width="24" height="18">
<path fill-rule="evenodd" clip-rule="evenodd" d="M0 0V18H24V0H0Z" fill="white"/>
</mask>
<g mask="url(#mask1_302_10610)">
<path fill-rule="evenodd" clip-rule="evenodd" d="M0 0V6H24V0H0Z" fill="#F7FCFF"/>
<path fill-rule="evenodd" clip-rule="evenodd" d="M0 12V18H24V12H0Z" fill="#C51918"/>
<path fill-rule="evenodd" clip-rule="evenodd" d="M10.3055 3.77719C10.3055 3.77719 8.72693 3.03174 6.76358 3.03174C4.80023 3.03174 3.22168 3.77719 3.22168 3.77719C3.22168 3.77719 3.39735 6.77323 3.675 8.36038C3.79355 9.03804 4.36335 10.0264 4.8792 10.4942C5.46718 11.0275 6.76358 11.6592 6.76358 11.6592C7.13874 11.4007 7.84019 11.2844 8.73676 10.4942C9.63334 9.70406 9.85619 8.36038 9.85619 8.36038L10.3055 3.77719Z" fill="#2E42A5"/>
<path d="M10.0963 3.6792L10.7537 4.00749L10.3025 8.52446C10.1444 9.48046 9.7489 10.2344 9.11644 10.7918C8.77335 11.0941 8.43846 11.32 8.07941 11.5078C7.87674 11.6137 7.02898 12.0504 7.03636 12.0469C6.95142 12.0878 6.88701 12.1237 6.83469 12.1597L6.7527 12.2162L6.66417 12.1731C5.7861 11.7452 4.96687 11.1694 4.55976 10.8002C4.00403 10.2962 3.41806 9.26493 3.29314 8.55082C3.10635 7.48308 2.93884 6.0124 2.82129 4.00749L3.41184 3.69854C3.52851 5.68835 3.66935 7.27453 3.85276 8.323C3.96128 8.94331 4.50162 9.89431 4.99454 10.3413C5.35884 10.6717 5.94574 11.038 6.7527 11.4364C6.80083 11.4082 6.85418 11.3803 6.9152 11.3509C6.91692 11.3501 7.46585 11.1063 7.65663 11.0065C7.99124 10.8316 8.30226 10.6218 8.62248 10.3396C9.18391 9.84477 9.53432 9.17841 9.67603 8.33189L10.0963 3.6792Z" fill="#C51918"/>
<path fill-rule="evenodd" clip-rule="evenodd" d="M4.15625 8.26808C4.15625 8.26808 4.54305 9.45144 5.22044 10.1119C5.89783 10.7724 6.73523 11.0962 6.73523 11.0962C6.73523 11.0962 7.73264 10.7944 8.29872 10.1589C8.8648 9.5235 9.44433 8.26808 9.44433 8.26808L8.12786 7.00464L7.60461 7.57244L6.73523 6.33301L6.00739 7.57244L5.44928 7.00464L4.15625 8.26808Z" fill="white"/>
<path fill-rule="evenodd" clip-rule="evenodd" d="M5.36035 4.41471H4.83301L5.24201 4.03155L4.83301 3.62666H5.36035L5.58301 3.23364L5.80656 3.62666H6.33301L5.94445 4.00724L6.28947 4.41471H5.80656L5.58301 4.82946L5.36035 4.41471Z" fill="#FECA00"/>
<path fill-rule="evenodd" clip-rule="evenodd" d="M7.8457 4.41471H7.31836L7.72736 4.03155L7.31836 3.62666H7.8457L8.06836 3.23364L8.29192 3.62666H8.81836L8.4298 4.00724L8.77482 4.41471H8.29192L8.06836 4.82946L7.8457 4.41471Z" fill="#FECA00"/>
<path fill-rule="evenodd" clip-rule="evenodd" d="M6.45019 5.6757H5.92285L6.33186 5.29254L5.92285 4.88765H6.45019L6.67285 4.49463L6.89641 4.88765H7.42285L7.0343 5.26822L7.37931 5.6757H6.89641L6.67285 6.09045L6.45019 5.6757Z" fill="#FECA00"/>
</g>
</g>
</g>
<defs>
<clipPath id="clip0_302_10610">
<rect width="24" height="18" fill="white"/>
</clipPath>
</defs>
</svg>
