<svg width="94" height="116" viewBox="0 0 94 116" fill="none" xmlns="http://www.w3.org/2000/svg">
<path d="M47.0283 70.7981V77.0994" stroke="#13476C" stroke-width="3.58691" stroke-linecap="round" stroke-linejoin="round"/>
<path d="M47.0283 88.127L47.0283 96.0036" stroke="#1B6498" stroke-width="3.58691" stroke-linecap="round" stroke-linejoin="round"/>
<path d="M47.0283 107.031L47.0283 113.332" stroke="#2280C3" stroke-width="3.58691" stroke-linecap="round" stroke-linejoin="round"/>
<rect width="5.37842" height="55.4892" rx="1.65624" transform="matrix(0.931238 -0.364412 0.347067 0.93784 66.6787 58.6028)" fill="#8DD5F2"/>
<rect width="5.37842" height="55.4892" rx="1.65624" transform="matrix(-0.931238 -0.364412 -0.347067 0.93784 26.6689 58.6028)" fill="#8DD5F2"/>
<path d="M47.3085 13.7996L62.1977 34.0159L47.3085 54.2321L32.418 34.0159L47.3085 13.7996Z" stroke="#93C7EC" stroke-width="1.24947" stroke-linecap="round" stroke-linejoin="round"/>
<path d="M62.1974 34.0164L47.3085 38.9612L32.418 34.0164" stroke="#93C7EC" stroke-width="1.24947" stroke-linecap="round" stroke-linejoin="round"/>
<path d="M47.1862 3.06714L72.5655 37.5268L47.1862 71.9862L21.8047 37.5269L47.1862 3.06714Z" stroke="#1B6498" stroke-width="2.93109" stroke-linecap="round" stroke-linejoin="round"/>
<path d="M72.5651 37.5273L47.1862 45.956L21.8047 37.5274" stroke="#1B6498" stroke-width="2.93109" stroke-linecap="round" stroke-linejoin="round"/>
<path d="M59.5508 2C67.7112 3.00198 75.1392 7.20456 80.2014 13.6833C85.2628 20.162 87.5433 28.386 86.5414 36.5464" stroke="#3897DC" stroke-width="1.12223" stroke-linecap="round" stroke-linejoin="round"/>
<path d="M64.1934 12C67.3043 12.382 70.1361 13.9841 72.0657 16.4538C73.9953 18.9236 74.8645 22.0587 74.4825 25.1695" stroke="#3897DC" stroke-width="1.03116" stroke-linecap="round" stroke-linejoin="round"/>
<path d="M35.5419 2.00043C27.3816 3.00239 19.9535 7.20498 14.8918 13.6837C9.83012 20.1624 7.54937 28.3865 8.55133 36.5468" stroke="#3897DC" stroke-width="1.12223" stroke-linecap="round" stroke-linejoin="round"/>
<path d="M28.2567 13.186C25.1458 13.568 22.3142 15.1701 20.3845 17.6399C18.455 20.1096 17.5856 23.2448 17.9675 26.3556" stroke="#3897DC" stroke-width="1.03116" stroke-linecap="round" stroke-linejoin="round"/>
<rect width="4.32772" height="64.9406" rx="0.785095" transform="matrix(0.932524 -0.361108 0.35028 0.936645 66.7832 53.8164)" fill="#13476C"/>
<rect width="4.32772" height="64.9406" rx="0.785095" transform="matrix(-0.932524 -0.361108 -0.35028 0.936645 26.7832 53.8127)" fill="#13476C"/>
</svg>
