<?xml version="1.0" standalone="no"?>
<!DOCTYPE svg PUBLIC "-//W3C//DTD SVG 20010904//EN"
 "http://www.w3.org/TR/2001/REC-SVG-20010904/DTD/svg10.dtd">
<svg version="1.0" xmlns="http://www.w3.org/2000/svg"
 width="270.000000pt" height="270.000000pt" viewBox="0 0 270.000000 270.000000"
 preserveAspectRatio="xMidYMid meet">
<metadata>
Created by potrace 1.14, written by Peter Selinger 2001-2017
</metadata>
<g transform="translate(0.000000,270.000000) scale(0.100000,-0.100000)"
fill="#000000" stroke="none">
<path d="M145 2688 c-53 -19 -96 -59 -121 -112 l-24 -51 5 -1155 c3 -635 8
-1173 11 -1195 7 -55 50 -114 104 -142 l45 -22 1170 -4 c1292 -4 1232 -7 1298
59 68 68 64 -5 60 1289 -5 1146 -5 1171 -25 1217 -21 49 -61 86 -113 105 -42
16 -2368 26 -2410 11z"/>
</g>
</svg>
